%TF.GenerationSoftware,KiCad,Pcbnew,(7.0.0-0)*%
%TF.CreationDate,2023-03-03T08:57:53+01:00*%
%TF.ProjectId,sensor_circuit_board_esp32,73656e73-6f72-45f6-9369-72637569745f,rev?*%
%TF.SameCoordinates,Original*%
%TF.FileFunction,Soldermask,Bot*%
%TF.FilePolarity,Negative*%
%FSLAX46Y46*%
G04 Gerber Fmt 4.6, Leading zero omitted, Abs format (unit mm)*
G04 Created by KiCad (PCBNEW (7.0.0-0)) date 2023-03-03 08:57:53*
%MOMM*%
%LPD*%
G01*
G04 APERTURE LIST*
%ADD10C,1.600000*%
%ADD11O,1.600000X1.600000*%
%ADD12C,2.600000*%
%ADD13R,3.000000X3.000000*%
%ADD14C,3.000000*%
%ADD15R,1.600000X1.600000*%
%ADD16R,2.000000X1.200000*%
%ADD17O,2.000000X1.200000*%
%ADD18R,2.240000X2.240000*%
%ADD19O,2.240000X2.240000*%
G04 APERTURE END LIST*
D10*
%TO.C,R6*%
X165918000Y-94892000D03*
D11*
X165917999Y-87271999D03*
%TD*%
D12*
%TO.C,BT1*%
X81530000Y-111000000D03*
X103730000Y-96250000D03*
X81530000Y-83000000D03*
D13*
X98979999Y-72099999D03*
D14*
X86280000Y-72100000D03*
%TD*%
D10*
%TO.C,R12*%
X179810000Y-115220000D03*
D11*
X179809999Y-107599999D03*
%TD*%
D15*
%TO.C,U1*%
X118369999Y-86559999D03*
D11*
X118369999Y-89099999D03*
X118369999Y-91639999D03*
X118369999Y-94179999D03*
X125989999Y-94179999D03*
X125989999Y-91639999D03*
X125989999Y-89099999D03*
X125989999Y-86559999D03*
%TD*%
D10*
%TO.C,R5*%
X111552000Y-114188000D03*
D11*
X111551999Y-106567999D03*
%TD*%
D16*
%TO.C,U5*%
X132989999Y-77366559D03*
D17*
X132989999Y-79906559D03*
X132989999Y-82446559D03*
X132989999Y-84986559D03*
X132989999Y-87526559D03*
X132989999Y-90066559D03*
X132989999Y-92606559D03*
X132989999Y-95146559D03*
X132989999Y-97686559D03*
X132989999Y-100226559D03*
X132989999Y-102766559D03*
X132989999Y-105306559D03*
X132989999Y-107846559D03*
X132989999Y-110386559D03*
X132989999Y-112926559D03*
X132989999Y-115466559D03*
X132989999Y-118006559D03*
X132989999Y-120546559D03*
X132989999Y-123086559D03*
X158386319Y-123083839D03*
X158386319Y-120543839D03*
X158389999Y-118006559D03*
X158389999Y-115466559D03*
X158389999Y-112926559D03*
X158389999Y-110386559D03*
X158389999Y-107846559D03*
X158389999Y-105306559D03*
X158389999Y-102766559D03*
X158389999Y-100226559D03*
X158389999Y-97686559D03*
X158389999Y-95146559D03*
X158389999Y-92606559D03*
X158389999Y-90066559D03*
X158389999Y-87526559D03*
X158389999Y-84986559D03*
X158389999Y-82446559D03*
X158389999Y-79906559D03*
X158389999Y-77366559D03*
%TD*%
D10*
%TO.C,R3*%
X115132000Y-114178000D03*
D11*
X115131999Y-106557999D03*
%TD*%
D15*
%TO.C,U4*%
X169209999Y-107129999D03*
D11*
X169209999Y-109669999D03*
X169209999Y-112209999D03*
X169209999Y-114749999D03*
X176829999Y-114749999D03*
X176829999Y-112209999D03*
X176829999Y-109669999D03*
X176829999Y-107129999D03*
%TD*%
D10*
%TO.C,R10*%
X179548000Y-94852000D03*
D11*
X179547999Y-87231999D03*
%TD*%
D10*
%TO.C,R4*%
X129100000Y-94690000D03*
D11*
X129099999Y-87069999D03*
%TD*%
D15*
%TO.C,U2*%
X118219999Y-106059999D03*
D11*
X118219999Y-108599999D03*
X118219999Y-111139999D03*
X118219999Y-113679999D03*
X125839999Y-113679999D03*
X125839999Y-111139999D03*
X125839999Y-108599999D03*
X125839999Y-106059999D03*
%TD*%
D10*
%TO.C,R11*%
X162520000Y-115230000D03*
D11*
X162519999Y-107609999D03*
%TD*%
D12*
%TO.C,BT2*%
X190590000Y-111030000D03*
X212790000Y-96280000D03*
X190590000Y-83030000D03*
D13*
X208039999Y-72129999D03*
D14*
X195340000Y-72130000D03*
%TD*%
D10*
%TO.C,R9*%
X166060000Y-115240000D03*
D11*
X166059999Y-107619999D03*
%TD*%
D18*
%TO.C,Rs4*%
X174539999Y-103159999D03*
D19*
X171999999Y-103159999D03*
%TD*%
D10*
%TO.C,R1*%
X115150000Y-94670000D03*
D11*
X115149999Y-87049999D03*
%TD*%
D18*
%TO.C,Rs1*%
X123339999Y-82749999D03*
D19*
X120799999Y-82749999D03*
%TD*%
D10*
%TO.C,R2*%
X111820000Y-94670000D03*
D11*
X111819999Y-87049999D03*
%TD*%
D10*
%TO.C,R7*%
X128912000Y-114218000D03*
D11*
X128911999Y-106597999D03*
%TD*%
D15*
%TO.C,U3*%
X168969999Y-86749999D03*
D11*
X168969999Y-89289999D03*
X168969999Y-91829999D03*
X168969999Y-94369999D03*
X176589999Y-94369999D03*
X176589999Y-91829999D03*
X176589999Y-89289999D03*
X176589999Y-86749999D03*
%TD*%
D18*
%TO.C,Rs2*%
X123091999Y-102147999D03*
D19*
X120551999Y-102147999D03*
%TD*%
D18*
%TO.C,Rs3*%
X174047999Y-82331999D03*
D19*
X171507999Y-82331999D03*
%TD*%
D10*
%TO.C,R8*%
X162228000Y-94852000D03*
D11*
X162227999Y-87231999D03*
%TD*%
M02*
