%TF.GenerationSoftware,KiCad,Pcbnew,(7.0.0-0)*%
%TF.CreationDate,2023-03-03T08:57:52+01:00*%
%TF.ProjectId,sensor_circuit_board_esp32,73656e73-6f72-45f6-9369-72637569745f,rev?*%
%TF.SameCoordinates,Original*%
%TF.FileFunction,Legend,Top*%
%TF.FilePolarity,Positive*%
%FSLAX46Y46*%
G04 Gerber Fmt 4.6, Leading zero omitted, Abs format (unit mm)*
G04 Created by KiCad (PCBNEW (7.0.0-0)) date 2023-03-03 08:57:52*
%MOMM*%
%LPD*%
G01*
G04 APERTURE LIST*
%ADD10C,0.150000*%
%ADD11C,0.120000*%
G04 APERTURE END LIST*
D10*
%TO.C,R6*%
X166295380Y-97168666D02*
X165819190Y-97501999D01*
X166295380Y-97740094D02*
X165295380Y-97740094D01*
X165295380Y-97740094D02*
X165295380Y-97359142D01*
X165295380Y-97359142D02*
X165343000Y-97263904D01*
X165343000Y-97263904D02*
X165390619Y-97216285D01*
X165390619Y-97216285D02*
X165485857Y-97168666D01*
X165485857Y-97168666D02*
X165628714Y-97168666D01*
X165628714Y-97168666D02*
X165723952Y-97216285D01*
X165723952Y-97216285D02*
X165771571Y-97263904D01*
X165771571Y-97263904D02*
X165819190Y-97359142D01*
X165819190Y-97359142D02*
X165819190Y-97740094D01*
X165295380Y-96311523D02*
X165295380Y-96501999D01*
X165295380Y-96501999D02*
X165343000Y-96597237D01*
X165343000Y-96597237D02*
X165390619Y-96644856D01*
X165390619Y-96644856D02*
X165533476Y-96740094D01*
X165533476Y-96740094D02*
X165723952Y-96787713D01*
X165723952Y-96787713D02*
X166104904Y-96787713D01*
X166104904Y-96787713D02*
X166200142Y-96740094D01*
X166200142Y-96740094D02*
X166247761Y-96692475D01*
X166247761Y-96692475D02*
X166295380Y-96597237D01*
X166295380Y-96597237D02*
X166295380Y-96406761D01*
X166295380Y-96406761D02*
X166247761Y-96311523D01*
X166247761Y-96311523D02*
X166200142Y-96263904D01*
X166200142Y-96263904D02*
X166104904Y-96216285D01*
X166104904Y-96216285D02*
X165866809Y-96216285D01*
X165866809Y-96216285D02*
X165771571Y-96263904D01*
X165771571Y-96263904D02*
X165723952Y-96311523D01*
X165723952Y-96311523D02*
X165676333Y-96406761D01*
X165676333Y-96406761D02*
X165676333Y-96597237D01*
X165676333Y-96597237D02*
X165723952Y-96692475D01*
X165723952Y-96692475D02*
X165771571Y-96740094D01*
X165771571Y-96740094D02*
X165866809Y-96787713D01*
%TO.C,BT1*%
X74693571Y-97015714D02*
X74741190Y-96872857D01*
X74741190Y-96872857D02*
X74788809Y-96825238D01*
X74788809Y-96825238D02*
X74884047Y-96777619D01*
X74884047Y-96777619D02*
X75026904Y-96777619D01*
X75026904Y-96777619D02*
X75122142Y-96825238D01*
X75122142Y-96825238D02*
X75169761Y-96872857D01*
X75169761Y-96872857D02*
X75217380Y-96968095D01*
X75217380Y-96968095D02*
X75217380Y-97349047D01*
X75217380Y-97349047D02*
X74217380Y-97349047D01*
X74217380Y-97349047D02*
X74217380Y-97015714D01*
X74217380Y-97015714D02*
X74265000Y-96920476D01*
X74265000Y-96920476D02*
X74312619Y-96872857D01*
X74312619Y-96872857D02*
X74407857Y-96825238D01*
X74407857Y-96825238D02*
X74503095Y-96825238D01*
X74503095Y-96825238D02*
X74598333Y-96872857D01*
X74598333Y-96872857D02*
X74645952Y-96920476D01*
X74645952Y-96920476D02*
X74693571Y-97015714D01*
X74693571Y-97015714D02*
X74693571Y-97349047D01*
X74217380Y-96491904D02*
X74217380Y-95920476D01*
X75217380Y-96206190D02*
X74217380Y-96206190D01*
X75217380Y-95063333D02*
X75217380Y-95634761D01*
X75217380Y-95349047D02*
X74217380Y-95349047D01*
X74217380Y-95349047D02*
X74360238Y-95444285D01*
X74360238Y-95444285D02*
X74455476Y-95539523D01*
X74455476Y-95539523D02*
X74503095Y-95634761D01*
%TO.C,R12*%
X180157380Y-118392857D02*
X179681190Y-118726190D01*
X180157380Y-118964285D02*
X179157380Y-118964285D01*
X179157380Y-118964285D02*
X179157380Y-118583333D01*
X179157380Y-118583333D02*
X179205000Y-118488095D01*
X179205000Y-118488095D02*
X179252619Y-118440476D01*
X179252619Y-118440476D02*
X179347857Y-118392857D01*
X179347857Y-118392857D02*
X179490714Y-118392857D01*
X179490714Y-118392857D02*
X179585952Y-118440476D01*
X179585952Y-118440476D02*
X179633571Y-118488095D01*
X179633571Y-118488095D02*
X179681190Y-118583333D01*
X179681190Y-118583333D02*
X179681190Y-118964285D01*
X180157380Y-117440476D02*
X180157380Y-118011904D01*
X180157380Y-117726190D02*
X179157380Y-117726190D01*
X179157380Y-117726190D02*
X179300238Y-117821428D01*
X179300238Y-117821428D02*
X179395476Y-117916666D01*
X179395476Y-117916666D02*
X179443095Y-118011904D01*
X179252619Y-117059523D02*
X179205000Y-117011904D01*
X179205000Y-117011904D02*
X179157380Y-116916666D01*
X179157380Y-116916666D02*
X179157380Y-116678571D01*
X179157380Y-116678571D02*
X179205000Y-116583333D01*
X179205000Y-116583333D02*
X179252619Y-116535714D01*
X179252619Y-116535714D02*
X179347857Y-116488095D01*
X179347857Y-116488095D02*
X179443095Y-116488095D01*
X179443095Y-116488095D02*
X179585952Y-116535714D01*
X179585952Y-116535714D02*
X180157380Y-117107142D01*
X180157380Y-117107142D02*
X180157380Y-116488095D01*
%TO.C,U1*%
X121468095Y-88057380D02*
X121468095Y-88866904D01*
X121468095Y-88866904D02*
X121515714Y-88962142D01*
X121515714Y-88962142D02*
X121563333Y-89009761D01*
X121563333Y-89009761D02*
X121658571Y-89057380D01*
X121658571Y-89057380D02*
X121849047Y-89057380D01*
X121849047Y-89057380D02*
X121944285Y-89009761D01*
X121944285Y-89009761D02*
X121991904Y-88962142D01*
X121991904Y-88962142D02*
X122039523Y-88866904D01*
X122039523Y-88866904D02*
X122039523Y-88057380D01*
X123039523Y-89057380D02*
X122468095Y-89057380D01*
X122753809Y-89057380D02*
X122753809Y-88057380D01*
X122753809Y-88057380D02*
X122658571Y-88200238D01*
X122658571Y-88200238D02*
X122563333Y-88295476D01*
X122563333Y-88295476D02*
X122468095Y-88343095D01*
%TO.C,R5*%
X111919380Y-116614666D02*
X111443190Y-116947999D01*
X111919380Y-117186094D02*
X110919380Y-117186094D01*
X110919380Y-117186094D02*
X110919380Y-116805142D01*
X110919380Y-116805142D02*
X110967000Y-116709904D01*
X110967000Y-116709904D02*
X111014619Y-116662285D01*
X111014619Y-116662285D02*
X111109857Y-116614666D01*
X111109857Y-116614666D02*
X111252714Y-116614666D01*
X111252714Y-116614666D02*
X111347952Y-116662285D01*
X111347952Y-116662285D02*
X111395571Y-116709904D01*
X111395571Y-116709904D02*
X111443190Y-116805142D01*
X111443190Y-116805142D02*
X111443190Y-117186094D01*
X110919380Y-115709904D02*
X110919380Y-116186094D01*
X110919380Y-116186094D02*
X111395571Y-116233713D01*
X111395571Y-116233713D02*
X111347952Y-116186094D01*
X111347952Y-116186094D02*
X111300333Y-116090856D01*
X111300333Y-116090856D02*
X111300333Y-115852761D01*
X111300333Y-115852761D02*
X111347952Y-115757523D01*
X111347952Y-115757523D02*
X111395571Y-115709904D01*
X111395571Y-115709904D02*
X111490809Y-115662285D01*
X111490809Y-115662285D02*
X111728904Y-115662285D01*
X111728904Y-115662285D02*
X111824142Y-115709904D01*
X111824142Y-115709904D02*
X111871761Y-115757523D01*
X111871761Y-115757523D02*
X111919380Y-115852761D01*
X111919380Y-115852761D02*
X111919380Y-116090856D01*
X111919380Y-116090856D02*
X111871761Y-116186094D01*
X111871761Y-116186094D02*
X111824142Y-116233713D01*
%TO.C,U5*%
X144928095Y-74633940D02*
X144928095Y-75443464D01*
X144928095Y-75443464D02*
X144975714Y-75538702D01*
X144975714Y-75538702D02*
X145023333Y-75586321D01*
X145023333Y-75586321D02*
X145118571Y-75633940D01*
X145118571Y-75633940D02*
X145309047Y-75633940D01*
X145309047Y-75633940D02*
X145404285Y-75586321D01*
X145404285Y-75586321D02*
X145451904Y-75538702D01*
X145451904Y-75538702D02*
X145499523Y-75443464D01*
X145499523Y-75443464D02*
X145499523Y-74633940D01*
X146451904Y-74633940D02*
X145975714Y-74633940D01*
X145975714Y-74633940D02*
X145928095Y-75110131D01*
X145928095Y-75110131D02*
X145975714Y-75062512D01*
X145975714Y-75062512D02*
X146070952Y-75014893D01*
X146070952Y-75014893D02*
X146309047Y-75014893D01*
X146309047Y-75014893D02*
X146404285Y-75062512D01*
X146404285Y-75062512D02*
X146451904Y-75110131D01*
X146451904Y-75110131D02*
X146499523Y-75205369D01*
X146499523Y-75205369D02*
X146499523Y-75443464D01*
X146499523Y-75443464D02*
X146451904Y-75538702D01*
X146451904Y-75538702D02*
X146404285Y-75586321D01*
X146404285Y-75586321D02*
X146309047Y-75633940D01*
X146309047Y-75633940D02*
X146070952Y-75633940D01*
X146070952Y-75633940D02*
X145975714Y-75586321D01*
X145975714Y-75586321D02*
X145928095Y-75538702D01*
X145533571Y-107091797D02*
X145533571Y-106758464D01*
X146057380Y-106615607D02*
X146057380Y-107091797D01*
X146057380Y-107091797D02*
X145057380Y-107091797D01*
X145057380Y-107091797D02*
X145057380Y-106615607D01*
X146009761Y-106234654D02*
X146057380Y-106091797D01*
X146057380Y-106091797D02*
X146057380Y-105853702D01*
X146057380Y-105853702D02*
X146009761Y-105758464D01*
X146009761Y-105758464D02*
X145962142Y-105710845D01*
X145962142Y-105710845D02*
X145866904Y-105663226D01*
X145866904Y-105663226D02*
X145771666Y-105663226D01*
X145771666Y-105663226D02*
X145676428Y-105710845D01*
X145676428Y-105710845D02*
X145628809Y-105758464D01*
X145628809Y-105758464D02*
X145581190Y-105853702D01*
X145581190Y-105853702D02*
X145533571Y-106044178D01*
X145533571Y-106044178D02*
X145485952Y-106139416D01*
X145485952Y-106139416D02*
X145438333Y-106187035D01*
X145438333Y-106187035D02*
X145343095Y-106234654D01*
X145343095Y-106234654D02*
X145247857Y-106234654D01*
X145247857Y-106234654D02*
X145152619Y-106187035D01*
X145152619Y-106187035D02*
X145105000Y-106139416D01*
X145105000Y-106139416D02*
X145057380Y-106044178D01*
X145057380Y-106044178D02*
X145057380Y-105806083D01*
X145057380Y-105806083D02*
X145105000Y-105663226D01*
X146057380Y-105234654D02*
X145057380Y-105234654D01*
X145057380Y-105234654D02*
X145057380Y-104853702D01*
X145057380Y-104853702D02*
X145105000Y-104758464D01*
X145105000Y-104758464D02*
X145152619Y-104710845D01*
X145152619Y-104710845D02*
X145247857Y-104663226D01*
X145247857Y-104663226D02*
X145390714Y-104663226D01*
X145390714Y-104663226D02*
X145485952Y-104710845D01*
X145485952Y-104710845D02*
X145533571Y-104758464D01*
X145533571Y-104758464D02*
X145581190Y-104853702D01*
X145581190Y-104853702D02*
X145581190Y-105234654D01*
X145057380Y-104329892D02*
X145057380Y-103710845D01*
X145057380Y-103710845D02*
X145438333Y-104044178D01*
X145438333Y-104044178D02*
X145438333Y-103901321D01*
X145438333Y-103901321D02*
X145485952Y-103806083D01*
X145485952Y-103806083D02*
X145533571Y-103758464D01*
X145533571Y-103758464D02*
X145628809Y-103710845D01*
X145628809Y-103710845D02*
X145866904Y-103710845D01*
X145866904Y-103710845D02*
X145962142Y-103758464D01*
X145962142Y-103758464D02*
X146009761Y-103806083D01*
X146009761Y-103806083D02*
X146057380Y-103901321D01*
X146057380Y-103901321D02*
X146057380Y-104187035D01*
X146057380Y-104187035D02*
X146009761Y-104282273D01*
X146009761Y-104282273D02*
X145962142Y-104329892D01*
X145152619Y-103329892D02*
X145105000Y-103282273D01*
X145105000Y-103282273D02*
X145057380Y-103187035D01*
X145057380Y-103187035D02*
X145057380Y-102948940D01*
X145057380Y-102948940D02*
X145105000Y-102853702D01*
X145105000Y-102853702D02*
X145152619Y-102806083D01*
X145152619Y-102806083D02*
X145247857Y-102758464D01*
X145247857Y-102758464D02*
X145343095Y-102758464D01*
X145343095Y-102758464D02*
X145485952Y-102806083D01*
X145485952Y-102806083D02*
X146057380Y-103377511D01*
X146057380Y-103377511D02*
X146057380Y-102758464D01*
X145676428Y-102329892D02*
X145676428Y-101567988D01*
X146057380Y-101091797D02*
X145057380Y-101091797D01*
X145057380Y-101091797D02*
X145057380Y-100853702D01*
X145057380Y-100853702D02*
X145105000Y-100710845D01*
X145105000Y-100710845D02*
X145200238Y-100615607D01*
X145200238Y-100615607D02*
X145295476Y-100567988D01*
X145295476Y-100567988D02*
X145485952Y-100520369D01*
X145485952Y-100520369D02*
X145628809Y-100520369D01*
X145628809Y-100520369D02*
X145819285Y-100567988D01*
X145819285Y-100567988D02*
X145914523Y-100615607D01*
X145914523Y-100615607D02*
X146009761Y-100710845D01*
X146009761Y-100710845D02*
X146057380Y-100853702D01*
X146057380Y-100853702D02*
X146057380Y-101091797D01*
X146009761Y-99710845D02*
X146057380Y-99806083D01*
X146057380Y-99806083D02*
X146057380Y-99996559D01*
X146057380Y-99996559D02*
X146009761Y-100091797D01*
X146009761Y-100091797D02*
X145914523Y-100139416D01*
X145914523Y-100139416D02*
X145533571Y-100139416D01*
X145533571Y-100139416D02*
X145438333Y-100091797D01*
X145438333Y-100091797D02*
X145390714Y-99996559D01*
X145390714Y-99996559D02*
X145390714Y-99806083D01*
X145390714Y-99806083D02*
X145438333Y-99710845D01*
X145438333Y-99710845D02*
X145533571Y-99663226D01*
X145533571Y-99663226D02*
X145628809Y-99663226D01*
X145628809Y-99663226D02*
X145724047Y-100139416D01*
X145390714Y-99329892D02*
X146057380Y-99091797D01*
X146057380Y-99091797D02*
X145390714Y-98853702D01*
X146057380Y-98472749D02*
X145057380Y-98472749D01*
X146057380Y-97901321D02*
X145485952Y-98329892D01*
X145057380Y-97901321D02*
X145628809Y-98472749D01*
X146057380Y-97472749D02*
X145390714Y-97472749D01*
X145057380Y-97472749D02*
X145105000Y-97520368D01*
X145105000Y-97520368D02*
X145152619Y-97472749D01*
X145152619Y-97472749D02*
X145105000Y-97425130D01*
X145105000Y-97425130D02*
X145057380Y-97472749D01*
X145057380Y-97472749D02*
X145152619Y-97472749D01*
X145390714Y-97139416D02*
X145390714Y-96758464D01*
X145057380Y-96996559D02*
X145914523Y-96996559D01*
X145914523Y-96996559D02*
X146009761Y-96948940D01*
X146009761Y-96948940D02*
X146057380Y-96853702D01*
X146057380Y-96853702D02*
X146057380Y-96758464D01*
X145962142Y-95853702D02*
X146009761Y-95901321D01*
X146009761Y-95901321D02*
X146057380Y-96044178D01*
X146057380Y-96044178D02*
X146057380Y-96139416D01*
X146057380Y-96139416D02*
X146009761Y-96282273D01*
X146009761Y-96282273D02*
X145914523Y-96377511D01*
X145914523Y-96377511D02*
X145819285Y-96425130D01*
X145819285Y-96425130D02*
X145628809Y-96472749D01*
X145628809Y-96472749D02*
X145485952Y-96472749D01*
X145485952Y-96472749D02*
X145295476Y-96425130D01*
X145295476Y-96425130D02*
X145200238Y-96377511D01*
X145200238Y-96377511D02*
X145105000Y-96282273D01*
X145105000Y-96282273D02*
X145057380Y-96139416D01*
X145057380Y-96139416D02*
X145057380Y-96044178D01*
X145057380Y-96044178D02*
X145105000Y-95901321D01*
X145105000Y-95901321D02*
X145152619Y-95853702D01*
X154520000Y-99817060D02*
X154453333Y-99783726D01*
X154453333Y-99783726D02*
X154353333Y-99783726D01*
X154353333Y-99783726D02*
X154253333Y-99817060D01*
X154253333Y-99817060D02*
X154186667Y-99883726D01*
X154186667Y-99883726D02*
X154153333Y-99950393D01*
X154153333Y-99950393D02*
X154120000Y-100083726D01*
X154120000Y-100083726D02*
X154120000Y-100183726D01*
X154120000Y-100183726D02*
X154153333Y-100317060D01*
X154153333Y-100317060D02*
X154186667Y-100383726D01*
X154186667Y-100383726D02*
X154253333Y-100450393D01*
X154253333Y-100450393D02*
X154353333Y-100483726D01*
X154353333Y-100483726D02*
X154420000Y-100483726D01*
X154420000Y-100483726D02*
X154520000Y-100450393D01*
X154520000Y-100450393D02*
X154553333Y-100417060D01*
X154553333Y-100417060D02*
X154553333Y-100183726D01*
X154553333Y-100183726D02*
X154420000Y-100183726D01*
X154853333Y-100483726D02*
X154853333Y-99783726D01*
X154853333Y-99783726D02*
X155120000Y-99783726D01*
X155120000Y-99783726D02*
X155186667Y-99817060D01*
X155186667Y-99817060D02*
X155220000Y-99850393D01*
X155220000Y-99850393D02*
X155253333Y-99917060D01*
X155253333Y-99917060D02*
X155253333Y-100017060D01*
X155253333Y-100017060D02*
X155220000Y-100083726D01*
X155220000Y-100083726D02*
X155186667Y-100117060D01*
X155186667Y-100117060D02*
X155120000Y-100150393D01*
X155120000Y-100150393D02*
X154853333Y-100150393D01*
X155553333Y-100483726D02*
X155553333Y-99783726D01*
X156020000Y-99783726D02*
X156153333Y-99783726D01*
X156153333Y-99783726D02*
X156220000Y-99817060D01*
X156220000Y-99817060D02*
X156286666Y-99883726D01*
X156286666Y-99883726D02*
X156320000Y-100017060D01*
X156320000Y-100017060D02*
X156320000Y-100250393D01*
X156320000Y-100250393D02*
X156286666Y-100383726D01*
X156286666Y-100383726D02*
X156220000Y-100450393D01*
X156220000Y-100450393D02*
X156153333Y-100483726D01*
X156153333Y-100483726D02*
X156020000Y-100483726D01*
X156020000Y-100483726D02*
X155953333Y-100450393D01*
X155953333Y-100450393D02*
X155886666Y-100383726D01*
X155886666Y-100383726D02*
X155853333Y-100250393D01*
X155853333Y-100250393D02*
X155853333Y-100017060D01*
X155853333Y-100017060D02*
X155886666Y-99883726D01*
X155886666Y-99883726D02*
X155953333Y-99817060D01*
X155953333Y-99817060D02*
X156020000Y-99783726D01*
X156953333Y-99783726D02*
X156619999Y-99783726D01*
X156619999Y-99783726D02*
X156586666Y-100117060D01*
X156586666Y-100117060D02*
X156619999Y-100083726D01*
X156619999Y-100083726D02*
X156686666Y-100050393D01*
X156686666Y-100050393D02*
X156853333Y-100050393D01*
X156853333Y-100050393D02*
X156919999Y-100083726D01*
X156919999Y-100083726D02*
X156953333Y-100117060D01*
X156953333Y-100117060D02*
X156986666Y-100183726D01*
X156986666Y-100183726D02*
X156986666Y-100350393D01*
X156986666Y-100350393D02*
X156953333Y-100417060D01*
X156953333Y-100417060D02*
X156919999Y-100450393D01*
X156919999Y-100450393D02*
X156853333Y-100483726D01*
X156853333Y-100483726D02*
X156686666Y-100483726D01*
X156686666Y-100483726D02*
X156619999Y-100450393D01*
X156619999Y-100450393D02*
X156586666Y-100417060D01*
X153853333Y-102357060D02*
X153786666Y-102323726D01*
X153786666Y-102323726D02*
X153686666Y-102323726D01*
X153686666Y-102323726D02*
X153586666Y-102357060D01*
X153586666Y-102357060D02*
X153520000Y-102423726D01*
X153520000Y-102423726D02*
X153486666Y-102490393D01*
X153486666Y-102490393D02*
X153453333Y-102623726D01*
X153453333Y-102623726D02*
X153453333Y-102723726D01*
X153453333Y-102723726D02*
X153486666Y-102857060D01*
X153486666Y-102857060D02*
X153520000Y-102923726D01*
X153520000Y-102923726D02*
X153586666Y-102990393D01*
X153586666Y-102990393D02*
X153686666Y-103023726D01*
X153686666Y-103023726D02*
X153753333Y-103023726D01*
X153753333Y-103023726D02*
X153853333Y-102990393D01*
X153853333Y-102990393D02*
X153886666Y-102957060D01*
X153886666Y-102957060D02*
X153886666Y-102723726D01*
X153886666Y-102723726D02*
X153753333Y-102723726D01*
X154186666Y-103023726D02*
X154186666Y-102323726D01*
X154186666Y-102323726D02*
X154453333Y-102323726D01*
X154453333Y-102323726D02*
X154520000Y-102357060D01*
X154520000Y-102357060D02*
X154553333Y-102390393D01*
X154553333Y-102390393D02*
X154586666Y-102457060D01*
X154586666Y-102457060D02*
X154586666Y-102557060D01*
X154586666Y-102557060D02*
X154553333Y-102623726D01*
X154553333Y-102623726D02*
X154520000Y-102657060D01*
X154520000Y-102657060D02*
X154453333Y-102690393D01*
X154453333Y-102690393D02*
X154186666Y-102690393D01*
X154886666Y-103023726D02*
X154886666Y-102323726D01*
X155353333Y-102323726D02*
X155486666Y-102323726D01*
X155486666Y-102323726D02*
X155553333Y-102357060D01*
X155553333Y-102357060D02*
X155619999Y-102423726D01*
X155619999Y-102423726D02*
X155653333Y-102557060D01*
X155653333Y-102557060D02*
X155653333Y-102790393D01*
X155653333Y-102790393D02*
X155619999Y-102923726D01*
X155619999Y-102923726D02*
X155553333Y-102990393D01*
X155553333Y-102990393D02*
X155486666Y-103023726D01*
X155486666Y-103023726D02*
X155353333Y-103023726D01*
X155353333Y-103023726D02*
X155286666Y-102990393D01*
X155286666Y-102990393D02*
X155219999Y-102923726D01*
X155219999Y-102923726D02*
X155186666Y-102790393D01*
X155186666Y-102790393D02*
X155186666Y-102557060D01*
X155186666Y-102557060D02*
X155219999Y-102423726D01*
X155219999Y-102423726D02*
X155286666Y-102357060D01*
X155286666Y-102357060D02*
X155353333Y-102323726D01*
X156319999Y-103023726D02*
X155919999Y-103023726D01*
X156119999Y-103023726D02*
X156119999Y-102323726D01*
X156119999Y-102323726D02*
X156053332Y-102423726D01*
X156053332Y-102423726D02*
X155986666Y-102490393D01*
X155986666Y-102490393D02*
X155919999Y-102523726D01*
X156553333Y-102323726D02*
X157019999Y-102323726D01*
X157019999Y-102323726D02*
X156719999Y-103023726D01*
X154520000Y-112517060D02*
X154453333Y-112483726D01*
X154453333Y-112483726D02*
X154353333Y-112483726D01*
X154353333Y-112483726D02*
X154253333Y-112517060D01*
X154253333Y-112517060D02*
X154186667Y-112583726D01*
X154186667Y-112583726D02*
X154153333Y-112650393D01*
X154153333Y-112650393D02*
X154120000Y-112783726D01*
X154120000Y-112783726D02*
X154120000Y-112883726D01*
X154120000Y-112883726D02*
X154153333Y-113017060D01*
X154153333Y-113017060D02*
X154186667Y-113083726D01*
X154186667Y-113083726D02*
X154253333Y-113150393D01*
X154253333Y-113150393D02*
X154353333Y-113183726D01*
X154353333Y-113183726D02*
X154420000Y-113183726D01*
X154420000Y-113183726D02*
X154520000Y-113150393D01*
X154520000Y-113150393D02*
X154553333Y-113117060D01*
X154553333Y-113117060D02*
X154553333Y-112883726D01*
X154553333Y-112883726D02*
X154420000Y-112883726D01*
X154853333Y-113183726D02*
X154853333Y-112483726D01*
X154853333Y-112483726D02*
X155120000Y-112483726D01*
X155120000Y-112483726D02*
X155186667Y-112517060D01*
X155186667Y-112517060D02*
X155220000Y-112550393D01*
X155220000Y-112550393D02*
X155253333Y-112617060D01*
X155253333Y-112617060D02*
X155253333Y-112717060D01*
X155253333Y-112717060D02*
X155220000Y-112783726D01*
X155220000Y-112783726D02*
X155186667Y-112817060D01*
X155186667Y-112817060D02*
X155120000Y-112850393D01*
X155120000Y-112850393D02*
X154853333Y-112850393D01*
X155553333Y-113183726D02*
X155553333Y-112483726D01*
X156020000Y-112483726D02*
X156153333Y-112483726D01*
X156153333Y-112483726D02*
X156220000Y-112517060D01*
X156220000Y-112517060D02*
X156286666Y-112583726D01*
X156286666Y-112583726D02*
X156320000Y-112717060D01*
X156320000Y-112717060D02*
X156320000Y-112950393D01*
X156320000Y-112950393D02*
X156286666Y-113083726D01*
X156286666Y-113083726D02*
X156220000Y-113150393D01*
X156220000Y-113150393D02*
X156153333Y-113183726D01*
X156153333Y-113183726D02*
X156020000Y-113183726D01*
X156020000Y-113183726D02*
X155953333Y-113150393D01*
X155953333Y-113150393D02*
X155886666Y-113083726D01*
X155886666Y-113083726D02*
X155853333Y-112950393D01*
X155853333Y-112950393D02*
X155853333Y-112717060D01*
X155853333Y-112717060D02*
X155886666Y-112583726D01*
X155886666Y-112583726D02*
X155953333Y-112517060D01*
X155953333Y-112517060D02*
X156020000Y-112483726D01*
X156586666Y-112550393D02*
X156619999Y-112517060D01*
X156619999Y-112517060D02*
X156686666Y-112483726D01*
X156686666Y-112483726D02*
X156853333Y-112483726D01*
X156853333Y-112483726D02*
X156919999Y-112517060D01*
X156919999Y-112517060D02*
X156953333Y-112550393D01*
X156953333Y-112550393D02*
X156986666Y-112617060D01*
X156986666Y-112617060D02*
X156986666Y-112683726D01*
X156986666Y-112683726D02*
X156953333Y-112783726D01*
X156953333Y-112783726D02*
X156553333Y-113183726D01*
X156553333Y-113183726D02*
X156986666Y-113183726D01*
X153853333Y-104897060D02*
X153786666Y-104863726D01*
X153786666Y-104863726D02*
X153686666Y-104863726D01*
X153686666Y-104863726D02*
X153586666Y-104897060D01*
X153586666Y-104897060D02*
X153520000Y-104963726D01*
X153520000Y-104963726D02*
X153486666Y-105030393D01*
X153486666Y-105030393D02*
X153453333Y-105163726D01*
X153453333Y-105163726D02*
X153453333Y-105263726D01*
X153453333Y-105263726D02*
X153486666Y-105397060D01*
X153486666Y-105397060D02*
X153520000Y-105463726D01*
X153520000Y-105463726D02*
X153586666Y-105530393D01*
X153586666Y-105530393D02*
X153686666Y-105563726D01*
X153686666Y-105563726D02*
X153753333Y-105563726D01*
X153753333Y-105563726D02*
X153853333Y-105530393D01*
X153853333Y-105530393D02*
X153886666Y-105497060D01*
X153886666Y-105497060D02*
X153886666Y-105263726D01*
X153886666Y-105263726D02*
X153753333Y-105263726D01*
X154186666Y-105563726D02*
X154186666Y-104863726D01*
X154186666Y-104863726D02*
X154453333Y-104863726D01*
X154453333Y-104863726D02*
X154520000Y-104897060D01*
X154520000Y-104897060D02*
X154553333Y-104930393D01*
X154553333Y-104930393D02*
X154586666Y-104997060D01*
X154586666Y-104997060D02*
X154586666Y-105097060D01*
X154586666Y-105097060D02*
X154553333Y-105163726D01*
X154553333Y-105163726D02*
X154520000Y-105197060D01*
X154520000Y-105197060D02*
X154453333Y-105230393D01*
X154453333Y-105230393D02*
X154186666Y-105230393D01*
X154886666Y-105563726D02*
X154886666Y-104863726D01*
X155353333Y-104863726D02*
X155486666Y-104863726D01*
X155486666Y-104863726D02*
X155553333Y-104897060D01*
X155553333Y-104897060D02*
X155619999Y-104963726D01*
X155619999Y-104963726D02*
X155653333Y-105097060D01*
X155653333Y-105097060D02*
X155653333Y-105330393D01*
X155653333Y-105330393D02*
X155619999Y-105463726D01*
X155619999Y-105463726D02*
X155553333Y-105530393D01*
X155553333Y-105530393D02*
X155486666Y-105563726D01*
X155486666Y-105563726D02*
X155353333Y-105563726D01*
X155353333Y-105563726D02*
X155286666Y-105530393D01*
X155286666Y-105530393D02*
X155219999Y-105463726D01*
X155219999Y-105463726D02*
X155186666Y-105330393D01*
X155186666Y-105330393D02*
X155186666Y-105097060D01*
X155186666Y-105097060D02*
X155219999Y-104963726D01*
X155219999Y-104963726D02*
X155286666Y-104897060D01*
X155286666Y-104897060D02*
X155353333Y-104863726D01*
X156319999Y-105563726D02*
X155919999Y-105563726D01*
X156119999Y-105563726D02*
X156119999Y-104863726D01*
X156119999Y-104863726D02*
X156053332Y-104963726D01*
X156053332Y-104963726D02*
X155986666Y-105030393D01*
X155986666Y-105030393D02*
X155919999Y-105063726D01*
X156919999Y-104863726D02*
X156786666Y-104863726D01*
X156786666Y-104863726D02*
X156719999Y-104897060D01*
X156719999Y-104897060D02*
X156686666Y-104930393D01*
X156686666Y-104930393D02*
X156619999Y-105030393D01*
X156619999Y-105030393D02*
X156586666Y-105163726D01*
X156586666Y-105163726D02*
X156586666Y-105430393D01*
X156586666Y-105430393D02*
X156619999Y-105497060D01*
X156619999Y-105497060D02*
X156653333Y-105530393D01*
X156653333Y-105530393D02*
X156719999Y-105563726D01*
X156719999Y-105563726D02*
X156853333Y-105563726D01*
X156853333Y-105563726D02*
X156919999Y-105530393D01*
X156919999Y-105530393D02*
X156953333Y-105497060D01*
X156953333Y-105497060D02*
X156986666Y-105430393D01*
X156986666Y-105430393D02*
X156986666Y-105263726D01*
X156986666Y-105263726D02*
X156953333Y-105197060D01*
X156953333Y-105197060D02*
X156919999Y-105163726D01*
X156919999Y-105163726D02*
X156853333Y-105130393D01*
X156853333Y-105130393D02*
X156719999Y-105130393D01*
X156719999Y-105130393D02*
X156653333Y-105163726D01*
X156653333Y-105163726D02*
X156619999Y-105197060D01*
X156619999Y-105197060D02*
X156586666Y-105263726D01*
X154834285Y-92021560D02*
X154739047Y-91973940D01*
X154739047Y-91973940D02*
X154596190Y-91973940D01*
X154596190Y-91973940D02*
X154453333Y-92021560D01*
X154453333Y-92021560D02*
X154358095Y-92116798D01*
X154358095Y-92116798D02*
X154310476Y-92212036D01*
X154310476Y-92212036D02*
X154262857Y-92402512D01*
X154262857Y-92402512D02*
X154262857Y-92545369D01*
X154262857Y-92545369D02*
X154310476Y-92735845D01*
X154310476Y-92735845D02*
X154358095Y-92831083D01*
X154358095Y-92831083D02*
X154453333Y-92926321D01*
X154453333Y-92926321D02*
X154596190Y-92973940D01*
X154596190Y-92973940D02*
X154691428Y-92973940D01*
X154691428Y-92973940D02*
X154834285Y-92926321D01*
X154834285Y-92926321D02*
X154881904Y-92878702D01*
X154881904Y-92878702D02*
X154881904Y-92545369D01*
X154881904Y-92545369D02*
X154691428Y-92545369D01*
X155310476Y-92973940D02*
X155310476Y-91973940D01*
X155310476Y-91973940D02*
X155881904Y-92973940D01*
X155881904Y-92973940D02*
X155881904Y-91973940D01*
X156358095Y-92973940D02*
X156358095Y-91973940D01*
X156358095Y-91973940D02*
X156596190Y-91973940D01*
X156596190Y-91973940D02*
X156739047Y-92021560D01*
X156739047Y-92021560D02*
X156834285Y-92116798D01*
X156834285Y-92116798D02*
X156881904Y-92212036D01*
X156881904Y-92212036D02*
X156929523Y-92402512D01*
X156929523Y-92402512D02*
X156929523Y-92545369D01*
X156929523Y-92545369D02*
X156881904Y-92735845D01*
X156881904Y-92735845D02*
X156834285Y-92831083D01*
X156834285Y-92831083D02*
X156739047Y-92926321D01*
X156739047Y-92926321D02*
X156596190Y-92973940D01*
X156596190Y-92973940D02*
X156358095Y-92973940D01*
X134426666Y-115723726D02*
X134426666Y-115023726D01*
X134426666Y-115023726D02*
X134593333Y-115023726D01*
X134593333Y-115023726D02*
X134693333Y-115057060D01*
X134693333Y-115057060D02*
X134760000Y-115123726D01*
X134760000Y-115123726D02*
X134793333Y-115190393D01*
X134793333Y-115190393D02*
X134826666Y-115323726D01*
X134826666Y-115323726D02*
X134826666Y-115423726D01*
X134826666Y-115423726D02*
X134793333Y-115557060D01*
X134793333Y-115557060D02*
X134760000Y-115623726D01*
X134760000Y-115623726D02*
X134693333Y-115690393D01*
X134693333Y-115690393D02*
X134593333Y-115723726D01*
X134593333Y-115723726D02*
X134426666Y-115723726D01*
X135093333Y-115090393D02*
X135126666Y-115057060D01*
X135126666Y-115057060D02*
X135193333Y-115023726D01*
X135193333Y-115023726D02*
X135360000Y-115023726D01*
X135360000Y-115023726D02*
X135426666Y-115057060D01*
X135426666Y-115057060D02*
X135460000Y-115090393D01*
X135460000Y-115090393D02*
X135493333Y-115157060D01*
X135493333Y-115157060D02*
X135493333Y-115223726D01*
X135493333Y-115223726D02*
X135460000Y-115323726D01*
X135460000Y-115323726D02*
X135060000Y-115723726D01*
X135060000Y-115723726D02*
X135493333Y-115723726D01*
X154520000Y-109977060D02*
X154453333Y-109943726D01*
X154453333Y-109943726D02*
X154353333Y-109943726D01*
X154353333Y-109943726D02*
X154253333Y-109977060D01*
X154253333Y-109977060D02*
X154186667Y-110043726D01*
X154186667Y-110043726D02*
X154153333Y-110110393D01*
X154153333Y-110110393D02*
X154120000Y-110243726D01*
X154120000Y-110243726D02*
X154120000Y-110343726D01*
X154120000Y-110343726D02*
X154153333Y-110477060D01*
X154153333Y-110477060D02*
X154186667Y-110543726D01*
X154186667Y-110543726D02*
X154253333Y-110610393D01*
X154253333Y-110610393D02*
X154353333Y-110643726D01*
X154353333Y-110643726D02*
X154420000Y-110643726D01*
X154420000Y-110643726D02*
X154520000Y-110610393D01*
X154520000Y-110610393D02*
X154553333Y-110577060D01*
X154553333Y-110577060D02*
X154553333Y-110343726D01*
X154553333Y-110343726D02*
X154420000Y-110343726D01*
X154853333Y-110643726D02*
X154853333Y-109943726D01*
X154853333Y-109943726D02*
X155120000Y-109943726D01*
X155120000Y-109943726D02*
X155186667Y-109977060D01*
X155186667Y-109977060D02*
X155220000Y-110010393D01*
X155220000Y-110010393D02*
X155253333Y-110077060D01*
X155253333Y-110077060D02*
X155253333Y-110177060D01*
X155253333Y-110177060D02*
X155220000Y-110243726D01*
X155220000Y-110243726D02*
X155186667Y-110277060D01*
X155186667Y-110277060D02*
X155120000Y-110310393D01*
X155120000Y-110310393D02*
X154853333Y-110310393D01*
X155553333Y-110643726D02*
X155553333Y-109943726D01*
X156020000Y-109943726D02*
X156153333Y-109943726D01*
X156153333Y-109943726D02*
X156220000Y-109977060D01*
X156220000Y-109977060D02*
X156286666Y-110043726D01*
X156286666Y-110043726D02*
X156320000Y-110177060D01*
X156320000Y-110177060D02*
X156320000Y-110410393D01*
X156320000Y-110410393D02*
X156286666Y-110543726D01*
X156286666Y-110543726D02*
X156220000Y-110610393D01*
X156220000Y-110610393D02*
X156153333Y-110643726D01*
X156153333Y-110643726D02*
X156020000Y-110643726D01*
X156020000Y-110643726D02*
X155953333Y-110610393D01*
X155953333Y-110610393D02*
X155886666Y-110543726D01*
X155886666Y-110543726D02*
X155853333Y-110410393D01*
X155853333Y-110410393D02*
X155853333Y-110177060D01*
X155853333Y-110177060D02*
X155886666Y-110043726D01*
X155886666Y-110043726D02*
X155953333Y-109977060D01*
X155953333Y-109977060D02*
X156020000Y-109943726D01*
X156753333Y-109943726D02*
X156819999Y-109943726D01*
X156819999Y-109943726D02*
X156886666Y-109977060D01*
X156886666Y-109977060D02*
X156919999Y-110010393D01*
X156919999Y-110010393D02*
X156953333Y-110077060D01*
X156953333Y-110077060D02*
X156986666Y-110210393D01*
X156986666Y-110210393D02*
X156986666Y-110377060D01*
X156986666Y-110377060D02*
X156953333Y-110510393D01*
X156953333Y-110510393D02*
X156919999Y-110577060D01*
X156919999Y-110577060D02*
X156886666Y-110610393D01*
X156886666Y-110610393D02*
X156819999Y-110643726D01*
X156819999Y-110643726D02*
X156753333Y-110643726D01*
X156753333Y-110643726D02*
X156686666Y-110610393D01*
X156686666Y-110610393D02*
X156653333Y-110577060D01*
X156653333Y-110577060D02*
X156619999Y-110510393D01*
X156619999Y-110510393D02*
X156586666Y-110377060D01*
X156586666Y-110377060D02*
X156586666Y-110210393D01*
X156586666Y-110210393D02*
X156619999Y-110077060D01*
X156619999Y-110077060D02*
X156653333Y-110010393D01*
X156653333Y-110010393D02*
X156686666Y-109977060D01*
X156686666Y-109977060D02*
X156753333Y-109943726D01*
X134793333Y-97277060D02*
X134726666Y-97243726D01*
X134726666Y-97243726D02*
X134626666Y-97243726D01*
X134626666Y-97243726D02*
X134526666Y-97277060D01*
X134526666Y-97277060D02*
X134460000Y-97343726D01*
X134460000Y-97343726D02*
X134426666Y-97410393D01*
X134426666Y-97410393D02*
X134393333Y-97543726D01*
X134393333Y-97543726D02*
X134393333Y-97643726D01*
X134393333Y-97643726D02*
X134426666Y-97777060D01*
X134426666Y-97777060D02*
X134460000Y-97843726D01*
X134460000Y-97843726D02*
X134526666Y-97910393D01*
X134526666Y-97910393D02*
X134626666Y-97943726D01*
X134626666Y-97943726D02*
X134693333Y-97943726D01*
X134693333Y-97943726D02*
X134793333Y-97910393D01*
X134793333Y-97910393D02*
X134826666Y-97877060D01*
X134826666Y-97877060D02*
X134826666Y-97643726D01*
X134826666Y-97643726D02*
X134693333Y-97643726D01*
X135126666Y-97943726D02*
X135126666Y-97243726D01*
X135126666Y-97243726D02*
X135393333Y-97243726D01*
X135393333Y-97243726D02*
X135460000Y-97277060D01*
X135460000Y-97277060D02*
X135493333Y-97310393D01*
X135493333Y-97310393D02*
X135526666Y-97377060D01*
X135526666Y-97377060D02*
X135526666Y-97477060D01*
X135526666Y-97477060D02*
X135493333Y-97543726D01*
X135493333Y-97543726D02*
X135460000Y-97577060D01*
X135460000Y-97577060D02*
X135393333Y-97610393D01*
X135393333Y-97610393D02*
X135126666Y-97610393D01*
X135826666Y-97943726D02*
X135826666Y-97243726D01*
X136293333Y-97243726D02*
X136426666Y-97243726D01*
X136426666Y-97243726D02*
X136493333Y-97277060D01*
X136493333Y-97277060D02*
X136559999Y-97343726D01*
X136559999Y-97343726D02*
X136593333Y-97477060D01*
X136593333Y-97477060D02*
X136593333Y-97710393D01*
X136593333Y-97710393D02*
X136559999Y-97843726D01*
X136559999Y-97843726D02*
X136493333Y-97910393D01*
X136493333Y-97910393D02*
X136426666Y-97943726D01*
X136426666Y-97943726D02*
X136293333Y-97943726D01*
X136293333Y-97943726D02*
X136226666Y-97910393D01*
X136226666Y-97910393D02*
X136159999Y-97843726D01*
X136159999Y-97843726D02*
X136126666Y-97710393D01*
X136126666Y-97710393D02*
X136126666Y-97477060D01*
X136126666Y-97477060D02*
X136159999Y-97343726D01*
X136159999Y-97343726D02*
X136226666Y-97277060D01*
X136226666Y-97277060D02*
X136293333Y-97243726D01*
X136859999Y-97310393D02*
X136893332Y-97277060D01*
X136893332Y-97277060D02*
X136959999Y-97243726D01*
X136959999Y-97243726D02*
X137126666Y-97243726D01*
X137126666Y-97243726D02*
X137193332Y-97277060D01*
X137193332Y-97277060D02*
X137226666Y-97310393D01*
X137226666Y-97310393D02*
X137259999Y-97377060D01*
X137259999Y-97377060D02*
X137259999Y-97443726D01*
X137259999Y-97443726D02*
X137226666Y-97543726D01*
X137226666Y-97543726D02*
X136826666Y-97943726D01*
X136826666Y-97943726D02*
X137259999Y-97943726D01*
X137893333Y-97243726D02*
X137559999Y-97243726D01*
X137559999Y-97243726D02*
X137526666Y-97577060D01*
X137526666Y-97577060D02*
X137559999Y-97543726D01*
X137559999Y-97543726D02*
X137626666Y-97510393D01*
X137626666Y-97510393D02*
X137793333Y-97510393D01*
X137793333Y-97510393D02*
X137859999Y-97543726D01*
X137859999Y-97543726D02*
X137893333Y-97577060D01*
X137893333Y-97577060D02*
X137926666Y-97643726D01*
X137926666Y-97643726D02*
X137926666Y-97810393D01*
X137926666Y-97810393D02*
X137893333Y-97877060D01*
X137893333Y-97877060D02*
X137859999Y-97910393D01*
X137859999Y-97910393D02*
X137793333Y-97943726D01*
X137793333Y-97943726D02*
X137626666Y-97943726D01*
X137626666Y-97943726D02*
X137559999Y-97910393D01*
X137559999Y-97910393D02*
X137526666Y-97877060D01*
X135021904Y-109801560D02*
X134926666Y-109753940D01*
X134926666Y-109753940D02*
X134783809Y-109753940D01*
X134783809Y-109753940D02*
X134640952Y-109801560D01*
X134640952Y-109801560D02*
X134545714Y-109896798D01*
X134545714Y-109896798D02*
X134498095Y-109992036D01*
X134498095Y-109992036D02*
X134450476Y-110182512D01*
X134450476Y-110182512D02*
X134450476Y-110325369D01*
X134450476Y-110325369D02*
X134498095Y-110515845D01*
X134498095Y-110515845D02*
X134545714Y-110611083D01*
X134545714Y-110611083D02*
X134640952Y-110706321D01*
X134640952Y-110706321D02*
X134783809Y-110753940D01*
X134783809Y-110753940D02*
X134879047Y-110753940D01*
X134879047Y-110753940D02*
X135021904Y-110706321D01*
X135021904Y-110706321D02*
X135069523Y-110658702D01*
X135069523Y-110658702D02*
X135069523Y-110325369D01*
X135069523Y-110325369D02*
X134879047Y-110325369D01*
X135498095Y-110753940D02*
X135498095Y-109753940D01*
X135498095Y-109753940D02*
X136069523Y-110753940D01*
X136069523Y-110753940D02*
X136069523Y-109753940D01*
X136545714Y-110753940D02*
X136545714Y-109753940D01*
X136545714Y-109753940D02*
X136783809Y-109753940D01*
X136783809Y-109753940D02*
X136926666Y-109801560D01*
X136926666Y-109801560D02*
X137021904Y-109896798D01*
X137021904Y-109896798D02*
X137069523Y-109992036D01*
X137069523Y-109992036D02*
X137117142Y-110182512D01*
X137117142Y-110182512D02*
X137117142Y-110325369D01*
X137117142Y-110325369D02*
X137069523Y-110515845D01*
X137069523Y-110515845D02*
X137021904Y-110611083D01*
X137021904Y-110611083D02*
X136926666Y-110706321D01*
X136926666Y-110706321D02*
X136783809Y-110753940D01*
X136783809Y-110753940D02*
X136545714Y-110753940D01*
X155919999Y-118263726D02*
X155919999Y-117563726D01*
X155919999Y-117563726D02*
X156086666Y-117563726D01*
X156086666Y-117563726D02*
X156186666Y-117597060D01*
X156186666Y-117597060D02*
X156253333Y-117663726D01*
X156253333Y-117663726D02*
X156286666Y-117730393D01*
X156286666Y-117730393D02*
X156319999Y-117863726D01*
X156319999Y-117863726D02*
X156319999Y-117963726D01*
X156319999Y-117963726D02*
X156286666Y-118097060D01*
X156286666Y-118097060D02*
X156253333Y-118163726D01*
X156253333Y-118163726D02*
X156186666Y-118230393D01*
X156186666Y-118230393D02*
X156086666Y-118263726D01*
X156086666Y-118263726D02*
X155919999Y-118263726D01*
X156986666Y-118263726D02*
X156586666Y-118263726D01*
X156786666Y-118263726D02*
X156786666Y-117563726D01*
X156786666Y-117563726D02*
X156719999Y-117663726D01*
X156719999Y-117663726D02*
X156653333Y-117730393D01*
X156653333Y-117730393D02*
X156586666Y-117763726D01*
X155919999Y-120803726D02*
X155919999Y-120103726D01*
X155919999Y-120103726D02*
X156086666Y-120103726D01*
X156086666Y-120103726D02*
X156186666Y-120137060D01*
X156186666Y-120137060D02*
X156253333Y-120203726D01*
X156253333Y-120203726D02*
X156286666Y-120270393D01*
X156286666Y-120270393D02*
X156319999Y-120403726D01*
X156319999Y-120403726D02*
X156319999Y-120503726D01*
X156319999Y-120503726D02*
X156286666Y-120637060D01*
X156286666Y-120637060D02*
X156253333Y-120703726D01*
X156253333Y-120703726D02*
X156186666Y-120770393D01*
X156186666Y-120770393D02*
X156086666Y-120803726D01*
X156086666Y-120803726D02*
X155919999Y-120803726D01*
X156753333Y-120103726D02*
X156819999Y-120103726D01*
X156819999Y-120103726D02*
X156886666Y-120137060D01*
X156886666Y-120137060D02*
X156919999Y-120170393D01*
X156919999Y-120170393D02*
X156953333Y-120237060D01*
X156953333Y-120237060D02*
X156986666Y-120370393D01*
X156986666Y-120370393D02*
X156986666Y-120537060D01*
X156986666Y-120537060D02*
X156953333Y-120670393D01*
X156953333Y-120670393D02*
X156919999Y-120737060D01*
X156919999Y-120737060D02*
X156886666Y-120770393D01*
X156886666Y-120770393D02*
X156819999Y-120803726D01*
X156819999Y-120803726D02*
X156753333Y-120803726D01*
X156753333Y-120803726D02*
X156686666Y-120770393D01*
X156686666Y-120770393D02*
X156653333Y-120737060D01*
X156653333Y-120737060D02*
X156619999Y-120670393D01*
X156619999Y-120670393D02*
X156586666Y-120537060D01*
X156586666Y-120537060D02*
X156586666Y-120370393D01*
X156586666Y-120370393D02*
X156619999Y-120237060D01*
X156619999Y-120237060D02*
X156653333Y-120170393D01*
X156653333Y-120170393D02*
X156686666Y-120137060D01*
X156686666Y-120137060D02*
X156753333Y-120103726D01*
X150320000Y-87117060D02*
X150253333Y-87083726D01*
X150253333Y-87083726D02*
X150153333Y-87083726D01*
X150153333Y-87083726D02*
X150053333Y-87117060D01*
X150053333Y-87117060D02*
X149986667Y-87183726D01*
X149986667Y-87183726D02*
X149953333Y-87250393D01*
X149953333Y-87250393D02*
X149920000Y-87383726D01*
X149920000Y-87383726D02*
X149920000Y-87483726D01*
X149920000Y-87483726D02*
X149953333Y-87617060D01*
X149953333Y-87617060D02*
X149986667Y-87683726D01*
X149986667Y-87683726D02*
X150053333Y-87750393D01*
X150053333Y-87750393D02*
X150153333Y-87783726D01*
X150153333Y-87783726D02*
X150220000Y-87783726D01*
X150220000Y-87783726D02*
X150320000Y-87750393D01*
X150320000Y-87750393D02*
X150353333Y-87717060D01*
X150353333Y-87717060D02*
X150353333Y-87483726D01*
X150353333Y-87483726D02*
X150220000Y-87483726D01*
X150653333Y-87783726D02*
X150653333Y-87083726D01*
X150653333Y-87083726D02*
X150920000Y-87083726D01*
X150920000Y-87083726D02*
X150986667Y-87117060D01*
X150986667Y-87117060D02*
X151020000Y-87150393D01*
X151020000Y-87150393D02*
X151053333Y-87217060D01*
X151053333Y-87217060D02*
X151053333Y-87317060D01*
X151053333Y-87317060D02*
X151020000Y-87383726D01*
X151020000Y-87383726D02*
X150986667Y-87417060D01*
X150986667Y-87417060D02*
X150920000Y-87450393D01*
X150920000Y-87450393D02*
X150653333Y-87450393D01*
X151353333Y-87783726D02*
X151353333Y-87083726D01*
X151820000Y-87083726D02*
X151953333Y-87083726D01*
X151953333Y-87083726D02*
X152020000Y-87117060D01*
X152020000Y-87117060D02*
X152086666Y-87183726D01*
X152086666Y-87183726D02*
X152120000Y-87317060D01*
X152120000Y-87317060D02*
X152120000Y-87550393D01*
X152120000Y-87550393D02*
X152086666Y-87683726D01*
X152086666Y-87683726D02*
X152020000Y-87750393D01*
X152020000Y-87750393D02*
X151953333Y-87783726D01*
X151953333Y-87783726D02*
X151820000Y-87783726D01*
X151820000Y-87783726D02*
X151753333Y-87750393D01*
X151753333Y-87750393D02*
X151686666Y-87683726D01*
X151686666Y-87683726D02*
X151653333Y-87550393D01*
X151653333Y-87550393D02*
X151653333Y-87317060D01*
X151653333Y-87317060D02*
X151686666Y-87183726D01*
X151686666Y-87183726D02*
X151753333Y-87117060D01*
X151753333Y-87117060D02*
X151820000Y-87083726D01*
X152353333Y-87083726D02*
X152786666Y-87083726D01*
X152786666Y-87083726D02*
X152553333Y-87350393D01*
X152553333Y-87350393D02*
X152653333Y-87350393D01*
X152653333Y-87350393D02*
X152719999Y-87383726D01*
X152719999Y-87383726D02*
X152753333Y-87417060D01*
X152753333Y-87417060D02*
X152786666Y-87483726D01*
X152786666Y-87483726D02*
X152786666Y-87650393D01*
X152786666Y-87650393D02*
X152753333Y-87717060D01*
X152753333Y-87717060D02*
X152719999Y-87750393D01*
X152719999Y-87750393D02*
X152653333Y-87783726D01*
X152653333Y-87783726D02*
X152453333Y-87783726D01*
X152453333Y-87783726D02*
X152386666Y-87750393D01*
X152386666Y-87750393D02*
X152353333Y-87717060D01*
X153586666Y-87050393D02*
X152986666Y-87950393D01*
X153819999Y-87083726D02*
X153819999Y-87650393D01*
X153819999Y-87650393D02*
X153853333Y-87717060D01*
X153853333Y-87717060D02*
X153886666Y-87750393D01*
X153886666Y-87750393D02*
X153953333Y-87783726D01*
X153953333Y-87783726D02*
X154086666Y-87783726D01*
X154086666Y-87783726D02*
X154153333Y-87750393D01*
X154153333Y-87750393D02*
X154186666Y-87717060D01*
X154186666Y-87717060D02*
X154219999Y-87650393D01*
X154219999Y-87650393D02*
X154219999Y-87083726D01*
X154686666Y-87083726D02*
X154753332Y-87083726D01*
X154753332Y-87083726D02*
X154819999Y-87117060D01*
X154819999Y-87117060D02*
X154853332Y-87150393D01*
X154853332Y-87150393D02*
X154886666Y-87217060D01*
X154886666Y-87217060D02*
X154919999Y-87350393D01*
X154919999Y-87350393D02*
X154919999Y-87517060D01*
X154919999Y-87517060D02*
X154886666Y-87650393D01*
X154886666Y-87650393D02*
X154853332Y-87717060D01*
X154853332Y-87717060D02*
X154819999Y-87750393D01*
X154819999Y-87750393D02*
X154753332Y-87783726D01*
X154753332Y-87783726D02*
X154686666Y-87783726D01*
X154686666Y-87783726D02*
X154619999Y-87750393D01*
X154619999Y-87750393D02*
X154586666Y-87717060D01*
X154586666Y-87717060D02*
X154553332Y-87650393D01*
X154553332Y-87650393D02*
X154519999Y-87517060D01*
X154519999Y-87517060D02*
X154519999Y-87350393D01*
X154519999Y-87350393D02*
X154553332Y-87217060D01*
X154553332Y-87217060D02*
X154586666Y-87150393D01*
X154586666Y-87150393D02*
X154619999Y-87117060D01*
X154619999Y-87117060D02*
X154686666Y-87083726D01*
X155619999Y-87783726D02*
X155386666Y-87450393D01*
X155219999Y-87783726D02*
X155219999Y-87083726D01*
X155219999Y-87083726D02*
X155486666Y-87083726D01*
X155486666Y-87083726D02*
X155553333Y-87117060D01*
X155553333Y-87117060D02*
X155586666Y-87150393D01*
X155586666Y-87150393D02*
X155619999Y-87217060D01*
X155619999Y-87217060D02*
X155619999Y-87317060D01*
X155619999Y-87317060D02*
X155586666Y-87383726D01*
X155586666Y-87383726D02*
X155553333Y-87417060D01*
X155553333Y-87417060D02*
X155486666Y-87450393D01*
X155486666Y-87450393D02*
X155219999Y-87450393D01*
X155853333Y-87083726D02*
X156319999Y-87783726D01*
X156319999Y-87083726D02*
X155853333Y-87783726D01*
X156586666Y-87783726D02*
X156586666Y-87083726D01*
X156586666Y-87083726D02*
X156753333Y-87083726D01*
X156753333Y-87083726D02*
X156853333Y-87117060D01*
X156853333Y-87117060D02*
X156920000Y-87183726D01*
X156920000Y-87183726D02*
X156953333Y-87250393D01*
X156953333Y-87250393D02*
X156986666Y-87383726D01*
X156986666Y-87383726D02*
X156986666Y-87483726D01*
X156986666Y-87483726D02*
X156953333Y-87617060D01*
X156953333Y-87617060D02*
X156920000Y-87683726D01*
X156920000Y-87683726D02*
X156853333Y-87750393D01*
X156853333Y-87750393D02*
X156753333Y-87783726D01*
X156753333Y-87783726D02*
X156586666Y-87783726D01*
X153853333Y-89657060D02*
X153786666Y-89623726D01*
X153786666Y-89623726D02*
X153686666Y-89623726D01*
X153686666Y-89623726D02*
X153586666Y-89657060D01*
X153586666Y-89657060D02*
X153520000Y-89723726D01*
X153520000Y-89723726D02*
X153486666Y-89790393D01*
X153486666Y-89790393D02*
X153453333Y-89923726D01*
X153453333Y-89923726D02*
X153453333Y-90023726D01*
X153453333Y-90023726D02*
X153486666Y-90157060D01*
X153486666Y-90157060D02*
X153520000Y-90223726D01*
X153520000Y-90223726D02*
X153586666Y-90290393D01*
X153586666Y-90290393D02*
X153686666Y-90323726D01*
X153686666Y-90323726D02*
X153753333Y-90323726D01*
X153753333Y-90323726D02*
X153853333Y-90290393D01*
X153853333Y-90290393D02*
X153886666Y-90257060D01*
X153886666Y-90257060D02*
X153886666Y-90023726D01*
X153886666Y-90023726D02*
X153753333Y-90023726D01*
X154186666Y-90323726D02*
X154186666Y-89623726D01*
X154186666Y-89623726D02*
X154453333Y-89623726D01*
X154453333Y-89623726D02*
X154520000Y-89657060D01*
X154520000Y-89657060D02*
X154553333Y-89690393D01*
X154553333Y-89690393D02*
X154586666Y-89757060D01*
X154586666Y-89757060D02*
X154586666Y-89857060D01*
X154586666Y-89857060D02*
X154553333Y-89923726D01*
X154553333Y-89923726D02*
X154520000Y-89957060D01*
X154520000Y-89957060D02*
X154453333Y-89990393D01*
X154453333Y-89990393D02*
X154186666Y-89990393D01*
X154886666Y-90323726D02*
X154886666Y-89623726D01*
X155353333Y-89623726D02*
X155486666Y-89623726D01*
X155486666Y-89623726D02*
X155553333Y-89657060D01*
X155553333Y-89657060D02*
X155619999Y-89723726D01*
X155619999Y-89723726D02*
X155653333Y-89857060D01*
X155653333Y-89857060D02*
X155653333Y-90090393D01*
X155653333Y-90090393D02*
X155619999Y-90223726D01*
X155619999Y-90223726D02*
X155553333Y-90290393D01*
X155553333Y-90290393D02*
X155486666Y-90323726D01*
X155486666Y-90323726D02*
X155353333Y-90323726D01*
X155353333Y-90323726D02*
X155286666Y-90290393D01*
X155286666Y-90290393D02*
X155219999Y-90223726D01*
X155219999Y-90223726D02*
X155186666Y-90090393D01*
X155186666Y-90090393D02*
X155186666Y-89857060D01*
X155186666Y-89857060D02*
X155219999Y-89723726D01*
X155219999Y-89723726D02*
X155286666Y-89657060D01*
X155286666Y-89657060D02*
X155353333Y-89623726D01*
X155919999Y-89690393D02*
X155953332Y-89657060D01*
X155953332Y-89657060D02*
X156019999Y-89623726D01*
X156019999Y-89623726D02*
X156186666Y-89623726D01*
X156186666Y-89623726D02*
X156253332Y-89657060D01*
X156253332Y-89657060D02*
X156286666Y-89690393D01*
X156286666Y-89690393D02*
X156319999Y-89757060D01*
X156319999Y-89757060D02*
X156319999Y-89823726D01*
X156319999Y-89823726D02*
X156286666Y-89923726D01*
X156286666Y-89923726D02*
X155886666Y-90323726D01*
X155886666Y-90323726D02*
X156319999Y-90323726D01*
X156986666Y-90323726D02*
X156586666Y-90323726D01*
X156786666Y-90323726D02*
X156786666Y-89623726D01*
X156786666Y-89623726D02*
X156719999Y-89723726D01*
X156719999Y-89723726D02*
X156653333Y-89790393D01*
X156653333Y-89790393D02*
X156586666Y-89823726D01*
X134793333Y-102357060D02*
X134726666Y-102323726D01*
X134726666Y-102323726D02*
X134626666Y-102323726D01*
X134626666Y-102323726D02*
X134526666Y-102357060D01*
X134526666Y-102357060D02*
X134460000Y-102423726D01*
X134460000Y-102423726D02*
X134426666Y-102490393D01*
X134426666Y-102490393D02*
X134393333Y-102623726D01*
X134393333Y-102623726D02*
X134393333Y-102723726D01*
X134393333Y-102723726D02*
X134426666Y-102857060D01*
X134426666Y-102857060D02*
X134460000Y-102923726D01*
X134460000Y-102923726D02*
X134526666Y-102990393D01*
X134526666Y-102990393D02*
X134626666Y-103023726D01*
X134626666Y-103023726D02*
X134693333Y-103023726D01*
X134693333Y-103023726D02*
X134793333Y-102990393D01*
X134793333Y-102990393D02*
X134826666Y-102957060D01*
X134826666Y-102957060D02*
X134826666Y-102723726D01*
X134826666Y-102723726D02*
X134693333Y-102723726D01*
X135126666Y-103023726D02*
X135126666Y-102323726D01*
X135126666Y-102323726D02*
X135393333Y-102323726D01*
X135393333Y-102323726D02*
X135460000Y-102357060D01*
X135460000Y-102357060D02*
X135493333Y-102390393D01*
X135493333Y-102390393D02*
X135526666Y-102457060D01*
X135526666Y-102457060D02*
X135526666Y-102557060D01*
X135526666Y-102557060D02*
X135493333Y-102623726D01*
X135493333Y-102623726D02*
X135460000Y-102657060D01*
X135460000Y-102657060D02*
X135393333Y-102690393D01*
X135393333Y-102690393D02*
X135126666Y-102690393D01*
X135826666Y-103023726D02*
X135826666Y-102323726D01*
X136293333Y-102323726D02*
X136426666Y-102323726D01*
X136426666Y-102323726D02*
X136493333Y-102357060D01*
X136493333Y-102357060D02*
X136559999Y-102423726D01*
X136559999Y-102423726D02*
X136593333Y-102557060D01*
X136593333Y-102557060D02*
X136593333Y-102790393D01*
X136593333Y-102790393D02*
X136559999Y-102923726D01*
X136559999Y-102923726D02*
X136493333Y-102990393D01*
X136493333Y-102990393D02*
X136426666Y-103023726D01*
X136426666Y-103023726D02*
X136293333Y-103023726D01*
X136293333Y-103023726D02*
X136226666Y-102990393D01*
X136226666Y-102990393D02*
X136159999Y-102923726D01*
X136159999Y-102923726D02*
X136126666Y-102790393D01*
X136126666Y-102790393D02*
X136126666Y-102557060D01*
X136126666Y-102557060D02*
X136159999Y-102423726D01*
X136159999Y-102423726D02*
X136226666Y-102357060D01*
X136226666Y-102357060D02*
X136293333Y-102323726D01*
X136859999Y-102390393D02*
X136893332Y-102357060D01*
X136893332Y-102357060D02*
X136959999Y-102323726D01*
X136959999Y-102323726D02*
X137126666Y-102323726D01*
X137126666Y-102323726D02*
X137193332Y-102357060D01*
X137193332Y-102357060D02*
X137226666Y-102390393D01*
X137226666Y-102390393D02*
X137259999Y-102457060D01*
X137259999Y-102457060D02*
X137259999Y-102523726D01*
X137259999Y-102523726D02*
X137226666Y-102623726D01*
X137226666Y-102623726D02*
X136826666Y-103023726D01*
X136826666Y-103023726D02*
X137259999Y-103023726D01*
X137493333Y-102323726D02*
X137959999Y-102323726D01*
X137959999Y-102323726D02*
X137659999Y-103023726D01*
X134402857Y-76733940D02*
X135021904Y-76733940D01*
X135021904Y-76733940D02*
X134688571Y-77114893D01*
X134688571Y-77114893D02*
X134831428Y-77114893D01*
X134831428Y-77114893D02*
X134926666Y-77162512D01*
X134926666Y-77162512D02*
X134974285Y-77210131D01*
X134974285Y-77210131D02*
X135021904Y-77305369D01*
X135021904Y-77305369D02*
X135021904Y-77543464D01*
X135021904Y-77543464D02*
X134974285Y-77638702D01*
X134974285Y-77638702D02*
X134926666Y-77686321D01*
X134926666Y-77686321D02*
X134831428Y-77733940D01*
X134831428Y-77733940D02*
X134545714Y-77733940D01*
X134545714Y-77733940D02*
X134450476Y-77686321D01*
X134450476Y-77686321D02*
X134402857Y-77638702D01*
X135307619Y-76733940D02*
X135640952Y-77733940D01*
X135640952Y-77733940D02*
X135974285Y-76733940D01*
X136212381Y-76733940D02*
X136831428Y-76733940D01*
X136831428Y-76733940D02*
X136498095Y-77114893D01*
X136498095Y-77114893D02*
X136640952Y-77114893D01*
X136640952Y-77114893D02*
X136736190Y-77162512D01*
X136736190Y-77162512D02*
X136783809Y-77210131D01*
X136783809Y-77210131D02*
X136831428Y-77305369D01*
X136831428Y-77305369D02*
X136831428Y-77543464D01*
X136831428Y-77543464D02*
X136783809Y-77638702D01*
X136783809Y-77638702D02*
X136736190Y-77686321D01*
X136736190Y-77686321D02*
X136640952Y-77733940D01*
X136640952Y-77733940D02*
X136355238Y-77733940D01*
X136355238Y-77733940D02*
X136260000Y-77686321D01*
X136260000Y-77686321D02*
X136212381Y-77638702D01*
X134826666Y-120737060D02*
X134793333Y-120770393D01*
X134793333Y-120770393D02*
X134693333Y-120803726D01*
X134693333Y-120803726D02*
X134626666Y-120803726D01*
X134626666Y-120803726D02*
X134526666Y-120770393D01*
X134526666Y-120770393D02*
X134460000Y-120703726D01*
X134460000Y-120703726D02*
X134426666Y-120637060D01*
X134426666Y-120637060D02*
X134393333Y-120503726D01*
X134393333Y-120503726D02*
X134393333Y-120403726D01*
X134393333Y-120403726D02*
X134426666Y-120270393D01*
X134426666Y-120270393D02*
X134460000Y-120203726D01*
X134460000Y-120203726D02*
X134526666Y-120137060D01*
X134526666Y-120137060D02*
X134626666Y-120103726D01*
X134626666Y-120103726D02*
X134693333Y-120103726D01*
X134693333Y-120103726D02*
X134793333Y-120137060D01*
X134793333Y-120137060D02*
X134826666Y-120170393D01*
X135126666Y-120803726D02*
X135126666Y-120103726D01*
X135126666Y-120103726D02*
X135360000Y-120603726D01*
X135360000Y-120603726D02*
X135593333Y-120103726D01*
X135593333Y-120103726D02*
X135593333Y-120803726D01*
X135926666Y-120803726D02*
X135926666Y-120103726D01*
X135926666Y-120103726D02*
X136093333Y-120103726D01*
X136093333Y-120103726D02*
X136193333Y-120137060D01*
X136193333Y-120137060D02*
X136260000Y-120203726D01*
X136260000Y-120203726D02*
X136293333Y-120270393D01*
X136293333Y-120270393D02*
X136326666Y-120403726D01*
X136326666Y-120403726D02*
X136326666Y-120503726D01*
X136326666Y-120503726D02*
X136293333Y-120637060D01*
X136293333Y-120637060D02*
X136260000Y-120703726D01*
X136260000Y-120703726D02*
X136193333Y-120770393D01*
X136193333Y-120770393D02*
X136093333Y-120803726D01*
X136093333Y-120803726D02*
X135926666Y-120803726D01*
X134326666Y-82003726D02*
X134560000Y-82703726D01*
X134560000Y-82703726D02*
X134793333Y-82003726D01*
X135026666Y-82703726D02*
X135026666Y-82003726D01*
X135026666Y-82003726D02*
X135293333Y-82003726D01*
X135293333Y-82003726D02*
X135360000Y-82037060D01*
X135360000Y-82037060D02*
X135393333Y-82070393D01*
X135393333Y-82070393D02*
X135426666Y-82137060D01*
X135426666Y-82137060D02*
X135426666Y-82237060D01*
X135426666Y-82237060D02*
X135393333Y-82303726D01*
X135393333Y-82303726D02*
X135360000Y-82337060D01*
X135360000Y-82337060D02*
X135293333Y-82370393D01*
X135293333Y-82370393D02*
X135026666Y-82370393D01*
X136226666Y-81970393D02*
X135626666Y-82870393D01*
X136826666Y-82037060D02*
X136759999Y-82003726D01*
X136759999Y-82003726D02*
X136659999Y-82003726D01*
X136659999Y-82003726D02*
X136559999Y-82037060D01*
X136559999Y-82037060D02*
X136493333Y-82103726D01*
X136493333Y-82103726D02*
X136459999Y-82170393D01*
X136459999Y-82170393D02*
X136426666Y-82303726D01*
X136426666Y-82303726D02*
X136426666Y-82403726D01*
X136426666Y-82403726D02*
X136459999Y-82537060D01*
X136459999Y-82537060D02*
X136493333Y-82603726D01*
X136493333Y-82603726D02*
X136559999Y-82670393D01*
X136559999Y-82670393D02*
X136659999Y-82703726D01*
X136659999Y-82703726D02*
X136726666Y-82703726D01*
X136726666Y-82703726D02*
X136826666Y-82670393D01*
X136826666Y-82670393D02*
X136859999Y-82637060D01*
X136859999Y-82637060D02*
X136859999Y-82403726D01*
X136859999Y-82403726D02*
X136726666Y-82403726D01*
X137159999Y-82703726D02*
X137159999Y-82003726D01*
X137159999Y-82003726D02*
X137426666Y-82003726D01*
X137426666Y-82003726D02*
X137493333Y-82037060D01*
X137493333Y-82037060D02*
X137526666Y-82070393D01*
X137526666Y-82070393D02*
X137559999Y-82137060D01*
X137559999Y-82137060D02*
X137559999Y-82237060D01*
X137559999Y-82237060D02*
X137526666Y-82303726D01*
X137526666Y-82303726D02*
X137493333Y-82337060D01*
X137493333Y-82337060D02*
X137426666Y-82370393D01*
X137426666Y-82370393D02*
X137159999Y-82370393D01*
X137859999Y-82703726D02*
X137859999Y-82003726D01*
X138326666Y-82003726D02*
X138459999Y-82003726D01*
X138459999Y-82003726D02*
X138526666Y-82037060D01*
X138526666Y-82037060D02*
X138593332Y-82103726D01*
X138593332Y-82103726D02*
X138626666Y-82237060D01*
X138626666Y-82237060D02*
X138626666Y-82470393D01*
X138626666Y-82470393D02*
X138593332Y-82603726D01*
X138593332Y-82603726D02*
X138526666Y-82670393D01*
X138526666Y-82670393D02*
X138459999Y-82703726D01*
X138459999Y-82703726D02*
X138326666Y-82703726D01*
X138326666Y-82703726D02*
X138259999Y-82670393D01*
X138259999Y-82670393D02*
X138193332Y-82603726D01*
X138193332Y-82603726D02*
X138159999Y-82470393D01*
X138159999Y-82470393D02*
X138159999Y-82237060D01*
X138159999Y-82237060D02*
X138193332Y-82103726D01*
X138193332Y-82103726D02*
X138259999Y-82037060D01*
X138259999Y-82037060D02*
X138326666Y-82003726D01*
X138859999Y-82003726D02*
X139293332Y-82003726D01*
X139293332Y-82003726D02*
X139059999Y-82270393D01*
X139059999Y-82270393D02*
X139159999Y-82270393D01*
X139159999Y-82270393D02*
X139226665Y-82303726D01*
X139226665Y-82303726D02*
X139259999Y-82337060D01*
X139259999Y-82337060D02*
X139293332Y-82403726D01*
X139293332Y-82403726D02*
X139293332Y-82570393D01*
X139293332Y-82570393D02*
X139259999Y-82637060D01*
X139259999Y-82637060D02*
X139226665Y-82670393D01*
X139226665Y-82670393D02*
X139159999Y-82703726D01*
X139159999Y-82703726D02*
X138959999Y-82703726D01*
X138959999Y-82703726D02*
X138893332Y-82670393D01*
X138893332Y-82670393D02*
X138859999Y-82637060D01*
X139893332Y-82003726D02*
X139759999Y-82003726D01*
X139759999Y-82003726D02*
X139693332Y-82037060D01*
X139693332Y-82037060D02*
X139659999Y-82070393D01*
X139659999Y-82070393D02*
X139593332Y-82170393D01*
X139593332Y-82170393D02*
X139559999Y-82303726D01*
X139559999Y-82303726D02*
X139559999Y-82570393D01*
X139559999Y-82570393D02*
X139593332Y-82637060D01*
X139593332Y-82637060D02*
X139626666Y-82670393D01*
X139626666Y-82670393D02*
X139693332Y-82703726D01*
X139693332Y-82703726D02*
X139826666Y-82703726D01*
X139826666Y-82703726D02*
X139893332Y-82670393D01*
X139893332Y-82670393D02*
X139926666Y-82637060D01*
X139926666Y-82637060D02*
X139959999Y-82570393D01*
X139959999Y-82570393D02*
X139959999Y-82403726D01*
X139959999Y-82403726D02*
X139926666Y-82337060D01*
X139926666Y-82337060D02*
X139893332Y-82303726D01*
X139893332Y-82303726D02*
X139826666Y-82270393D01*
X139826666Y-82270393D02*
X139693332Y-82270393D01*
X139693332Y-82270393D02*
X139626666Y-82303726D01*
X139626666Y-82303726D02*
X139593332Y-82337060D01*
X139593332Y-82337060D02*
X139559999Y-82403726D01*
X134793333Y-107437060D02*
X134726666Y-107403726D01*
X134726666Y-107403726D02*
X134626666Y-107403726D01*
X134626666Y-107403726D02*
X134526666Y-107437060D01*
X134526666Y-107437060D02*
X134460000Y-107503726D01*
X134460000Y-107503726D02*
X134426666Y-107570393D01*
X134426666Y-107570393D02*
X134393333Y-107703726D01*
X134393333Y-107703726D02*
X134393333Y-107803726D01*
X134393333Y-107803726D02*
X134426666Y-107937060D01*
X134426666Y-107937060D02*
X134460000Y-108003726D01*
X134460000Y-108003726D02*
X134526666Y-108070393D01*
X134526666Y-108070393D02*
X134626666Y-108103726D01*
X134626666Y-108103726D02*
X134693333Y-108103726D01*
X134693333Y-108103726D02*
X134793333Y-108070393D01*
X134793333Y-108070393D02*
X134826666Y-108037060D01*
X134826666Y-108037060D02*
X134826666Y-107803726D01*
X134826666Y-107803726D02*
X134693333Y-107803726D01*
X135126666Y-108103726D02*
X135126666Y-107403726D01*
X135126666Y-107403726D02*
X135393333Y-107403726D01*
X135393333Y-107403726D02*
X135460000Y-107437060D01*
X135460000Y-107437060D02*
X135493333Y-107470393D01*
X135493333Y-107470393D02*
X135526666Y-107537060D01*
X135526666Y-107537060D02*
X135526666Y-107637060D01*
X135526666Y-107637060D02*
X135493333Y-107703726D01*
X135493333Y-107703726D02*
X135460000Y-107737060D01*
X135460000Y-107737060D02*
X135393333Y-107770393D01*
X135393333Y-107770393D02*
X135126666Y-107770393D01*
X135826666Y-108103726D02*
X135826666Y-107403726D01*
X136293333Y-107403726D02*
X136426666Y-107403726D01*
X136426666Y-107403726D02*
X136493333Y-107437060D01*
X136493333Y-107437060D02*
X136559999Y-107503726D01*
X136559999Y-107503726D02*
X136593333Y-107637060D01*
X136593333Y-107637060D02*
X136593333Y-107870393D01*
X136593333Y-107870393D02*
X136559999Y-108003726D01*
X136559999Y-108003726D02*
X136493333Y-108070393D01*
X136493333Y-108070393D02*
X136426666Y-108103726D01*
X136426666Y-108103726D02*
X136293333Y-108103726D01*
X136293333Y-108103726D02*
X136226666Y-108070393D01*
X136226666Y-108070393D02*
X136159999Y-108003726D01*
X136159999Y-108003726D02*
X136126666Y-107870393D01*
X136126666Y-107870393D02*
X136126666Y-107637060D01*
X136126666Y-107637060D02*
X136159999Y-107503726D01*
X136159999Y-107503726D02*
X136226666Y-107437060D01*
X136226666Y-107437060D02*
X136293333Y-107403726D01*
X137259999Y-108103726D02*
X136859999Y-108103726D01*
X137059999Y-108103726D02*
X137059999Y-107403726D01*
X137059999Y-107403726D02*
X136993332Y-107503726D01*
X136993332Y-107503726D02*
X136926666Y-107570393D01*
X136926666Y-107570393D02*
X136859999Y-107603726D01*
X137526666Y-107470393D02*
X137559999Y-107437060D01*
X137559999Y-107437060D02*
X137626666Y-107403726D01*
X137626666Y-107403726D02*
X137793333Y-107403726D01*
X137793333Y-107403726D02*
X137859999Y-107437060D01*
X137859999Y-107437060D02*
X137893333Y-107470393D01*
X137893333Y-107470393D02*
X137926666Y-107537060D01*
X137926666Y-107537060D02*
X137926666Y-107603726D01*
X137926666Y-107603726D02*
X137893333Y-107703726D01*
X137893333Y-107703726D02*
X137493333Y-108103726D01*
X137493333Y-108103726D02*
X137926666Y-108103726D01*
X138726666Y-107370393D02*
X138126666Y-108270393D01*
X138959999Y-108103726D02*
X138959999Y-107403726D01*
X138959999Y-107403726D02*
X139193333Y-107903726D01*
X139193333Y-107903726D02*
X139426666Y-107403726D01*
X139426666Y-107403726D02*
X139426666Y-108103726D01*
X139659999Y-107403726D02*
X140059999Y-107403726D01*
X139859999Y-108103726D02*
X139859999Y-107403726D01*
X140293332Y-108103726D02*
X140293332Y-107403726D01*
X140293332Y-107403726D02*
X140459999Y-107403726D01*
X140459999Y-107403726D02*
X140559999Y-107437060D01*
X140559999Y-107437060D02*
X140626666Y-107503726D01*
X140626666Y-107503726D02*
X140659999Y-107570393D01*
X140659999Y-107570393D02*
X140693332Y-107703726D01*
X140693332Y-107703726D02*
X140693332Y-107803726D01*
X140693332Y-107803726D02*
X140659999Y-107937060D01*
X140659999Y-107937060D02*
X140626666Y-108003726D01*
X140626666Y-108003726D02*
X140559999Y-108070393D01*
X140559999Y-108070393D02*
X140459999Y-108103726D01*
X140459999Y-108103726D02*
X140293332Y-108103726D01*
X140993332Y-108103726D02*
X140993332Y-107403726D01*
X150486667Y-84577060D02*
X150420000Y-84543726D01*
X150420000Y-84543726D02*
X150320000Y-84543726D01*
X150320000Y-84543726D02*
X150220000Y-84577060D01*
X150220000Y-84577060D02*
X150153334Y-84643726D01*
X150153334Y-84643726D02*
X150120000Y-84710393D01*
X150120000Y-84710393D02*
X150086667Y-84843726D01*
X150086667Y-84843726D02*
X150086667Y-84943726D01*
X150086667Y-84943726D02*
X150120000Y-85077060D01*
X150120000Y-85077060D02*
X150153334Y-85143726D01*
X150153334Y-85143726D02*
X150220000Y-85210393D01*
X150220000Y-85210393D02*
X150320000Y-85243726D01*
X150320000Y-85243726D02*
X150386667Y-85243726D01*
X150386667Y-85243726D02*
X150486667Y-85210393D01*
X150486667Y-85210393D02*
X150520000Y-85177060D01*
X150520000Y-85177060D02*
X150520000Y-84943726D01*
X150520000Y-84943726D02*
X150386667Y-84943726D01*
X150820000Y-85243726D02*
X150820000Y-84543726D01*
X150820000Y-84543726D02*
X151086667Y-84543726D01*
X151086667Y-84543726D02*
X151153334Y-84577060D01*
X151153334Y-84577060D02*
X151186667Y-84610393D01*
X151186667Y-84610393D02*
X151220000Y-84677060D01*
X151220000Y-84677060D02*
X151220000Y-84777060D01*
X151220000Y-84777060D02*
X151186667Y-84843726D01*
X151186667Y-84843726D02*
X151153334Y-84877060D01*
X151153334Y-84877060D02*
X151086667Y-84910393D01*
X151086667Y-84910393D02*
X150820000Y-84910393D01*
X151520000Y-85243726D02*
X151520000Y-84543726D01*
X151986667Y-84543726D02*
X152120000Y-84543726D01*
X152120000Y-84543726D02*
X152186667Y-84577060D01*
X152186667Y-84577060D02*
X152253333Y-84643726D01*
X152253333Y-84643726D02*
X152286667Y-84777060D01*
X152286667Y-84777060D02*
X152286667Y-85010393D01*
X152286667Y-85010393D02*
X152253333Y-85143726D01*
X152253333Y-85143726D02*
X152186667Y-85210393D01*
X152186667Y-85210393D02*
X152120000Y-85243726D01*
X152120000Y-85243726D02*
X151986667Y-85243726D01*
X151986667Y-85243726D02*
X151920000Y-85210393D01*
X151920000Y-85210393D02*
X151853333Y-85143726D01*
X151853333Y-85143726D02*
X151820000Y-85010393D01*
X151820000Y-85010393D02*
X151820000Y-84777060D01*
X151820000Y-84777060D02*
X151853333Y-84643726D01*
X151853333Y-84643726D02*
X151920000Y-84577060D01*
X151920000Y-84577060D02*
X151986667Y-84543726D01*
X152953333Y-85243726D02*
X152553333Y-85243726D01*
X152753333Y-85243726D02*
X152753333Y-84543726D01*
X152753333Y-84543726D02*
X152686666Y-84643726D01*
X152686666Y-84643726D02*
X152620000Y-84710393D01*
X152620000Y-84710393D02*
X152553333Y-84743726D01*
X153753333Y-84510393D02*
X153153333Y-85410393D01*
X153986666Y-84543726D02*
X153986666Y-85110393D01*
X153986666Y-85110393D02*
X154020000Y-85177060D01*
X154020000Y-85177060D02*
X154053333Y-85210393D01*
X154053333Y-85210393D02*
X154120000Y-85243726D01*
X154120000Y-85243726D02*
X154253333Y-85243726D01*
X154253333Y-85243726D02*
X154320000Y-85210393D01*
X154320000Y-85210393D02*
X154353333Y-85177060D01*
X154353333Y-85177060D02*
X154386666Y-85110393D01*
X154386666Y-85110393D02*
X154386666Y-84543726D01*
X154853333Y-84543726D02*
X154919999Y-84543726D01*
X154919999Y-84543726D02*
X154986666Y-84577060D01*
X154986666Y-84577060D02*
X155019999Y-84610393D01*
X155019999Y-84610393D02*
X155053333Y-84677060D01*
X155053333Y-84677060D02*
X155086666Y-84810393D01*
X155086666Y-84810393D02*
X155086666Y-84977060D01*
X155086666Y-84977060D02*
X155053333Y-85110393D01*
X155053333Y-85110393D02*
X155019999Y-85177060D01*
X155019999Y-85177060D02*
X154986666Y-85210393D01*
X154986666Y-85210393D02*
X154919999Y-85243726D01*
X154919999Y-85243726D02*
X154853333Y-85243726D01*
X154853333Y-85243726D02*
X154786666Y-85210393D01*
X154786666Y-85210393D02*
X154753333Y-85177060D01*
X154753333Y-85177060D02*
X154719999Y-85110393D01*
X154719999Y-85110393D02*
X154686666Y-84977060D01*
X154686666Y-84977060D02*
X154686666Y-84810393D01*
X154686666Y-84810393D02*
X154719999Y-84677060D01*
X154719999Y-84677060D02*
X154753333Y-84610393D01*
X154753333Y-84610393D02*
X154786666Y-84577060D01*
X154786666Y-84577060D02*
X154853333Y-84543726D01*
X155286666Y-84543726D02*
X155686666Y-84543726D01*
X155486666Y-85243726D02*
X155486666Y-84543726D01*
X155853333Y-84543726D02*
X156319999Y-85243726D01*
X156319999Y-84543726D02*
X155853333Y-85243726D01*
X156586666Y-85243726D02*
X156586666Y-84543726D01*
X156586666Y-84543726D02*
X156753333Y-84543726D01*
X156753333Y-84543726D02*
X156853333Y-84577060D01*
X156853333Y-84577060D02*
X156920000Y-84643726D01*
X156920000Y-84643726D02*
X156953333Y-84710393D01*
X156953333Y-84710393D02*
X156986666Y-84843726D01*
X156986666Y-84843726D02*
X156986666Y-84943726D01*
X156986666Y-84943726D02*
X156953333Y-85077060D01*
X156953333Y-85077060D02*
X156920000Y-85143726D01*
X156920000Y-85143726D02*
X156853333Y-85210393D01*
X156853333Y-85210393D02*
X156753333Y-85243726D01*
X156753333Y-85243726D02*
X156586666Y-85243726D01*
X134326666Y-84543726D02*
X134560000Y-85243726D01*
X134560000Y-85243726D02*
X134793333Y-84543726D01*
X135026666Y-85243726D02*
X135026666Y-84543726D01*
X135026666Y-84543726D02*
X135426666Y-85243726D01*
X135426666Y-85243726D02*
X135426666Y-84543726D01*
X136259999Y-84510393D02*
X135659999Y-85410393D01*
X136859999Y-84577060D02*
X136793332Y-84543726D01*
X136793332Y-84543726D02*
X136693332Y-84543726D01*
X136693332Y-84543726D02*
X136593332Y-84577060D01*
X136593332Y-84577060D02*
X136526666Y-84643726D01*
X136526666Y-84643726D02*
X136493332Y-84710393D01*
X136493332Y-84710393D02*
X136459999Y-84843726D01*
X136459999Y-84843726D02*
X136459999Y-84943726D01*
X136459999Y-84943726D02*
X136493332Y-85077060D01*
X136493332Y-85077060D02*
X136526666Y-85143726D01*
X136526666Y-85143726D02*
X136593332Y-85210393D01*
X136593332Y-85210393D02*
X136693332Y-85243726D01*
X136693332Y-85243726D02*
X136759999Y-85243726D01*
X136759999Y-85243726D02*
X136859999Y-85210393D01*
X136859999Y-85210393D02*
X136893332Y-85177060D01*
X136893332Y-85177060D02*
X136893332Y-84943726D01*
X136893332Y-84943726D02*
X136759999Y-84943726D01*
X137193332Y-85243726D02*
X137193332Y-84543726D01*
X137193332Y-84543726D02*
X137459999Y-84543726D01*
X137459999Y-84543726D02*
X137526666Y-84577060D01*
X137526666Y-84577060D02*
X137559999Y-84610393D01*
X137559999Y-84610393D02*
X137593332Y-84677060D01*
X137593332Y-84677060D02*
X137593332Y-84777060D01*
X137593332Y-84777060D02*
X137559999Y-84843726D01*
X137559999Y-84843726D02*
X137526666Y-84877060D01*
X137526666Y-84877060D02*
X137459999Y-84910393D01*
X137459999Y-84910393D02*
X137193332Y-84910393D01*
X137893332Y-85243726D02*
X137893332Y-84543726D01*
X138359999Y-84543726D02*
X138493332Y-84543726D01*
X138493332Y-84543726D02*
X138559999Y-84577060D01*
X138559999Y-84577060D02*
X138626665Y-84643726D01*
X138626665Y-84643726D02*
X138659999Y-84777060D01*
X138659999Y-84777060D02*
X138659999Y-85010393D01*
X138659999Y-85010393D02*
X138626665Y-85143726D01*
X138626665Y-85143726D02*
X138559999Y-85210393D01*
X138559999Y-85210393D02*
X138493332Y-85243726D01*
X138493332Y-85243726D02*
X138359999Y-85243726D01*
X138359999Y-85243726D02*
X138293332Y-85210393D01*
X138293332Y-85210393D02*
X138226665Y-85143726D01*
X138226665Y-85143726D02*
X138193332Y-85010393D01*
X138193332Y-85010393D02*
X138193332Y-84777060D01*
X138193332Y-84777060D02*
X138226665Y-84643726D01*
X138226665Y-84643726D02*
X138293332Y-84577060D01*
X138293332Y-84577060D02*
X138359999Y-84543726D01*
X138893332Y-84543726D02*
X139326665Y-84543726D01*
X139326665Y-84543726D02*
X139093332Y-84810393D01*
X139093332Y-84810393D02*
X139193332Y-84810393D01*
X139193332Y-84810393D02*
X139259998Y-84843726D01*
X139259998Y-84843726D02*
X139293332Y-84877060D01*
X139293332Y-84877060D02*
X139326665Y-84943726D01*
X139326665Y-84943726D02*
X139326665Y-85110393D01*
X139326665Y-85110393D02*
X139293332Y-85177060D01*
X139293332Y-85177060D02*
X139259998Y-85210393D01*
X139259998Y-85210393D02*
X139193332Y-85243726D01*
X139193332Y-85243726D02*
X138993332Y-85243726D01*
X138993332Y-85243726D02*
X138926665Y-85210393D01*
X138926665Y-85210393D02*
X138893332Y-85177060D01*
X139659999Y-85243726D02*
X139793332Y-85243726D01*
X139793332Y-85243726D02*
X139859999Y-85210393D01*
X139859999Y-85210393D02*
X139893332Y-85177060D01*
X139893332Y-85177060D02*
X139959999Y-85077060D01*
X139959999Y-85077060D02*
X139993332Y-84943726D01*
X139993332Y-84943726D02*
X139993332Y-84677060D01*
X139993332Y-84677060D02*
X139959999Y-84610393D01*
X139959999Y-84610393D02*
X139926665Y-84577060D01*
X139926665Y-84577060D02*
X139859999Y-84543726D01*
X139859999Y-84543726D02*
X139726665Y-84543726D01*
X139726665Y-84543726D02*
X139659999Y-84577060D01*
X139659999Y-84577060D02*
X139626665Y-84610393D01*
X139626665Y-84610393D02*
X139593332Y-84677060D01*
X139593332Y-84677060D02*
X139593332Y-84843726D01*
X139593332Y-84843726D02*
X139626665Y-84910393D01*
X139626665Y-84910393D02*
X139659999Y-84943726D01*
X139659999Y-84943726D02*
X139726665Y-84977060D01*
X139726665Y-84977060D02*
X139859999Y-84977060D01*
X139859999Y-84977060D02*
X139926665Y-84943726D01*
X139926665Y-84943726D02*
X139959999Y-84910393D01*
X139959999Y-84910393D02*
X139993332Y-84843726D01*
X154834285Y-76781560D02*
X154739047Y-76733940D01*
X154739047Y-76733940D02*
X154596190Y-76733940D01*
X154596190Y-76733940D02*
X154453333Y-76781560D01*
X154453333Y-76781560D02*
X154358095Y-76876798D01*
X154358095Y-76876798D02*
X154310476Y-76972036D01*
X154310476Y-76972036D02*
X154262857Y-77162512D01*
X154262857Y-77162512D02*
X154262857Y-77305369D01*
X154262857Y-77305369D02*
X154310476Y-77495845D01*
X154310476Y-77495845D02*
X154358095Y-77591083D01*
X154358095Y-77591083D02*
X154453333Y-77686321D01*
X154453333Y-77686321D02*
X154596190Y-77733940D01*
X154596190Y-77733940D02*
X154691428Y-77733940D01*
X154691428Y-77733940D02*
X154834285Y-77686321D01*
X154834285Y-77686321D02*
X154881904Y-77638702D01*
X154881904Y-77638702D02*
X154881904Y-77305369D01*
X154881904Y-77305369D02*
X154691428Y-77305369D01*
X155310476Y-77733940D02*
X155310476Y-76733940D01*
X155310476Y-76733940D02*
X155881904Y-77733940D01*
X155881904Y-77733940D02*
X155881904Y-76733940D01*
X156358095Y-77733940D02*
X156358095Y-76733940D01*
X156358095Y-76733940D02*
X156596190Y-76733940D01*
X156596190Y-76733940D02*
X156739047Y-76781560D01*
X156739047Y-76781560D02*
X156834285Y-76876798D01*
X156834285Y-76876798D02*
X156881904Y-76972036D01*
X156881904Y-76972036D02*
X156929523Y-77162512D01*
X156929523Y-77162512D02*
X156929523Y-77305369D01*
X156929523Y-77305369D02*
X156881904Y-77495845D01*
X156881904Y-77495845D02*
X156834285Y-77591083D01*
X156834285Y-77591083D02*
X156739047Y-77686321D01*
X156739047Y-77686321D02*
X156596190Y-77733940D01*
X156596190Y-77733940D02*
X156358095Y-77733940D01*
X134793333Y-99817060D02*
X134726666Y-99783726D01*
X134726666Y-99783726D02*
X134626666Y-99783726D01*
X134626666Y-99783726D02*
X134526666Y-99817060D01*
X134526666Y-99817060D02*
X134460000Y-99883726D01*
X134460000Y-99883726D02*
X134426666Y-99950393D01*
X134426666Y-99950393D02*
X134393333Y-100083726D01*
X134393333Y-100083726D02*
X134393333Y-100183726D01*
X134393333Y-100183726D02*
X134426666Y-100317060D01*
X134426666Y-100317060D02*
X134460000Y-100383726D01*
X134460000Y-100383726D02*
X134526666Y-100450393D01*
X134526666Y-100450393D02*
X134626666Y-100483726D01*
X134626666Y-100483726D02*
X134693333Y-100483726D01*
X134693333Y-100483726D02*
X134793333Y-100450393D01*
X134793333Y-100450393D02*
X134826666Y-100417060D01*
X134826666Y-100417060D02*
X134826666Y-100183726D01*
X134826666Y-100183726D02*
X134693333Y-100183726D01*
X135126666Y-100483726D02*
X135126666Y-99783726D01*
X135126666Y-99783726D02*
X135393333Y-99783726D01*
X135393333Y-99783726D02*
X135460000Y-99817060D01*
X135460000Y-99817060D02*
X135493333Y-99850393D01*
X135493333Y-99850393D02*
X135526666Y-99917060D01*
X135526666Y-99917060D02*
X135526666Y-100017060D01*
X135526666Y-100017060D02*
X135493333Y-100083726D01*
X135493333Y-100083726D02*
X135460000Y-100117060D01*
X135460000Y-100117060D02*
X135393333Y-100150393D01*
X135393333Y-100150393D02*
X135126666Y-100150393D01*
X135826666Y-100483726D02*
X135826666Y-99783726D01*
X136293333Y-99783726D02*
X136426666Y-99783726D01*
X136426666Y-99783726D02*
X136493333Y-99817060D01*
X136493333Y-99817060D02*
X136559999Y-99883726D01*
X136559999Y-99883726D02*
X136593333Y-100017060D01*
X136593333Y-100017060D02*
X136593333Y-100250393D01*
X136593333Y-100250393D02*
X136559999Y-100383726D01*
X136559999Y-100383726D02*
X136493333Y-100450393D01*
X136493333Y-100450393D02*
X136426666Y-100483726D01*
X136426666Y-100483726D02*
X136293333Y-100483726D01*
X136293333Y-100483726D02*
X136226666Y-100450393D01*
X136226666Y-100450393D02*
X136159999Y-100383726D01*
X136159999Y-100383726D02*
X136126666Y-100250393D01*
X136126666Y-100250393D02*
X136126666Y-100017060D01*
X136126666Y-100017060D02*
X136159999Y-99883726D01*
X136159999Y-99883726D02*
X136226666Y-99817060D01*
X136226666Y-99817060D02*
X136293333Y-99783726D01*
X136859999Y-99850393D02*
X136893332Y-99817060D01*
X136893332Y-99817060D02*
X136959999Y-99783726D01*
X136959999Y-99783726D02*
X137126666Y-99783726D01*
X137126666Y-99783726D02*
X137193332Y-99817060D01*
X137193332Y-99817060D02*
X137226666Y-99850393D01*
X137226666Y-99850393D02*
X137259999Y-99917060D01*
X137259999Y-99917060D02*
X137259999Y-99983726D01*
X137259999Y-99983726D02*
X137226666Y-100083726D01*
X137226666Y-100083726D02*
X136826666Y-100483726D01*
X136826666Y-100483726D02*
X137259999Y-100483726D01*
X137859999Y-99783726D02*
X137726666Y-99783726D01*
X137726666Y-99783726D02*
X137659999Y-99817060D01*
X137659999Y-99817060D02*
X137626666Y-99850393D01*
X137626666Y-99850393D02*
X137559999Y-99950393D01*
X137559999Y-99950393D02*
X137526666Y-100083726D01*
X137526666Y-100083726D02*
X137526666Y-100350393D01*
X137526666Y-100350393D02*
X137559999Y-100417060D01*
X137559999Y-100417060D02*
X137593333Y-100450393D01*
X137593333Y-100450393D02*
X137659999Y-100483726D01*
X137659999Y-100483726D02*
X137793333Y-100483726D01*
X137793333Y-100483726D02*
X137859999Y-100450393D01*
X137859999Y-100450393D02*
X137893333Y-100417060D01*
X137893333Y-100417060D02*
X137926666Y-100350393D01*
X137926666Y-100350393D02*
X137926666Y-100183726D01*
X137926666Y-100183726D02*
X137893333Y-100117060D01*
X137893333Y-100117060D02*
X137859999Y-100083726D01*
X137859999Y-100083726D02*
X137793333Y-100050393D01*
X137793333Y-100050393D02*
X137659999Y-100050393D01*
X137659999Y-100050393D02*
X137593333Y-100083726D01*
X137593333Y-100083726D02*
X137559999Y-100117060D01*
X137559999Y-100117060D02*
X137526666Y-100183726D01*
X134970605Y-122705220D02*
X134494415Y-122705220D01*
X134494415Y-122705220D02*
X134446796Y-123181411D01*
X134446796Y-123181411D02*
X134494415Y-123133792D01*
X134494415Y-123133792D02*
X134589653Y-123086173D01*
X134589653Y-123086173D02*
X134827748Y-123086173D01*
X134827748Y-123086173D02*
X134922986Y-123133792D01*
X134922986Y-123133792D02*
X134970605Y-123181411D01*
X134970605Y-123181411D02*
X135018224Y-123276649D01*
X135018224Y-123276649D02*
X135018224Y-123514744D01*
X135018224Y-123514744D02*
X134970605Y-123609982D01*
X134970605Y-123609982D02*
X134922986Y-123657601D01*
X134922986Y-123657601D02*
X134827748Y-123705220D01*
X134827748Y-123705220D02*
X134589653Y-123705220D01*
X134589653Y-123705220D02*
X134494415Y-123657601D01*
X134494415Y-123657601D02*
X134446796Y-123609982D01*
X135303939Y-122705220D02*
X135637272Y-123705220D01*
X135637272Y-123705220D02*
X135970605Y-122705220D01*
X134426666Y-118263726D02*
X134426666Y-117563726D01*
X134426666Y-117563726D02*
X134593333Y-117563726D01*
X134593333Y-117563726D02*
X134693333Y-117597060D01*
X134693333Y-117597060D02*
X134760000Y-117663726D01*
X134760000Y-117663726D02*
X134793333Y-117730393D01*
X134793333Y-117730393D02*
X134826666Y-117863726D01*
X134826666Y-117863726D02*
X134826666Y-117963726D01*
X134826666Y-117963726D02*
X134793333Y-118097060D01*
X134793333Y-118097060D02*
X134760000Y-118163726D01*
X134760000Y-118163726D02*
X134693333Y-118230393D01*
X134693333Y-118230393D02*
X134593333Y-118263726D01*
X134593333Y-118263726D02*
X134426666Y-118263726D01*
X135060000Y-117563726D02*
X135493333Y-117563726D01*
X135493333Y-117563726D02*
X135260000Y-117830393D01*
X135260000Y-117830393D02*
X135360000Y-117830393D01*
X135360000Y-117830393D02*
X135426666Y-117863726D01*
X135426666Y-117863726D02*
X135460000Y-117897060D01*
X135460000Y-117897060D02*
X135493333Y-117963726D01*
X135493333Y-117963726D02*
X135493333Y-118130393D01*
X135493333Y-118130393D02*
X135460000Y-118197060D01*
X135460000Y-118197060D02*
X135426666Y-118230393D01*
X135426666Y-118230393D02*
X135360000Y-118263726D01*
X135360000Y-118263726D02*
X135160000Y-118263726D01*
X135160000Y-118263726D02*
X135093333Y-118230393D01*
X135093333Y-118230393D02*
X135060000Y-118197060D01*
X134793333Y-104897060D02*
X134726666Y-104863726D01*
X134726666Y-104863726D02*
X134626666Y-104863726D01*
X134626666Y-104863726D02*
X134526666Y-104897060D01*
X134526666Y-104897060D02*
X134460000Y-104963726D01*
X134460000Y-104963726D02*
X134426666Y-105030393D01*
X134426666Y-105030393D02*
X134393333Y-105163726D01*
X134393333Y-105163726D02*
X134393333Y-105263726D01*
X134393333Y-105263726D02*
X134426666Y-105397060D01*
X134426666Y-105397060D02*
X134460000Y-105463726D01*
X134460000Y-105463726D02*
X134526666Y-105530393D01*
X134526666Y-105530393D02*
X134626666Y-105563726D01*
X134626666Y-105563726D02*
X134693333Y-105563726D01*
X134693333Y-105563726D02*
X134793333Y-105530393D01*
X134793333Y-105530393D02*
X134826666Y-105497060D01*
X134826666Y-105497060D02*
X134826666Y-105263726D01*
X134826666Y-105263726D02*
X134693333Y-105263726D01*
X135126666Y-105563726D02*
X135126666Y-104863726D01*
X135126666Y-104863726D02*
X135393333Y-104863726D01*
X135393333Y-104863726D02*
X135460000Y-104897060D01*
X135460000Y-104897060D02*
X135493333Y-104930393D01*
X135493333Y-104930393D02*
X135526666Y-104997060D01*
X135526666Y-104997060D02*
X135526666Y-105097060D01*
X135526666Y-105097060D02*
X135493333Y-105163726D01*
X135493333Y-105163726D02*
X135460000Y-105197060D01*
X135460000Y-105197060D02*
X135393333Y-105230393D01*
X135393333Y-105230393D02*
X135126666Y-105230393D01*
X135826666Y-105563726D02*
X135826666Y-104863726D01*
X136293333Y-104863726D02*
X136426666Y-104863726D01*
X136426666Y-104863726D02*
X136493333Y-104897060D01*
X136493333Y-104897060D02*
X136559999Y-104963726D01*
X136559999Y-104963726D02*
X136593333Y-105097060D01*
X136593333Y-105097060D02*
X136593333Y-105330393D01*
X136593333Y-105330393D02*
X136559999Y-105463726D01*
X136559999Y-105463726D02*
X136493333Y-105530393D01*
X136493333Y-105530393D02*
X136426666Y-105563726D01*
X136426666Y-105563726D02*
X136293333Y-105563726D01*
X136293333Y-105563726D02*
X136226666Y-105530393D01*
X136226666Y-105530393D02*
X136159999Y-105463726D01*
X136159999Y-105463726D02*
X136126666Y-105330393D01*
X136126666Y-105330393D02*
X136126666Y-105097060D01*
X136126666Y-105097060D02*
X136159999Y-104963726D01*
X136159999Y-104963726D02*
X136226666Y-104897060D01*
X136226666Y-104897060D02*
X136293333Y-104863726D01*
X137259999Y-105563726D02*
X136859999Y-105563726D01*
X137059999Y-105563726D02*
X137059999Y-104863726D01*
X137059999Y-104863726D02*
X136993332Y-104963726D01*
X136993332Y-104963726D02*
X136926666Y-105030393D01*
X136926666Y-105030393D02*
X136859999Y-105063726D01*
X137859999Y-105097060D02*
X137859999Y-105563726D01*
X137693333Y-104830393D02*
X137526666Y-105330393D01*
X137526666Y-105330393D02*
X137959999Y-105330393D01*
X138726666Y-104830393D02*
X138126666Y-105730393D01*
X138959999Y-105563726D02*
X138959999Y-104863726D01*
X138959999Y-104863726D02*
X139193333Y-105363726D01*
X139193333Y-105363726D02*
X139426666Y-104863726D01*
X139426666Y-104863726D02*
X139426666Y-105563726D01*
X139659999Y-104863726D02*
X140059999Y-104863726D01*
X139859999Y-105563726D02*
X139859999Y-104863726D01*
X140293332Y-105563726D02*
X140293332Y-104863726D01*
X140293332Y-104863726D02*
X140526666Y-105363726D01*
X140526666Y-105363726D02*
X140759999Y-104863726D01*
X140759999Y-104863726D02*
X140759999Y-105563726D01*
X141059999Y-105530393D02*
X141159999Y-105563726D01*
X141159999Y-105563726D02*
X141326666Y-105563726D01*
X141326666Y-105563726D02*
X141393332Y-105530393D01*
X141393332Y-105530393D02*
X141426666Y-105497060D01*
X141426666Y-105497060D02*
X141459999Y-105430393D01*
X141459999Y-105430393D02*
X141459999Y-105363726D01*
X141459999Y-105363726D02*
X141426666Y-105297060D01*
X141426666Y-105297060D02*
X141393332Y-105263726D01*
X141393332Y-105263726D02*
X141326666Y-105230393D01*
X141326666Y-105230393D02*
X141193332Y-105197060D01*
X141193332Y-105197060D02*
X141126666Y-105163726D01*
X141126666Y-105163726D02*
X141093332Y-105130393D01*
X141093332Y-105130393D02*
X141059999Y-105063726D01*
X141059999Y-105063726D02*
X141059999Y-104997060D01*
X141059999Y-104997060D02*
X141093332Y-104930393D01*
X141093332Y-104930393D02*
X141126666Y-104897060D01*
X141126666Y-104897060D02*
X141193332Y-104863726D01*
X141193332Y-104863726D02*
X141359999Y-104863726D01*
X141359999Y-104863726D02*
X141459999Y-104897060D01*
X153853333Y-82037060D02*
X153786666Y-82003726D01*
X153786666Y-82003726D02*
X153686666Y-82003726D01*
X153686666Y-82003726D02*
X153586666Y-82037060D01*
X153586666Y-82037060D02*
X153520000Y-82103726D01*
X153520000Y-82103726D02*
X153486666Y-82170393D01*
X153486666Y-82170393D02*
X153453333Y-82303726D01*
X153453333Y-82303726D02*
X153453333Y-82403726D01*
X153453333Y-82403726D02*
X153486666Y-82537060D01*
X153486666Y-82537060D02*
X153520000Y-82603726D01*
X153520000Y-82603726D02*
X153586666Y-82670393D01*
X153586666Y-82670393D02*
X153686666Y-82703726D01*
X153686666Y-82703726D02*
X153753333Y-82703726D01*
X153753333Y-82703726D02*
X153853333Y-82670393D01*
X153853333Y-82670393D02*
X153886666Y-82637060D01*
X153886666Y-82637060D02*
X153886666Y-82403726D01*
X153886666Y-82403726D02*
X153753333Y-82403726D01*
X154186666Y-82703726D02*
X154186666Y-82003726D01*
X154186666Y-82003726D02*
X154453333Y-82003726D01*
X154453333Y-82003726D02*
X154520000Y-82037060D01*
X154520000Y-82037060D02*
X154553333Y-82070393D01*
X154553333Y-82070393D02*
X154586666Y-82137060D01*
X154586666Y-82137060D02*
X154586666Y-82237060D01*
X154586666Y-82237060D02*
X154553333Y-82303726D01*
X154553333Y-82303726D02*
X154520000Y-82337060D01*
X154520000Y-82337060D02*
X154453333Y-82370393D01*
X154453333Y-82370393D02*
X154186666Y-82370393D01*
X154886666Y-82703726D02*
X154886666Y-82003726D01*
X155353333Y-82003726D02*
X155486666Y-82003726D01*
X155486666Y-82003726D02*
X155553333Y-82037060D01*
X155553333Y-82037060D02*
X155619999Y-82103726D01*
X155619999Y-82103726D02*
X155653333Y-82237060D01*
X155653333Y-82237060D02*
X155653333Y-82470393D01*
X155653333Y-82470393D02*
X155619999Y-82603726D01*
X155619999Y-82603726D02*
X155553333Y-82670393D01*
X155553333Y-82670393D02*
X155486666Y-82703726D01*
X155486666Y-82703726D02*
X155353333Y-82703726D01*
X155353333Y-82703726D02*
X155286666Y-82670393D01*
X155286666Y-82670393D02*
X155219999Y-82603726D01*
X155219999Y-82603726D02*
X155186666Y-82470393D01*
X155186666Y-82470393D02*
X155186666Y-82237060D01*
X155186666Y-82237060D02*
X155219999Y-82103726D01*
X155219999Y-82103726D02*
X155286666Y-82037060D01*
X155286666Y-82037060D02*
X155353333Y-82003726D01*
X155919999Y-82070393D02*
X155953332Y-82037060D01*
X155953332Y-82037060D02*
X156019999Y-82003726D01*
X156019999Y-82003726D02*
X156186666Y-82003726D01*
X156186666Y-82003726D02*
X156253332Y-82037060D01*
X156253332Y-82037060D02*
X156286666Y-82070393D01*
X156286666Y-82070393D02*
X156319999Y-82137060D01*
X156319999Y-82137060D02*
X156319999Y-82203726D01*
X156319999Y-82203726D02*
X156286666Y-82303726D01*
X156286666Y-82303726D02*
X155886666Y-82703726D01*
X155886666Y-82703726D02*
X156319999Y-82703726D01*
X156586666Y-82070393D02*
X156619999Y-82037060D01*
X156619999Y-82037060D02*
X156686666Y-82003726D01*
X156686666Y-82003726D02*
X156853333Y-82003726D01*
X156853333Y-82003726D02*
X156919999Y-82037060D01*
X156919999Y-82037060D02*
X156953333Y-82070393D01*
X156953333Y-82070393D02*
X156986666Y-82137060D01*
X156986666Y-82137060D02*
X156986666Y-82203726D01*
X156986666Y-82203726D02*
X156953333Y-82303726D01*
X156953333Y-82303726D02*
X156553333Y-82703726D01*
X156553333Y-82703726D02*
X156986666Y-82703726D01*
X134590605Y-79747411D02*
X134923938Y-79747411D01*
X135066795Y-80271220D02*
X134590605Y-80271220D01*
X134590605Y-80271220D02*
X134590605Y-79271220D01*
X134590605Y-79271220D02*
X135066795Y-79271220D01*
X135495367Y-80271220D02*
X135495367Y-79271220D01*
X135495367Y-79271220D02*
X136066795Y-80271220D01*
X136066795Y-80271220D02*
X136066795Y-79271220D01*
X137257271Y-79223601D02*
X136400129Y-80509316D01*
X138162033Y-80271220D02*
X137828700Y-79795030D01*
X137590605Y-80271220D02*
X137590605Y-79271220D01*
X137590605Y-79271220D02*
X137971557Y-79271220D01*
X137971557Y-79271220D02*
X138066795Y-79318840D01*
X138066795Y-79318840D02*
X138114414Y-79366459D01*
X138114414Y-79366459D02*
X138162033Y-79461697D01*
X138162033Y-79461697D02*
X138162033Y-79604554D01*
X138162033Y-79604554D02*
X138114414Y-79699792D01*
X138114414Y-79699792D02*
X138066795Y-79747411D01*
X138066795Y-79747411D02*
X137971557Y-79795030D01*
X137971557Y-79795030D02*
X137590605Y-79795030D01*
X138590605Y-79747411D02*
X138923938Y-79747411D01*
X139066795Y-80271220D02*
X138590605Y-80271220D01*
X138590605Y-80271220D02*
X138590605Y-79271220D01*
X138590605Y-79271220D02*
X139066795Y-79271220D01*
X139447748Y-80223601D02*
X139590605Y-80271220D01*
X139590605Y-80271220D02*
X139828700Y-80271220D01*
X139828700Y-80271220D02*
X139923938Y-80223601D01*
X139923938Y-80223601D02*
X139971557Y-80175982D01*
X139971557Y-80175982D02*
X140019176Y-80080744D01*
X140019176Y-80080744D02*
X140019176Y-79985506D01*
X140019176Y-79985506D02*
X139971557Y-79890268D01*
X139971557Y-79890268D02*
X139923938Y-79842649D01*
X139923938Y-79842649D02*
X139828700Y-79795030D01*
X139828700Y-79795030D02*
X139638224Y-79747411D01*
X139638224Y-79747411D02*
X139542986Y-79699792D01*
X139542986Y-79699792D02*
X139495367Y-79652173D01*
X139495367Y-79652173D02*
X139447748Y-79556935D01*
X139447748Y-79556935D02*
X139447748Y-79461697D01*
X139447748Y-79461697D02*
X139495367Y-79366459D01*
X139495367Y-79366459D02*
X139542986Y-79318840D01*
X139542986Y-79318840D02*
X139638224Y-79271220D01*
X139638224Y-79271220D02*
X139876319Y-79271220D01*
X139876319Y-79271220D02*
X140019176Y-79318840D01*
X140447748Y-79747411D02*
X140781081Y-79747411D01*
X140923938Y-80271220D02*
X140447748Y-80271220D01*
X140447748Y-80271220D02*
X140447748Y-79271220D01*
X140447748Y-79271220D02*
X140923938Y-79271220D01*
X141209653Y-79271220D02*
X141781081Y-79271220D01*
X141495367Y-80271220D02*
X141495367Y-79271220D01*
X154520000Y-107437060D02*
X154453333Y-107403726D01*
X154453333Y-107403726D02*
X154353333Y-107403726D01*
X154353333Y-107403726D02*
X154253333Y-107437060D01*
X154253333Y-107437060D02*
X154186667Y-107503726D01*
X154186667Y-107503726D02*
X154153333Y-107570393D01*
X154153333Y-107570393D02*
X154120000Y-107703726D01*
X154120000Y-107703726D02*
X154120000Y-107803726D01*
X154120000Y-107803726D02*
X154153333Y-107937060D01*
X154153333Y-107937060D02*
X154186667Y-108003726D01*
X154186667Y-108003726D02*
X154253333Y-108070393D01*
X154253333Y-108070393D02*
X154353333Y-108103726D01*
X154353333Y-108103726D02*
X154420000Y-108103726D01*
X154420000Y-108103726D02*
X154520000Y-108070393D01*
X154520000Y-108070393D02*
X154553333Y-108037060D01*
X154553333Y-108037060D02*
X154553333Y-107803726D01*
X154553333Y-107803726D02*
X154420000Y-107803726D01*
X154853333Y-108103726D02*
X154853333Y-107403726D01*
X154853333Y-107403726D02*
X155120000Y-107403726D01*
X155120000Y-107403726D02*
X155186667Y-107437060D01*
X155186667Y-107437060D02*
X155220000Y-107470393D01*
X155220000Y-107470393D02*
X155253333Y-107537060D01*
X155253333Y-107537060D02*
X155253333Y-107637060D01*
X155253333Y-107637060D02*
X155220000Y-107703726D01*
X155220000Y-107703726D02*
X155186667Y-107737060D01*
X155186667Y-107737060D02*
X155120000Y-107770393D01*
X155120000Y-107770393D02*
X154853333Y-107770393D01*
X155553333Y-108103726D02*
X155553333Y-107403726D01*
X156020000Y-107403726D02*
X156153333Y-107403726D01*
X156153333Y-107403726D02*
X156220000Y-107437060D01*
X156220000Y-107437060D02*
X156286666Y-107503726D01*
X156286666Y-107503726D02*
X156320000Y-107637060D01*
X156320000Y-107637060D02*
X156320000Y-107870393D01*
X156320000Y-107870393D02*
X156286666Y-108003726D01*
X156286666Y-108003726D02*
X156220000Y-108070393D01*
X156220000Y-108070393D02*
X156153333Y-108103726D01*
X156153333Y-108103726D02*
X156020000Y-108103726D01*
X156020000Y-108103726D02*
X155953333Y-108070393D01*
X155953333Y-108070393D02*
X155886666Y-108003726D01*
X155886666Y-108003726D02*
X155853333Y-107870393D01*
X155853333Y-107870393D02*
X155853333Y-107637060D01*
X155853333Y-107637060D02*
X155886666Y-107503726D01*
X155886666Y-107503726D02*
X155953333Y-107437060D01*
X155953333Y-107437060D02*
X156020000Y-107403726D01*
X156919999Y-107637060D02*
X156919999Y-108103726D01*
X156753333Y-107370393D02*
X156586666Y-107870393D01*
X156586666Y-107870393D02*
X157019999Y-107870393D01*
X153853333Y-79497060D02*
X153786666Y-79463726D01*
X153786666Y-79463726D02*
X153686666Y-79463726D01*
X153686666Y-79463726D02*
X153586666Y-79497060D01*
X153586666Y-79497060D02*
X153520000Y-79563726D01*
X153520000Y-79563726D02*
X153486666Y-79630393D01*
X153486666Y-79630393D02*
X153453333Y-79763726D01*
X153453333Y-79763726D02*
X153453333Y-79863726D01*
X153453333Y-79863726D02*
X153486666Y-79997060D01*
X153486666Y-79997060D02*
X153520000Y-80063726D01*
X153520000Y-80063726D02*
X153586666Y-80130393D01*
X153586666Y-80130393D02*
X153686666Y-80163726D01*
X153686666Y-80163726D02*
X153753333Y-80163726D01*
X153753333Y-80163726D02*
X153853333Y-80130393D01*
X153853333Y-80130393D02*
X153886666Y-80097060D01*
X153886666Y-80097060D02*
X153886666Y-79863726D01*
X153886666Y-79863726D02*
X153753333Y-79863726D01*
X154186666Y-80163726D02*
X154186666Y-79463726D01*
X154186666Y-79463726D02*
X154453333Y-79463726D01*
X154453333Y-79463726D02*
X154520000Y-79497060D01*
X154520000Y-79497060D02*
X154553333Y-79530393D01*
X154553333Y-79530393D02*
X154586666Y-79597060D01*
X154586666Y-79597060D02*
X154586666Y-79697060D01*
X154586666Y-79697060D02*
X154553333Y-79763726D01*
X154553333Y-79763726D02*
X154520000Y-79797060D01*
X154520000Y-79797060D02*
X154453333Y-79830393D01*
X154453333Y-79830393D02*
X154186666Y-79830393D01*
X154886666Y-80163726D02*
X154886666Y-79463726D01*
X155353333Y-79463726D02*
X155486666Y-79463726D01*
X155486666Y-79463726D02*
X155553333Y-79497060D01*
X155553333Y-79497060D02*
X155619999Y-79563726D01*
X155619999Y-79563726D02*
X155653333Y-79697060D01*
X155653333Y-79697060D02*
X155653333Y-79930393D01*
X155653333Y-79930393D02*
X155619999Y-80063726D01*
X155619999Y-80063726D02*
X155553333Y-80130393D01*
X155553333Y-80130393D02*
X155486666Y-80163726D01*
X155486666Y-80163726D02*
X155353333Y-80163726D01*
X155353333Y-80163726D02*
X155286666Y-80130393D01*
X155286666Y-80130393D02*
X155219999Y-80063726D01*
X155219999Y-80063726D02*
X155186666Y-79930393D01*
X155186666Y-79930393D02*
X155186666Y-79697060D01*
X155186666Y-79697060D02*
X155219999Y-79563726D01*
X155219999Y-79563726D02*
X155286666Y-79497060D01*
X155286666Y-79497060D02*
X155353333Y-79463726D01*
X155919999Y-79530393D02*
X155953332Y-79497060D01*
X155953332Y-79497060D02*
X156019999Y-79463726D01*
X156019999Y-79463726D02*
X156186666Y-79463726D01*
X156186666Y-79463726D02*
X156253332Y-79497060D01*
X156253332Y-79497060D02*
X156286666Y-79530393D01*
X156286666Y-79530393D02*
X156319999Y-79597060D01*
X156319999Y-79597060D02*
X156319999Y-79663726D01*
X156319999Y-79663726D02*
X156286666Y-79763726D01*
X156286666Y-79763726D02*
X155886666Y-80163726D01*
X155886666Y-80163726D02*
X156319999Y-80163726D01*
X156553333Y-79463726D02*
X156986666Y-79463726D01*
X156986666Y-79463726D02*
X156753333Y-79730393D01*
X156753333Y-79730393D02*
X156853333Y-79730393D01*
X156853333Y-79730393D02*
X156919999Y-79763726D01*
X156919999Y-79763726D02*
X156953333Y-79797060D01*
X156953333Y-79797060D02*
X156986666Y-79863726D01*
X156986666Y-79863726D02*
X156986666Y-80030393D01*
X156986666Y-80030393D02*
X156953333Y-80097060D01*
X156953333Y-80097060D02*
X156919999Y-80130393D01*
X156919999Y-80130393D02*
X156853333Y-80163726D01*
X156853333Y-80163726D02*
X156653333Y-80163726D01*
X156653333Y-80163726D02*
X156586666Y-80130393D01*
X156586666Y-80130393D02*
X156553333Y-80097060D01*
X134793333Y-89657060D02*
X134726666Y-89623726D01*
X134726666Y-89623726D02*
X134626666Y-89623726D01*
X134626666Y-89623726D02*
X134526666Y-89657060D01*
X134526666Y-89657060D02*
X134460000Y-89723726D01*
X134460000Y-89723726D02*
X134426666Y-89790393D01*
X134426666Y-89790393D02*
X134393333Y-89923726D01*
X134393333Y-89923726D02*
X134393333Y-90023726D01*
X134393333Y-90023726D02*
X134426666Y-90157060D01*
X134426666Y-90157060D02*
X134460000Y-90223726D01*
X134460000Y-90223726D02*
X134526666Y-90290393D01*
X134526666Y-90290393D02*
X134626666Y-90323726D01*
X134626666Y-90323726D02*
X134693333Y-90323726D01*
X134693333Y-90323726D02*
X134793333Y-90290393D01*
X134793333Y-90290393D02*
X134826666Y-90257060D01*
X134826666Y-90257060D02*
X134826666Y-90023726D01*
X134826666Y-90023726D02*
X134693333Y-90023726D01*
X135126666Y-90323726D02*
X135126666Y-89623726D01*
X135126666Y-89623726D02*
X135393333Y-89623726D01*
X135393333Y-89623726D02*
X135460000Y-89657060D01*
X135460000Y-89657060D02*
X135493333Y-89690393D01*
X135493333Y-89690393D02*
X135526666Y-89757060D01*
X135526666Y-89757060D02*
X135526666Y-89857060D01*
X135526666Y-89857060D02*
X135493333Y-89923726D01*
X135493333Y-89923726D02*
X135460000Y-89957060D01*
X135460000Y-89957060D02*
X135393333Y-89990393D01*
X135393333Y-89990393D02*
X135126666Y-89990393D01*
X135826666Y-90323726D02*
X135826666Y-89623726D01*
X136293333Y-89623726D02*
X136426666Y-89623726D01*
X136426666Y-89623726D02*
X136493333Y-89657060D01*
X136493333Y-89657060D02*
X136559999Y-89723726D01*
X136559999Y-89723726D02*
X136593333Y-89857060D01*
X136593333Y-89857060D02*
X136593333Y-90090393D01*
X136593333Y-90090393D02*
X136559999Y-90223726D01*
X136559999Y-90223726D02*
X136493333Y-90290393D01*
X136493333Y-90290393D02*
X136426666Y-90323726D01*
X136426666Y-90323726D02*
X136293333Y-90323726D01*
X136293333Y-90323726D02*
X136226666Y-90290393D01*
X136226666Y-90290393D02*
X136159999Y-90223726D01*
X136159999Y-90223726D02*
X136126666Y-90090393D01*
X136126666Y-90090393D02*
X136126666Y-89857060D01*
X136126666Y-89857060D02*
X136159999Y-89723726D01*
X136159999Y-89723726D02*
X136226666Y-89657060D01*
X136226666Y-89657060D02*
X136293333Y-89623726D01*
X136826666Y-89623726D02*
X137259999Y-89623726D01*
X137259999Y-89623726D02*
X137026666Y-89890393D01*
X137026666Y-89890393D02*
X137126666Y-89890393D01*
X137126666Y-89890393D02*
X137193332Y-89923726D01*
X137193332Y-89923726D02*
X137226666Y-89957060D01*
X137226666Y-89957060D02*
X137259999Y-90023726D01*
X137259999Y-90023726D02*
X137259999Y-90190393D01*
X137259999Y-90190393D02*
X137226666Y-90257060D01*
X137226666Y-90257060D02*
X137193332Y-90290393D01*
X137193332Y-90290393D02*
X137126666Y-90323726D01*
X137126666Y-90323726D02*
X136926666Y-90323726D01*
X136926666Y-90323726D02*
X136859999Y-90290393D01*
X136859999Y-90290393D02*
X136826666Y-90257060D01*
X137893333Y-89623726D02*
X137559999Y-89623726D01*
X137559999Y-89623726D02*
X137526666Y-89957060D01*
X137526666Y-89957060D02*
X137559999Y-89923726D01*
X137559999Y-89923726D02*
X137626666Y-89890393D01*
X137626666Y-89890393D02*
X137793333Y-89890393D01*
X137793333Y-89890393D02*
X137859999Y-89923726D01*
X137859999Y-89923726D02*
X137893333Y-89957060D01*
X137893333Y-89957060D02*
X137926666Y-90023726D01*
X137926666Y-90023726D02*
X137926666Y-90190393D01*
X137926666Y-90190393D02*
X137893333Y-90257060D01*
X137893333Y-90257060D02*
X137859999Y-90290393D01*
X137859999Y-90290393D02*
X137793333Y-90323726D01*
X137793333Y-90323726D02*
X137626666Y-90323726D01*
X137626666Y-90323726D02*
X137559999Y-90290393D01*
X137559999Y-90290393D02*
X137526666Y-90257060D01*
X134793333Y-112517060D02*
X134726666Y-112483726D01*
X134726666Y-112483726D02*
X134626666Y-112483726D01*
X134626666Y-112483726D02*
X134526666Y-112517060D01*
X134526666Y-112517060D02*
X134460000Y-112583726D01*
X134460000Y-112583726D02*
X134426666Y-112650393D01*
X134426666Y-112650393D02*
X134393333Y-112783726D01*
X134393333Y-112783726D02*
X134393333Y-112883726D01*
X134393333Y-112883726D02*
X134426666Y-113017060D01*
X134426666Y-113017060D02*
X134460000Y-113083726D01*
X134460000Y-113083726D02*
X134526666Y-113150393D01*
X134526666Y-113150393D02*
X134626666Y-113183726D01*
X134626666Y-113183726D02*
X134693333Y-113183726D01*
X134693333Y-113183726D02*
X134793333Y-113150393D01*
X134793333Y-113150393D02*
X134826666Y-113117060D01*
X134826666Y-113117060D02*
X134826666Y-112883726D01*
X134826666Y-112883726D02*
X134693333Y-112883726D01*
X135126666Y-113183726D02*
X135126666Y-112483726D01*
X135126666Y-112483726D02*
X135393333Y-112483726D01*
X135393333Y-112483726D02*
X135460000Y-112517060D01*
X135460000Y-112517060D02*
X135493333Y-112550393D01*
X135493333Y-112550393D02*
X135526666Y-112617060D01*
X135526666Y-112617060D02*
X135526666Y-112717060D01*
X135526666Y-112717060D02*
X135493333Y-112783726D01*
X135493333Y-112783726D02*
X135460000Y-112817060D01*
X135460000Y-112817060D02*
X135393333Y-112850393D01*
X135393333Y-112850393D02*
X135126666Y-112850393D01*
X135826666Y-113183726D02*
X135826666Y-112483726D01*
X136293333Y-112483726D02*
X136426666Y-112483726D01*
X136426666Y-112483726D02*
X136493333Y-112517060D01*
X136493333Y-112517060D02*
X136559999Y-112583726D01*
X136559999Y-112583726D02*
X136593333Y-112717060D01*
X136593333Y-112717060D02*
X136593333Y-112950393D01*
X136593333Y-112950393D02*
X136559999Y-113083726D01*
X136559999Y-113083726D02*
X136493333Y-113150393D01*
X136493333Y-113150393D02*
X136426666Y-113183726D01*
X136426666Y-113183726D02*
X136293333Y-113183726D01*
X136293333Y-113183726D02*
X136226666Y-113150393D01*
X136226666Y-113150393D02*
X136159999Y-113083726D01*
X136159999Y-113083726D02*
X136126666Y-112950393D01*
X136126666Y-112950393D02*
X136126666Y-112717060D01*
X136126666Y-112717060D02*
X136159999Y-112583726D01*
X136159999Y-112583726D02*
X136226666Y-112517060D01*
X136226666Y-112517060D02*
X136293333Y-112483726D01*
X137259999Y-113183726D02*
X136859999Y-113183726D01*
X137059999Y-113183726D02*
X137059999Y-112483726D01*
X137059999Y-112483726D02*
X136993332Y-112583726D01*
X136993332Y-112583726D02*
X136926666Y-112650393D01*
X136926666Y-112650393D02*
X136859999Y-112683726D01*
X137493333Y-112483726D02*
X137926666Y-112483726D01*
X137926666Y-112483726D02*
X137693333Y-112750393D01*
X137693333Y-112750393D02*
X137793333Y-112750393D01*
X137793333Y-112750393D02*
X137859999Y-112783726D01*
X137859999Y-112783726D02*
X137893333Y-112817060D01*
X137893333Y-112817060D02*
X137926666Y-112883726D01*
X137926666Y-112883726D02*
X137926666Y-113050393D01*
X137926666Y-113050393D02*
X137893333Y-113117060D01*
X137893333Y-113117060D02*
X137859999Y-113150393D01*
X137859999Y-113150393D02*
X137793333Y-113183726D01*
X137793333Y-113183726D02*
X137593333Y-113183726D01*
X137593333Y-113183726D02*
X137526666Y-113150393D01*
X137526666Y-113150393D02*
X137493333Y-113117060D01*
X138726666Y-112450393D02*
X138126666Y-113350393D01*
X138959999Y-113183726D02*
X138959999Y-112483726D01*
X138959999Y-112483726D02*
X139193333Y-112983726D01*
X139193333Y-112983726D02*
X139426666Y-112483726D01*
X139426666Y-112483726D02*
X139426666Y-113183726D01*
X139659999Y-112483726D02*
X140059999Y-112483726D01*
X139859999Y-113183726D02*
X139859999Y-112483726D01*
X140693332Y-113117060D02*
X140659999Y-113150393D01*
X140659999Y-113150393D02*
X140559999Y-113183726D01*
X140559999Y-113183726D02*
X140493332Y-113183726D01*
X140493332Y-113183726D02*
X140393332Y-113150393D01*
X140393332Y-113150393D02*
X140326666Y-113083726D01*
X140326666Y-113083726D02*
X140293332Y-113017060D01*
X140293332Y-113017060D02*
X140259999Y-112883726D01*
X140259999Y-112883726D02*
X140259999Y-112783726D01*
X140259999Y-112783726D02*
X140293332Y-112650393D01*
X140293332Y-112650393D02*
X140326666Y-112583726D01*
X140326666Y-112583726D02*
X140393332Y-112517060D01*
X140393332Y-112517060D02*
X140493332Y-112483726D01*
X140493332Y-112483726D02*
X140559999Y-112483726D01*
X140559999Y-112483726D02*
X140659999Y-112517060D01*
X140659999Y-112517060D02*
X140693332Y-112550393D01*
X140993332Y-113183726D02*
X140993332Y-112483726D01*
X141393332Y-113183726D02*
X141093332Y-112783726D01*
X141393332Y-112483726D02*
X140993332Y-112883726D01*
X155719999Y-123277060D02*
X155686666Y-123310393D01*
X155686666Y-123310393D02*
X155586666Y-123343726D01*
X155586666Y-123343726D02*
X155519999Y-123343726D01*
X155519999Y-123343726D02*
X155419999Y-123310393D01*
X155419999Y-123310393D02*
X155353333Y-123243726D01*
X155353333Y-123243726D02*
X155319999Y-123177060D01*
X155319999Y-123177060D02*
X155286666Y-123043726D01*
X155286666Y-123043726D02*
X155286666Y-122943726D01*
X155286666Y-122943726D02*
X155319999Y-122810393D01*
X155319999Y-122810393D02*
X155353333Y-122743726D01*
X155353333Y-122743726D02*
X155419999Y-122677060D01*
X155419999Y-122677060D02*
X155519999Y-122643726D01*
X155519999Y-122643726D02*
X155586666Y-122643726D01*
X155586666Y-122643726D02*
X155686666Y-122677060D01*
X155686666Y-122677060D02*
X155719999Y-122710393D01*
X156353333Y-123343726D02*
X156019999Y-123343726D01*
X156019999Y-123343726D02*
X156019999Y-122643726D01*
X156586666Y-123343726D02*
X156586666Y-122643726D01*
X156986666Y-123343726D02*
X156686666Y-122943726D01*
X156986666Y-122643726D02*
X156586666Y-123043726D01*
X153853333Y-97277060D02*
X153786666Y-97243726D01*
X153786666Y-97243726D02*
X153686666Y-97243726D01*
X153686666Y-97243726D02*
X153586666Y-97277060D01*
X153586666Y-97277060D02*
X153520000Y-97343726D01*
X153520000Y-97343726D02*
X153486666Y-97410393D01*
X153486666Y-97410393D02*
X153453333Y-97543726D01*
X153453333Y-97543726D02*
X153453333Y-97643726D01*
X153453333Y-97643726D02*
X153486666Y-97777060D01*
X153486666Y-97777060D02*
X153520000Y-97843726D01*
X153520000Y-97843726D02*
X153586666Y-97910393D01*
X153586666Y-97910393D02*
X153686666Y-97943726D01*
X153686666Y-97943726D02*
X153753333Y-97943726D01*
X153753333Y-97943726D02*
X153853333Y-97910393D01*
X153853333Y-97910393D02*
X153886666Y-97877060D01*
X153886666Y-97877060D02*
X153886666Y-97643726D01*
X153886666Y-97643726D02*
X153753333Y-97643726D01*
X154186666Y-97943726D02*
X154186666Y-97243726D01*
X154186666Y-97243726D02*
X154453333Y-97243726D01*
X154453333Y-97243726D02*
X154520000Y-97277060D01*
X154520000Y-97277060D02*
X154553333Y-97310393D01*
X154553333Y-97310393D02*
X154586666Y-97377060D01*
X154586666Y-97377060D02*
X154586666Y-97477060D01*
X154586666Y-97477060D02*
X154553333Y-97543726D01*
X154553333Y-97543726D02*
X154520000Y-97577060D01*
X154520000Y-97577060D02*
X154453333Y-97610393D01*
X154453333Y-97610393D02*
X154186666Y-97610393D01*
X154886666Y-97943726D02*
X154886666Y-97243726D01*
X155353333Y-97243726D02*
X155486666Y-97243726D01*
X155486666Y-97243726D02*
X155553333Y-97277060D01*
X155553333Y-97277060D02*
X155619999Y-97343726D01*
X155619999Y-97343726D02*
X155653333Y-97477060D01*
X155653333Y-97477060D02*
X155653333Y-97710393D01*
X155653333Y-97710393D02*
X155619999Y-97843726D01*
X155619999Y-97843726D02*
X155553333Y-97910393D01*
X155553333Y-97910393D02*
X155486666Y-97943726D01*
X155486666Y-97943726D02*
X155353333Y-97943726D01*
X155353333Y-97943726D02*
X155286666Y-97910393D01*
X155286666Y-97910393D02*
X155219999Y-97843726D01*
X155219999Y-97843726D02*
X155186666Y-97710393D01*
X155186666Y-97710393D02*
X155186666Y-97477060D01*
X155186666Y-97477060D02*
X155219999Y-97343726D01*
X155219999Y-97343726D02*
X155286666Y-97277060D01*
X155286666Y-97277060D02*
X155353333Y-97243726D01*
X156319999Y-97943726D02*
X155919999Y-97943726D01*
X156119999Y-97943726D02*
X156119999Y-97243726D01*
X156119999Y-97243726D02*
X156053332Y-97343726D01*
X156053332Y-97343726D02*
X155986666Y-97410393D01*
X155986666Y-97410393D02*
X155919999Y-97443726D01*
X156719999Y-97543726D02*
X156653333Y-97510393D01*
X156653333Y-97510393D02*
X156619999Y-97477060D01*
X156619999Y-97477060D02*
X156586666Y-97410393D01*
X156586666Y-97410393D02*
X156586666Y-97377060D01*
X156586666Y-97377060D02*
X156619999Y-97310393D01*
X156619999Y-97310393D02*
X156653333Y-97277060D01*
X156653333Y-97277060D02*
X156719999Y-97243726D01*
X156719999Y-97243726D02*
X156853333Y-97243726D01*
X156853333Y-97243726D02*
X156919999Y-97277060D01*
X156919999Y-97277060D02*
X156953333Y-97310393D01*
X156953333Y-97310393D02*
X156986666Y-97377060D01*
X156986666Y-97377060D02*
X156986666Y-97410393D01*
X156986666Y-97410393D02*
X156953333Y-97477060D01*
X156953333Y-97477060D02*
X156919999Y-97510393D01*
X156919999Y-97510393D02*
X156853333Y-97543726D01*
X156853333Y-97543726D02*
X156719999Y-97543726D01*
X156719999Y-97543726D02*
X156653333Y-97577060D01*
X156653333Y-97577060D02*
X156619999Y-97610393D01*
X156619999Y-97610393D02*
X156586666Y-97677060D01*
X156586666Y-97677060D02*
X156586666Y-97810393D01*
X156586666Y-97810393D02*
X156619999Y-97877060D01*
X156619999Y-97877060D02*
X156653333Y-97910393D01*
X156653333Y-97910393D02*
X156719999Y-97943726D01*
X156719999Y-97943726D02*
X156853333Y-97943726D01*
X156853333Y-97943726D02*
X156919999Y-97910393D01*
X156919999Y-97910393D02*
X156953333Y-97877060D01*
X156953333Y-97877060D02*
X156986666Y-97810393D01*
X156986666Y-97810393D02*
X156986666Y-97677060D01*
X156986666Y-97677060D02*
X156953333Y-97610393D01*
X156953333Y-97610393D02*
X156919999Y-97577060D01*
X156919999Y-97577060D02*
X156853333Y-97543726D01*
X153853333Y-94737060D02*
X153786666Y-94703726D01*
X153786666Y-94703726D02*
X153686666Y-94703726D01*
X153686666Y-94703726D02*
X153586666Y-94737060D01*
X153586666Y-94737060D02*
X153520000Y-94803726D01*
X153520000Y-94803726D02*
X153486666Y-94870393D01*
X153486666Y-94870393D02*
X153453333Y-95003726D01*
X153453333Y-95003726D02*
X153453333Y-95103726D01*
X153453333Y-95103726D02*
X153486666Y-95237060D01*
X153486666Y-95237060D02*
X153520000Y-95303726D01*
X153520000Y-95303726D02*
X153586666Y-95370393D01*
X153586666Y-95370393D02*
X153686666Y-95403726D01*
X153686666Y-95403726D02*
X153753333Y-95403726D01*
X153753333Y-95403726D02*
X153853333Y-95370393D01*
X153853333Y-95370393D02*
X153886666Y-95337060D01*
X153886666Y-95337060D02*
X153886666Y-95103726D01*
X153886666Y-95103726D02*
X153753333Y-95103726D01*
X154186666Y-95403726D02*
X154186666Y-94703726D01*
X154186666Y-94703726D02*
X154453333Y-94703726D01*
X154453333Y-94703726D02*
X154520000Y-94737060D01*
X154520000Y-94737060D02*
X154553333Y-94770393D01*
X154553333Y-94770393D02*
X154586666Y-94837060D01*
X154586666Y-94837060D02*
X154586666Y-94937060D01*
X154586666Y-94937060D02*
X154553333Y-95003726D01*
X154553333Y-95003726D02*
X154520000Y-95037060D01*
X154520000Y-95037060D02*
X154453333Y-95070393D01*
X154453333Y-95070393D02*
X154186666Y-95070393D01*
X154886666Y-95403726D02*
X154886666Y-94703726D01*
X155353333Y-94703726D02*
X155486666Y-94703726D01*
X155486666Y-94703726D02*
X155553333Y-94737060D01*
X155553333Y-94737060D02*
X155619999Y-94803726D01*
X155619999Y-94803726D02*
X155653333Y-94937060D01*
X155653333Y-94937060D02*
X155653333Y-95170393D01*
X155653333Y-95170393D02*
X155619999Y-95303726D01*
X155619999Y-95303726D02*
X155553333Y-95370393D01*
X155553333Y-95370393D02*
X155486666Y-95403726D01*
X155486666Y-95403726D02*
X155353333Y-95403726D01*
X155353333Y-95403726D02*
X155286666Y-95370393D01*
X155286666Y-95370393D02*
X155219999Y-95303726D01*
X155219999Y-95303726D02*
X155186666Y-95170393D01*
X155186666Y-95170393D02*
X155186666Y-94937060D01*
X155186666Y-94937060D02*
X155219999Y-94803726D01*
X155219999Y-94803726D02*
X155286666Y-94737060D01*
X155286666Y-94737060D02*
X155353333Y-94703726D01*
X156319999Y-95403726D02*
X155919999Y-95403726D01*
X156119999Y-95403726D02*
X156119999Y-94703726D01*
X156119999Y-94703726D02*
X156053332Y-94803726D01*
X156053332Y-94803726D02*
X155986666Y-94870393D01*
X155986666Y-94870393D02*
X155919999Y-94903726D01*
X156653333Y-95403726D02*
X156786666Y-95403726D01*
X156786666Y-95403726D02*
X156853333Y-95370393D01*
X156853333Y-95370393D02*
X156886666Y-95337060D01*
X156886666Y-95337060D02*
X156953333Y-95237060D01*
X156953333Y-95237060D02*
X156986666Y-95103726D01*
X156986666Y-95103726D02*
X156986666Y-94837060D01*
X156986666Y-94837060D02*
X156953333Y-94770393D01*
X156953333Y-94770393D02*
X156919999Y-94737060D01*
X156919999Y-94737060D02*
X156853333Y-94703726D01*
X156853333Y-94703726D02*
X156719999Y-94703726D01*
X156719999Y-94703726D02*
X156653333Y-94737060D01*
X156653333Y-94737060D02*
X156619999Y-94770393D01*
X156619999Y-94770393D02*
X156586666Y-94837060D01*
X156586666Y-94837060D02*
X156586666Y-95003726D01*
X156586666Y-95003726D02*
X156619999Y-95070393D01*
X156619999Y-95070393D02*
X156653333Y-95103726D01*
X156653333Y-95103726D02*
X156719999Y-95137060D01*
X156719999Y-95137060D02*
X156853333Y-95137060D01*
X156853333Y-95137060D02*
X156919999Y-95103726D01*
X156919999Y-95103726D02*
X156953333Y-95070393D01*
X156953333Y-95070393D02*
X156986666Y-95003726D01*
X150353334Y-115057060D02*
X150286667Y-115023726D01*
X150286667Y-115023726D02*
X150186667Y-115023726D01*
X150186667Y-115023726D02*
X150086667Y-115057060D01*
X150086667Y-115057060D02*
X150020001Y-115123726D01*
X150020001Y-115123726D02*
X149986667Y-115190393D01*
X149986667Y-115190393D02*
X149953334Y-115323726D01*
X149953334Y-115323726D02*
X149953334Y-115423726D01*
X149953334Y-115423726D02*
X149986667Y-115557060D01*
X149986667Y-115557060D02*
X150020001Y-115623726D01*
X150020001Y-115623726D02*
X150086667Y-115690393D01*
X150086667Y-115690393D02*
X150186667Y-115723726D01*
X150186667Y-115723726D02*
X150253334Y-115723726D01*
X150253334Y-115723726D02*
X150353334Y-115690393D01*
X150353334Y-115690393D02*
X150386667Y-115657060D01*
X150386667Y-115657060D02*
X150386667Y-115423726D01*
X150386667Y-115423726D02*
X150253334Y-115423726D01*
X150686667Y-115723726D02*
X150686667Y-115023726D01*
X150686667Y-115023726D02*
X150953334Y-115023726D01*
X150953334Y-115023726D02*
X151020001Y-115057060D01*
X151020001Y-115057060D02*
X151053334Y-115090393D01*
X151053334Y-115090393D02*
X151086667Y-115157060D01*
X151086667Y-115157060D02*
X151086667Y-115257060D01*
X151086667Y-115257060D02*
X151053334Y-115323726D01*
X151053334Y-115323726D02*
X151020001Y-115357060D01*
X151020001Y-115357060D02*
X150953334Y-115390393D01*
X150953334Y-115390393D02*
X150686667Y-115390393D01*
X151386667Y-115723726D02*
X151386667Y-115023726D01*
X151853334Y-115023726D02*
X151986667Y-115023726D01*
X151986667Y-115023726D02*
X152053334Y-115057060D01*
X152053334Y-115057060D02*
X152120000Y-115123726D01*
X152120000Y-115123726D02*
X152153334Y-115257060D01*
X152153334Y-115257060D02*
X152153334Y-115490393D01*
X152153334Y-115490393D02*
X152120000Y-115623726D01*
X152120000Y-115623726D02*
X152053334Y-115690393D01*
X152053334Y-115690393D02*
X151986667Y-115723726D01*
X151986667Y-115723726D02*
X151853334Y-115723726D01*
X151853334Y-115723726D02*
X151786667Y-115690393D01*
X151786667Y-115690393D02*
X151720000Y-115623726D01*
X151720000Y-115623726D02*
X151686667Y-115490393D01*
X151686667Y-115490393D02*
X151686667Y-115257060D01*
X151686667Y-115257060D02*
X151720000Y-115123726D01*
X151720000Y-115123726D02*
X151786667Y-115057060D01*
X151786667Y-115057060D02*
X151853334Y-115023726D01*
X152820000Y-115723726D02*
X152420000Y-115723726D01*
X152620000Y-115723726D02*
X152620000Y-115023726D01*
X152620000Y-115023726D02*
X152553333Y-115123726D01*
X152553333Y-115123726D02*
X152486667Y-115190393D01*
X152486667Y-115190393D02*
X152420000Y-115223726D01*
X153453334Y-115023726D02*
X153120000Y-115023726D01*
X153120000Y-115023726D02*
X153086667Y-115357060D01*
X153086667Y-115357060D02*
X153120000Y-115323726D01*
X153120000Y-115323726D02*
X153186667Y-115290393D01*
X153186667Y-115290393D02*
X153353334Y-115290393D01*
X153353334Y-115290393D02*
X153420000Y-115323726D01*
X153420000Y-115323726D02*
X153453334Y-115357060D01*
X153453334Y-115357060D02*
X153486667Y-115423726D01*
X153486667Y-115423726D02*
X153486667Y-115590393D01*
X153486667Y-115590393D02*
X153453334Y-115657060D01*
X153453334Y-115657060D02*
X153420000Y-115690393D01*
X153420000Y-115690393D02*
X153353334Y-115723726D01*
X153353334Y-115723726D02*
X153186667Y-115723726D01*
X153186667Y-115723726D02*
X153120000Y-115690393D01*
X153120000Y-115690393D02*
X153086667Y-115657060D01*
X154286667Y-114990393D02*
X153686667Y-115890393D01*
X154520000Y-115723726D02*
X154520000Y-115023726D01*
X154520000Y-115023726D02*
X154753334Y-115523726D01*
X154753334Y-115523726D02*
X154986667Y-115023726D01*
X154986667Y-115023726D02*
X154986667Y-115723726D01*
X155220000Y-115023726D02*
X155620000Y-115023726D01*
X155420000Y-115723726D02*
X155420000Y-115023726D01*
X155853333Y-115723726D02*
X155853333Y-115023726D01*
X155853333Y-115023726D02*
X156020000Y-115023726D01*
X156020000Y-115023726D02*
X156120000Y-115057060D01*
X156120000Y-115057060D02*
X156186667Y-115123726D01*
X156186667Y-115123726D02*
X156220000Y-115190393D01*
X156220000Y-115190393D02*
X156253333Y-115323726D01*
X156253333Y-115323726D02*
X156253333Y-115423726D01*
X156253333Y-115423726D02*
X156220000Y-115557060D01*
X156220000Y-115557060D02*
X156186667Y-115623726D01*
X156186667Y-115623726D02*
X156120000Y-115690393D01*
X156120000Y-115690393D02*
X156020000Y-115723726D01*
X156020000Y-115723726D02*
X155853333Y-115723726D01*
X156686667Y-115023726D02*
X156820000Y-115023726D01*
X156820000Y-115023726D02*
X156886667Y-115057060D01*
X156886667Y-115057060D02*
X156953333Y-115123726D01*
X156953333Y-115123726D02*
X156986667Y-115257060D01*
X156986667Y-115257060D02*
X156986667Y-115490393D01*
X156986667Y-115490393D02*
X156953333Y-115623726D01*
X156953333Y-115623726D02*
X156886667Y-115690393D01*
X156886667Y-115690393D02*
X156820000Y-115723726D01*
X156820000Y-115723726D02*
X156686667Y-115723726D01*
X156686667Y-115723726D02*
X156620000Y-115690393D01*
X156620000Y-115690393D02*
X156553333Y-115623726D01*
X156553333Y-115623726D02*
X156520000Y-115490393D01*
X156520000Y-115490393D02*
X156520000Y-115257060D01*
X156520000Y-115257060D02*
X156553333Y-115123726D01*
X156553333Y-115123726D02*
X156620000Y-115057060D01*
X156620000Y-115057060D02*
X156686667Y-115023726D01*
X134793333Y-92197060D02*
X134726666Y-92163726D01*
X134726666Y-92163726D02*
X134626666Y-92163726D01*
X134626666Y-92163726D02*
X134526666Y-92197060D01*
X134526666Y-92197060D02*
X134460000Y-92263726D01*
X134460000Y-92263726D02*
X134426666Y-92330393D01*
X134426666Y-92330393D02*
X134393333Y-92463726D01*
X134393333Y-92463726D02*
X134393333Y-92563726D01*
X134393333Y-92563726D02*
X134426666Y-92697060D01*
X134426666Y-92697060D02*
X134460000Y-92763726D01*
X134460000Y-92763726D02*
X134526666Y-92830393D01*
X134526666Y-92830393D02*
X134626666Y-92863726D01*
X134626666Y-92863726D02*
X134693333Y-92863726D01*
X134693333Y-92863726D02*
X134793333Y-92830393D01*
X134793333Y-92830393D02*
X134826666Y-92797060D01*
X134826666Y-92797060D02*
X134826666Y-92563726D01*
X134826666Y-92563726D02*
X134693333Y-92563726D01*
X135126666Y-92863726D02*
X135126666Y-92163726D01*
X135126666Y-92163726D02*
X135393333Y-92163726D01*
X135393333Y-92163726D02*
X135460000Y-92197060D01*
X135460000Y-92197060D02*
X135493333Y-92230393D01*
X135493333Y-92230393D02*
X135526666Y-92297060D01*
X135526666Y-92297060D02*
X135526666Y-92397060D01*
X135526666Y-92397060D02*
X135493333Y-92463726D01*
X135493333Y-92463726D02*
X135460000Y-92497060D01*
X135460000Y-92497060D02*
X135393333Y-92530393D01*
X135393333Y-92530393D02*
X135126666Y-92530393D01*
X135826666Y-92863726D02*
X135826666Y-92163726D01*
X136293333Y-92163726D02*
X136426666Y-92163726D01*
X136426666Y-92163726D02*
X136493333Y-92197060D01*
X136493333Y-92197060D02*
X136559999Y-92263726D01*
X136559999Y-92263726D02*
X136593333Y-92397060D01*
X136593333Y-92397060D02*
X136593333Y-92630393D01*
X136593333Y-92630393D02*
X136559999Y-92763726D01*
X136559999Y-92763726D02*
X136493333Y-92830393D01*
X136493333Y-92830393D02*
X136426666Y-92863726D01*
X136426666Y-92863726D02*
X136293333Y-92863726D01*
X136293333Y-92863726D02*
X136226666Y-92830393D01*
X136226666Y-92830393D02*
X136159999Y-92763726D01*
X136159999Y-92763726D02*
X136126666Y-92630393D01*
X136126666Y-92630393D02*
X136126666Y-92397060D01*
X136126666Y-92397060D02*
X136159999Y-92263726D01*
X136159999Y-92263726D02*
X136226666Y-92197060D01*
X136226666Y-92197060D02*
X136293333Y-92163726D01*
X136826666Y-92163726D02*
X137259999Y-92163726D01*
X137259999Y-92163726D02*
X137026666Y-92430393D01*
X137026666Y-92430393D02*
X137126666Y-92430393D01*
X137126666Y-92430393D02*
X137193332Y-92463726D01*
X137193332Y-92463726D02*
X137226666Y-92497060D01*
X137226666Y-92497060D02*
X137259999Y-92563726D01*
X137259999Y-92563726D02*
X137259999Y-92730393D01*
X137259999Y-92730393D02*
X137226666Y-92797060D01*
X137226666Y-92797060D02*
X137193332Y-92830393D01*
X137193332Y-92830393D02*
X137126666Y-92863726D01*
X137126666Y-92863726D02*
X136926666Y-92863726D01*
X136926666Y-92863726D02*
X136859999Y-92830393D01*
X136859999Y-92830393D02*
X136826666Y-92797060D01*
X137526666Y-92230393D02*
X137559999Y-92197060D01*
X137559999Y-92197060D02*
X137626666Y-92163726D01*
X137626666Y-92163726D02*
X137793333Y-92163726D01*
X137793333Y-92163726D02*
X137859999Y-92197060D01*
X137859999Y-92197060D02*
X137893333Y-92230393D01*
X137893333Y-92230393D02*
X137926666Y-92297060D01*
X137926666Y-92297060D02*
X137926666Y-92363726D01*
X137926666Y-92363726D02*
X137893333Y-92463726D01*
X137893333Y-92463726D02*
X137493333Y-92863726D01*
X137493333Y-92863726D02*
X137926666Y-92863726D01*
X134793333Y-94737060D02*
X134726666Y-94703726D01*
X134726666Y-94703726D02*
X134626666Y-94703726D01*
X134626666Y-94703726D02*
X134526666Y-94737060D01*
X134526666Y-94737060D02*
X134460000Y-94803726D01*
X134460000Y-94803726D02*
X134426666Y-94870393D01*
X134426666Y-94870393D02*
X134393333Y-95003726D01*
X134393333Y-95003726D02*
X134393333Y-95103726D01*
X134393333Y-95103726D02*
X134426666Y-95237060D01*
X134426666Y-95237060D02*
X134460000Y-95303726D01*
X134460000Y-95303726D02*
X134526666Y-95370393D01*
X134526666Y-95370393D02*
X134626666Y-95403726D01*
X134626666Y-95403726D02*
X134693333Y-95403726D01*
X134693333Y-95403726D02*
X134793333Y-95370393D01*
X134793333Y-95370393D02*
X134826666Y-95337060D01*
X134826666Y-95337060D02*
X134826666Y-95103726D01*
X134826666Y-95103726D02*
X134693333Y-95103726D01*
X135126666Y-95403726D02*
X135126666Y-94703726D01*
X135126666Y-94703726D02*
X135393333Y-94703726D01*
X135393333Y-94703726D02*
X135460000Y-94737060D01*
X135460000Y-94737060D02*
X135493333Y-94770393D01*
X135493333Y-94770393D02*
X135526666Y-94837060D01*
X135526666Y-94837060D02*
X135526666Y-94937060D01*
X135526666Y-94937060D02*
X135493333Y-95003726D01*
X135493333Y-95003726D02*
X135460000Y-95037060D01*
X135460000Y-95037060D02*
X135393333Y-95070393D01*
X135393333Y-95070393D02*
X135126666Y-95070393D01*
X135826666Y-95403726D02*
X135826666Y-94703726D01*
X136293333Y-94703726D02*
X136426666Y-94703726D01*
X136426666Y-94703726D02*
X136493333Y-94737060D01*
X136493333Y-94737060D02*
X136559999Y-94803726D01*
X136559999Y-94803726D02*
X136593333Y-94937060D01*
X136593333Y-94937060D02*
X136593333Y-95170393D01*
X136593333Y-95170393D02*
X136559999Y-95303726D01*
X136559999Y-95303726D02*
X136493333Y-95370393D01*
X136493333Y-95370393D02*
X136426666Y-95403726D01*
X136426666Y-95403726D02*
X136293333Y-95403726D01*
X136293333Y-95403726D02*
X136226666Y-95370393D01*
X136226666Y-95370393D02*
X136159999Y-95303726D01*
X136159999Y-95303726D02*
X136126666Y-95170393D01*
X136126666Y-95170393D02*
X136126666Y-94937060D01*
X136126666Y-94937060D02*
X136159999Y-94803726D01*
X136159999Y-94803726D02*
X136226666Y-94737060D01*
X136226666Y-94737060D02*
X136293333Y-94703726D01*
X136826666Y-94703726D02*
X137259999Y-94703726D01*
X137259999Y-94703726D02*
X137026666Y-94970393D01*
X137026666Y-94970393D02*
X137126666Y-94970393D01*
X137126666Y-94970393D02*
X137193332Y-95003726D01*
X137193332Y-95003726D02*
X137226666Y-95037060D01*
X137226666Y-95037060D02*
X137259999Y-95103726D01*
X137259999Y-95103726D02*
X137259999Y-95270393D01*
X137259999Y-95270393D02*
X137226666Y-95337060D01*
X137226666Y-95337060D02*
X137193332Y-95370393D01*
X137193332Y-95370393D02*
X137126666Y-95403726D01*
X137126666Y-95403726D02*
X136926666Y-95403726D01*
X136926666Y-95403726D02*
X136859999Y-95370393D01*
X136859999Y-95370393D02*
X136826666Y-95337060D01*
X137493333Y-94703726D02*
X137926666Y-94703726D01*
X137926666Y-94703726D02*
X137693333Y-94970393D01*
X137693333Y-94970393D02*
X137793333Y-94970393D01*
X137793333Y-94970393D02*
X137859999Y-95003726D01*
X137859999Y-95003726D02*
X137893333Y-95037060D01*
X137893333Y-95037060D02*
X137926666Y-95103726D01*
X137926666Y-95103726D02*
X137926666Y-95270393D01*
X137926666Y-95270393D02*
X137893333Y-95337060D01*
X137893333Y-95337060D02*
X137859999Y-95370393D01*
X137859999Y-95370393D02*
X137793333Y-95403726D01*
X137793333Y-95403726D02*
X137593333Y-95403726D01*
X137593333Y-95403726D02*
X137526666Y-95370393D01*
X137526666Y-95370393D02*
X137493333Y-95337060D01*
X134793333Y-87117060D02*
X134726666Y-87083726D01*
X134726666Y-87083726D02*
X134626666Y-87083726D01*
X134626666Y-87083726D02*
X134526666Y-87117060D01*
X134526666Y-87117060D02*
X134460000Y-87183726D01*
X134460000Y-87183726D02*
X134426666Y-87250393D01*
X134426666Y-87250393D02*
X134393333Y-87383726D01*
X134393333Y-87383726D02*
X134393333Y-87483726D01*
X134393333Y-87483726D02*
X134426666Y-87617060D01*
X134426666Y-87617060D02*
X134460000Y-87683726D01*
X134460000Y-87683726D02*
X134526666Y-87750393D01*
X134526666Y-87750393D02*
X134626666Y-87783726D01*
X134626666Y-87783726D02*
X134693333Y-87783726D01*
X134693333Y-87783726D02*
X134793333Y-87750393D01*
X134793333Y-87750393D02*
X134826666Y-87717060D01*
X134826666Y-87717060D02*
X134826666Y-87483726D01*
X134826666Y-87483726D02*
X134693333Y-87483726D01*
X135126666Y-87783726D02*
X135126666Y-87083726D01*
X135126666Y-87083726D02*
X135393333Y-87083726D01*
X135393333Y-87083726D02*
X135460000Y-87117060D01*
X135460000Y-87117060D02*
X135493333Y-87150393D01*
X135493333Y-87150393D02*
X135526666Y-87217060D01*
X135526666Y-87217060D02*
X135526666Y-87317060D01*
X135526666Y-87317060D02*
X135493333Y-87383726D01*
X135493333Y-87383726D02*
X135460000Y-87417060D01*
X135460000Y-87417060D02*
X135393333Y-87450393D01*
X135393333Y-87450393D02*
X135126666Y-87450393D01*
X135826666Y-87783726D02*
X135826666Y-87083726D01*
X136293333Y-87083726D02*
X136426666Y-87083726D01*
X136426666Y-87083726D02*
X136493333Y-87117060D01*
X136493333Y-87117060D02*
X136559999Y-87183726D01*
X136559999Y-87183726D02*
X136593333Y-87317060D01*
X136593333Y-87317060D02*
X136593333Y-87550393D01*
X136593333Y-87550393D02*
X136559999Y-87683726D01*
X136559999Y-87683726D02*
X136493333Y-87750393D01*
X136493333Y-87750393D02*
X136426666Y-87783726D01*
X136426666Y-87783726D02*
X136293333Y-87783726D01*
X136293333Y-87783726D02*
X136226666Y-87750393D01*
X136226666Y-87750393D02*
X136159999Y-87683726D01*
X136159999Y-87683726D02*
X136126666Y-87550393D01*
X136126666Y-87550393D02*
X136126666Y-87317060D01*
X136126666Y-87317060D02*
X136159999Y-87183726D01*
X136159999Y-87183726D02*
X136226666Y-87117060D01*
X136226666Y-87117060D02*
X136293333Y-87083726D01*
X136826666Y-87083726D02*
X137259999Y-87083726D01*
X137259999Y-87083726D02*
X137026666Y-87350393D01*
X137026666Y-87350393D02*
X137126666Y-87350393D01*
X137126666Y-87350393D02*
X137193332Y-87383726D01*
X137193332Y-87383726D02*
X137226666Y-87417060D01*
X137226666Y-87417060D02*
X137259999Y-87483726D01*
X137259999Y-87483726D02*
X137259999Y-87650393D01*
X137259999Y-87650393D02*
X137226666Y-87717060D01*
X137226666Y-87717060D02*
X137193332Y-87750393D01*
X137193332Y-87750393D02*
X137126666Y-87783726D01*
X137126666Y-87783726D02*
X136926666Y-87783726D01*
X136926666Y-87783726D02*
X136859999Y-87750393D01*
X136859999Y-87750393D02*
X136826666Y-87717060D01*
X137859999Y-87317060D02*
X137859999Y-87783726D01*
X137693333Y-87050393D02*
X137526666Y-87550393D01*
X137526666Y-87550393D02*
X137959999Y-87550393D01*
%TO.C,R3*%
X115489380Y-116614666D02*
X115013190Y-116947999D01*
X115489380Y-117186094D02*
X114489380Y-117186094D01*
X114489380Y-117186094D02*
X114489380Y-116805142D01*
X114489380Y-116805142D02*
X114537000Y-116709904D01*
X114537000Y-116709904D02*
X114584619Y-116662285D01*
X114584619Y-116662285D02*
X114679857Y-116614666D01*
X114679857Y-116614666D02*
X114822714Y-116614666D01*
X114822714Y-116614666D02*
X114917952Y-116662285D01*
X114917952Y-116662285D02*
X114965571Y-116709904D01*
X114965571Y-116709904D02*
X115013190Y-116805142D01*
X115013190Y-116805142D02*
X115013190Y-117186094D01*
X114489380Y-116281332D02*
X114489380Y-115662285D01*
X114489380Y-115662285D02*
X114870333Y-115995618D01*
X114870333Y-115995618D02*
X114870333Y-115852761D01*
X114870333Y-115852761D02*
X114917952Y-115757523D01*
X114917952Y-115757523D02*
X114965571Y-115709904D01*
X114965571Y-115709904D02*
X115060809Y-115662285D01*
X115060809Y-115662285D02*
X115298904Y-115662285D01*
X115298904Y-115662285D02*
X115394142Y-115709904D01*
X115394142Y-115709904D02*
X115441761Y-115757523D01*
X115441761Y-115757523D02*
X115489380Y-115852761D01*
X115489380Y-115852761D02*
X115489380Y-116138475D01*
X115489380Y-116138475D02*
X115441761Y-116233713D01*
X115441761Y-116233713D02*
X115394142Y-116281332D01*
%TO.C,U4*%
X172258095Y-108867380D02*
X172258095Y-109676904D01*
X172258095Y-109676904D02*
X172305714Y-109772142D01*
X172305714Y-109772142D02*
X172353333Y-109819761D01*
X172353333Y-109819761D02*
X172448571Y-109867380D01*
X172448571Y-109867380D02*
X172639047Y-109867380D01*
X172639047Y-109867380D02*
X172734285Y-109819761D01*
X172734285Y-109819761D02*
X172781904Y-109772142D01*
X172781904Y-109772142D02*
X172829523Y-109676904D01*
X172829523Y-109676904D02*
X172829523Y-108867380D01*
X173734285Y-109200714D02*
X173734285Y-109867380D01*
X173496190Y-108819761D02*
X173258095Y-109534047D01*
X173258095Y-109534047D02*
X173877142Y-109534047D01*
%TO.C,R10*%
X179905380Y-98174857D02*
X179429190Y-98508190D01*
X179905380Y-98746285D02*
X178905380Y-98746285D01*
X178905380Y-98746285D02*
X178905380Y-98365333D01*
X178905380Y-98365333D02*
X178953000Y-98270095D01*
X178953000Y-98270095D02*
X179000619Y-98222476D01*
X179000619Y-98222476D02*
X179095857Y-98174857D01*
X179095857Y-98174857D02*
X179238714Y-98174857D01*
X179238714Y-98174857D02*
X179333952Y-98222476D01*
X179333952Y-98222476D02*
X179381571Y-98270095D01*
X179381571Y-98270095D02*
X179429190Y-98365333D01*
X179429190Y-98365333D02*
X179429190Y-98746285D01*
X179905380Y-97222476D02*
X179905380Y-97793904D01*
X179905380Y-97508190D02*
X178905380Y-97508190D01*
X178905380Y-97508190D02*
X179048238Y-97603428D01*
X179048238Y-97603428D02*
X179143476Y-97698666D01*
X179143476Y-97698666D02*
X179191095Y-97793904D01*
X178905380Y-96603428D02*
X178905380Y-96508190D01*
X178905380Y-96508190D02*
X178953000Y-96412952D01*
X178953000Y-96412952D02*
X179000619Y-96365333D01*
X179000619Y-96365333D02*
X179095857Y-96317714D01*
X179095857Y-96317714D02*
X179286333Y-96270095D01*
X179286333Y-96270095D02*
X179524428Y-96270095D01*
X179524428Y-96270095D02*
X179714904Y-96317714D01*
X179714904Y-96317714D02*
X179810142Y-96365333D01*
X179810142Y-96365333D02*
X179857761Y-96412952D01*
X179857761Y-96412952D02*
X179905380Y-96508190D01*
X179905380Y-96508190D02*
X179905380Y-96603428D01*
X179905380Y-96603428D02*
X179857761Y-96698666D01*
X179857761Y-96698666D02*
X179810142Y-96746285D01*
X179810142Y-96746285D02*
X179714904Y-96793904D01*
X179714904Y-96793904D02*
X179524428Y-96841523D01*
X179524428Y-96841523D02*
X179286333Y-96841523D01*
X179286333Y-96841523D02*
X179095857Y-96793904D01*
X179095857Y-96793904D02*
X179000619Y-96746285D01*
X179000619Y-96746285D02*
X178953000Y-96698666D01*
X178953000Y-96698666D02*
X178905380Y-96603428D01*
%TO.C,R4*%
X129457380Y-97026666D02*
X128981190Y-97359999D01*
X129457380Y-97598094D02*
X128457380Y-97598094D01*
X128457380Y-97598094D02*
X128457380Y-97217142D01*
X128457380Y-97217142D02*
X128505000Y-97121904D01*
X128505000Y-97121904D02*
X128552619Y-97074285D01*
X128552619Y-97074285D02*
X128647857Y-97026666D01*
X128647857Y-97026666D02*
X128790714Y-97026666D01*
X128790714Y-97026666D02*
X128885952Y-97074285D01*
X128885952Y-97074285D02*
X128933571Y-97121904D01*
X128933571Y-97121904D02*
X128981190Y-97217142D01*
X128981190Y-97217142D02*
X128981190Y-97598094D01*
X128790714Y-96169523D02*
X129457380Y-96169523D01*
X128409761Y-96407618D02*
X129124047Y-96645713D01*
X129124047Y-96645713D02*
X129124047Y-96026666D01*
%TO.C,U2*%
X121250095Y-107715380D02*
X121250095Y-108524904D01*
X121250095Y-108524904D02*
X121297714Y-108620142D01*
X121297714Y-108620142D02*
X121345333Y-108667761D01*
X121345333Y-108667761D02*
X121440571Y-108715380D01*
X121440571Y-108715380D02*
X121631047Y-108715380D01*
X121631047Y-108715380D02*
X121726285Y-108667761D01*
X121726285Y-108667761D02*
X121773904Y-108620142D01*
X121773904Y-108620142D02*
X121821523Y-108524904D01*
X121821523Y-108524904D02*
X121821523Y-107715380D01*
X122250095Y-107810619D02*
X122297714Y-107763000D01*
X122297714Y-107763000D02*
X122392952Y-107715380D01*
X122392952Y-107715380D02*
X122631047Y-107715380D01*
X122631047Y-107715380D02*
X122726285Y-107763000D01*
X122726285Y-107763000D02*
X122773904Y-107810619D01*
X122773904Y-107810619D02*
X122821523Y-107905857D01*
X122821523Y-107905857D02*
X122821523Y-108001095D01*
X122821523Y-108001095D02*
X122773904Y-108143952D01*
X122773904Y-108143952D02*
X122202476Y-108715380D01*
X122202476Y-108715380D02*
X122821523Y-108715380D01*
%TO.C,R11*%
X162907380Y-118392857D02*
X162431190Y-118726190D01*
X162907380Y-118964285D02*
X161907380Y-118964285D01*
X161907380Y-118964285D02*
X161907380Y-118583333D01*
X161907380Y-118583333D02*
X161955000Y-118488095D01*
X161955000Y-118488095D02*
X162002619Y-118440476D01*
X162002619Y-118440476D02*
X162097857Y-118392857D01*
X162097857Y-118392857D02*
X162240714Y-118392857D01*
X162240714Y-118392857D02*
X162335952Y-118440476D01*
X162335952Y-118440476D02*
X162383571Y-118488095D01*
X162383571Y-118488095D02*
X162431190Y-118583333D01*
X162431190Y-118583333D02*
X162431190Y-118964285D01*
X162907380Y-117440476D02*
X162907380Y-118011904D01*
X162907380Y-117726190D02*
X161907380Y-117726190D01*
X161907380Y-117726190D02*
X162050238Y-117821428D01*
X162050238Y-117821428D02*
X162145476Y-117916666D01*
X162145476Y-117916666D02*
X162193095Y-118011904D01*
X162907380Y-116488095D02*
X162907380Y-117059523D01*
X162907380Y-116773809D02*
X161907380Y-116773809D01*
X161907380Y-116773809D02*
X162050238Y-116869047D01*
X162050238Y-116869047D02*
X162145476Y-116964285D01*
X162145476Y-116964285D02*
X162193095Y-117059523D01*
%TO.C,BT2*%
X183753571Y-97045714D02*
X183801190Y-96902857D01*
X183801190Y-96902857D02*
X183848809Y-96855238D01*
X183848809Y-96855238D02*
X183944047Y-96807619D01*
X183944047Y-96807619D02*
X184086904Y-96807619D01*
X184086904Y-96807619D02*
X184182142Y-96855238D01*
X184182142Y-96855238D02*
X184229761Y-96902857D01*
X184229761Y-96902857D02*
X184277380Y-96998095D01*
X184277380Y-96998095D02*
X184277380Y-97379047D01*
X184277380Y-97379047D02*
X183277380Y-97379047D01*
X183277380Y-97379047D02*
X183277380Y-97045714D01*
X183277380Y-97045714D02*
X183325000Y-96950476D01*
X183325000Y-96950476D02*
X183372619Y-96902857D01*
X183372619Y-96902857D02*
X183467857Y-96855238D01*
X183467857Y-96855238D02*
X183563095Y-96855238D01*
X183563095Y-96855238D02*
X183658333Y-96902857D01*
X183658333Y-96902857D02*
X183705952Y-96950476D01*
X183705952Y-96950476D02*
X183753571Y-97045714D01*
X183753571Y-97045714D02*
X183753571Y-97379047D01*
X183277380Y-96521904D02*
X183277380Y-95950476D01*
X184277380Y-96236190D02*
X183277380Y-96236190D01*
X183372619Y-95664761D02*
X183325000Y-95617142D01*
X183325000Y-95617142D02*
X183277380Y-95521904D01*
X183277380Y-95521904D02*
X183277380Y-95283809D01*
X183277380Y-95283809D02*
X183325000Y-95188571D01*
X183325000Y-95188571D02*
X183372619Y-95140952D01*
X183372619Y-95140952D02*
X183467857Y-95093333D01*
X183467857Y-95093333D02*
X183563095Y-95093333D01*
X183563095Y-95093333D02*
X183705952Y-95140952D01*
X183705952Y-95140952D02*
X184277380Y-95712380D01*
X184277380Y-95712380D02*
X184277380Y-95093333D01*
%TO.C,R9*%
X166407380Y-117546666D02*
X165931190Y-117879999D01*
X166407380Y-118118094D02*
X165407380Y-118118094D01*
X165407380Y-118118094D02*
X165407380Y-117737142D01*
X165407380Y-117737142D02*
X165455000Y-117641904D01*
X165455000Y-117641904D02*
X165502619Y-117594285D01*
X165502619Y-117594285D02*
X165597857Y-117546666D01*
X165597857Y-117546666D02*
X165740714Y-117546666D01*
X165740714Y-117546666D02*
X165835952Y-117594285D01*
X165835952Y-117594285D02*
X165883571Y-117641904D01*
X165883571Y-117641904D02*
X165931190Y-117737142D01*
X165931190Y-117737142D02*
X165931190Y-118118094D01*
X166407380Y-117070475D02*
X166407380Y-116879999D01*
X166407380Y-116879999D02*
X166359761Y-116784761D01*
X166359761Y-116784761D02*
X166312142Y-116737142D01*
X166312142Y-116737142D02*
X166169285Y-116641904D01*
X166169285Y-116641904D02*
X165978809Y-116594285D01*
X165978809Y-116594285D02*
X165597857Y-116594285D01*
X165597857Y-116594285D02*
X165502619Y-116641904D01*
X165502619Y-116641904D02*
X165455000Y-116689523D01*
X165455000Y-116689523D02*
X165407380Y-116784761D01*
X165407380Y-116784761D02*
X165407380Y-116975237D01*
X165407380Y-116975237D02*
X165455000Y-117070475D01*
X165455000Y-117070475D02*
X165502619Y-117118094D01*
X165502619Y-117118094D02*
X165597857Y-117165713D01*
X165597857Y-117165713D02*
X165835952Y-117165713D01*
X165835952Y-117165713D02*
X165931190Y-117118094D01*
X165931190Y-117118094D02*
X165978809Y-117070475D01*
X165978809Y-117070475D02*
X166026428Y-116975237D01*
X166026428Y-116975237D02*
X166026428Y-116784761D01*
X166026428Y-116784761D02*
X165978809Y-116689523D01*
X165978809Y-116689523D02*
X165931190Y-116641904D01*
X165931190Y-116641904D02*
X165835952Y-116594285D01*
%TO.C,Rs4*%
X177908571Y-101897380D02*
X177575238Y-101421190D01*
X177337143Y-101897380D02*
X177337143Y-100897380D01*
X177337143Y-100897380D02*
X177718095Y-100897380D01*
X177718095Y-100897380D02*
X177813333Y-100945000D01*
X177813333Y-100945000D02*
X177860952Y-100992619D01*
X177860952Y-100992619D02*
X177908571Y-101087857D01*
X177908571Y-101087857D02*
X177908571Y-101230714D01*
X177908571Y-101230714D02*
X177860952Y-101325952D01*
X177860952Y-101325952D02*
X177813333Y-101373571D01*
X177813333Y-101373571D02*
X177718095Y-101421190D01*
X177718095Y-101421190D02*
X177337143Y-101421190D01*
X178289524Y-101849761D02*
X178384762Y-101897380D01*
X178384762Y-101897380D02*
X178575238Y-101897380D01*
X178575238Y-101897380D02*
X178670476Y-101849761D01*
X178670476Y-101849761D02*
X178718095Y-101754523D01*
X178718095Y-101754523D02*
X178718095Y-101706904D01*
X178718095Y-101706904D02*
X178670476Y-101611666D01*
X178670476Y-101611666D02*
X178575238Y-101564047D01*
X178575238Y-101564047D02*
X178432381Y-101564047D01*
X178432381Y-101564047D02*
X178337143Y-101516428D01*
X178337143Y-101516428D02*
X178289524Y-101421190D01*
X178289524Y-101421190D02*
X178289524Y-101373571D01*
X178289524Y-101373571D02*
X178337143Y-101278333D01*
X178337143Y-101278333D02*
X178432381Y-101230714D01*
X178432381Y-101230714D02*
X178575238Y-101230714D01*
X178575238Y-101230714D02*
X178670476Y-101278333D01*
X179575238Y-101230714D02*
X179575238Y-101897380D01*
X179337143Y-100849761D02*
X179099048Y-101564047D01*
X179099048Y-101564047D02*
X179718095Y-101564047D01*
X169641905Y-103241666D02*
X170118095Y-103241666D01*
X169546667Y-103527380D02*
X169880000Y-102527380D01*
X169880000Y-102527380D02*
X170213333Y-103527380D01*
%TO.C,R1*%
X115517380Y-97026666D02*
X115041190Y-97359999D01*
X115517380Y-97598094D02*
X114517380Y-97598094D01*
X114517380Y-97598094D02*
X114517380Y-97217142D01*
X114517380Y-97217142D02*
X114565000Y-97121904D01*
X114565000Y-97121904D02*
X114612619Y-97074285D01*
X114612619Y-97074285D02*
X114707857Y-97026666D01*
X114707857Y-97026666D02*
X114850714Y-97026666D01*
X114850714Y-97026666D02*
X114945952Y-97074285D01*
X114945952Y-97074285D02*
X114993571Y-97121904D01*
X114993571Y-97121904D02*
X115041190Y-97217142D01*
X115041190Y-97217142D02*
X115041190Y-97598094D01*
X115517380Y-96074285D02*
X115517380Y-96645713D01*
X115517380Y-96359999D02*
X114517380Y-96359999D01*
X114517380Y-96359999D02*
X114660238Y-96455237D01*
X114660238Y-96455237D02*
X114755476Y-96550475D01*
X114755476Y-96550475D02*
X114803095Y-96645713D01*
%TO.C,Rs1*%
X126258571Y-83137380D02*
X125925238Y-82661190D01*
X125687143Y-83137380D02*
X125687143Y-82137380D01*
X125687143Y-82137380D02*
X126068095Y-82137380D01*
X126068095Y-82137380D02*
X126163333Y-82185000D01*
X126163333Y-82185000D02*
X126210952Y-82232619D01*
X126210952Y-82232619D02*
X126258571Y-82327857D01*
X126258571Y-82327857D02*
X126258571Y-82470714D01*
X126258571Y-82470714D02*
X126210952Y-82565952D01*
X126210952Y-82565952D02*
X126163333Y-82613571D01*
X126163333Y-82613571D02*
X126068095Y-82661190D01*
X126068095Y-82661190D02*
X125687143Y-82661190D01*
X126639524Y-83089761D02*
X126734762Y-83137380D01*
X126734762Y-83137380D02*
X126925238Y-83137380D01*
X126925238Y-83137380D02*
X127020476Y-83089761D01*
X127020476Y-83089761D02*
X127068095Y-82994523D01*
X127068095Y-82994523D02*
X127068095Y-82946904D01*
X127068095Y-82946904D02*
X127020476Y-82851666D01*
X127020476Y-82851666D02*
X126925238Y-82804047D01*
X126925238Y-82804047D02*
X126782381Y-82804047D01*
X126782381Y-82804047D02*
X126687143Y-82756428D01*
X126687143Y-82756428D02*
X126639524Y-82661190D01*
X126639524Y-82661190D02*
X126639524Y-82613571D01*
X126639524Y-82613571D02*
X126687143Y-82518333D01*
X126687143Y-82518333D02*
X126782381Y-82470714D01*
X126782381Y-82470714D02*
X126925238Y-82470714D01*
X126925238Y-82470714D02*
X127020476Y-82518333D01*
X128020476Y-83137380D02*
X127449048Y-83137380D01*
X127734762Y-83137380D02*
X127734762Y-82137380D01*
X127734762Y-82137380D02*
X127639524Y-82280238D01*
X127639524Y-82280238D02*
X127544286Y-82375476D01*
X127544286Y-82375476D02*
X127449048Y-82423095D01*
X118441905Y-82831666D02*
X118918095Y-82831666D01*
X118346667Y-83117380D02*
X118680000Y-82117380D01*
X118680000Y-82117380D02*
X119013333Y-83117380D01*
%TO.C,R2*%
X112127380Y-97206666D02*
X111651190Y-97539999D01*
X112127380Y-97778094D02*
X111127380Y-97778094D01*
X111127380Y-97778094D02*
X111127380Y-97397142D01*
X111127380Y-97397142D02*
X111175000Y-97301904D01*
X111175000Y-97301904D02*
X111222619Y-97254285D01*
X111222619Y-97254285D02*
X111317857Y-97206666D01*
X111317857Y-97206666D02*
X111460714Y-97206666D01*
X111460714Y-97206666D02*
X111555952Y-97254285D01*
X111555952Y-97254285D02*
X111603571Y-97301904D01*
X111603571Y-97301904D02*
X111651190Y-97397142D01*
X111651190Y-97397142D02*
X111651190Y-97778094D01*
X111222619Y-96825713D02*
X111175000Y-96778094D01*
X111175000Y-96778094D02*
X111127380Y-96682856D01*
X111127380Y-96682856D02*
X111127380Y-96444761D01*
X111127380Y-96444761D02*
X111175000Y-96349523D01*
X111175000Y-96349523D02*
X111222619Y-96301904D01*
X111222619Y-96301904D02*
X111317857Y-96254285D01*
X111317857Y-96254285D02*
X111413095Y-96254285D01*
X111413095Y-96254285D02*
X111555952Y-96301904D01*
X111555952Y-96301904D02*
X112127380Y-96873332D01*
X112127380Y-96873332D02*
X112127380Y-96254285D01*
%TO.C,R7*%
X129269380Y-116554666D02*
X128793190Y-116887999D01*
X129269380Y-117126094D02*
X128269380Y-117126094D01*
X128269380Y-117126094D02*
X128269380Y-116745142D01*
X128269380Y-116745142D02*
X128317000Y-116649904D01*
X128317000Y-116649904D02*
X128364619Y-116602285D01*
X128364619Y-116602285D02*
X128459857Y-116554666D01*
X128459857Y-116554666D02*
X128602714Y-116554666D01*
X128602714Y-116554666D02*
X128697952Y-116602285D01*
X128697952Y-116602285D02*
X128745571Y-116649904D01*
X128745571Y-116649904D02*
X128793190Y-116745142D01*
X128793190Y-116745142D02*
X128793190Y-117126094D01*
X128269380Y-116221332D02*
X128269380Y-115554666D01*
X128269380Y-115554666D02*
X129269380Y-115983237D01*
%TO.C,U3*%
X171996095Y-88179380D02*
X171996095Y-88988904D01*
X171996095Y-88988904D02*
X172043714Y-89084142D01*
X172043714Y-89084142D02*
X172091333Y-89131761D01*
X172091333Y-89131761D02*
X172186571Y-89179380D01*
X172186571Y-89179380D02*
X172377047Y-89179380D01*
X172377047Y-89179380D02*
X172472285Y-89131761D01*
X172472285Y-89131761D02*
X172519904Y-89084142D01*
X172519904Y-89084142D02*
X172567523Y-88988904D01*
X172567523Y-88988904D02*
X172567523Y-88179380D01*
X172948476Y-88179380D02*
X173567523Y-88179380D01*
X173567523Y-88179380D02*
X173234190Y-88560333D01*
X173234190Y-88560333D02*
X173377047Y-88560333D01*
X173377047Y-88560333D02*
X173472285Y-88607952D01*
X173472285Y-88607952D02*
X173519904Y-88655571D01*
X173519904Y-88655571D02*
X173567523Y-88750809D01*
X173567523Y-88750809D02*
X173567523Y-88988904D01*
X173567523Y-88988904D02*
X173519904Y-89084142D01*
X173519904Y-89084142D02*
X173472285Y-89131761D01*
X173472285Y-89131761D02*
X173377047Y-89179380D01*
X173377047Y-89179380D02*
X173091333Y-89179380D01*
X173091333Y-89179380D02*
X172996095Y-89131761D01*
X172996095Y-89131761D02*
X172948476Y-89084142D01*
%TO.C,Rs2*%
X126090571Y-102495380D02*
X125757238Y-102019190D01*
X125519143Y-102495380D02*
X125519143Y-101495380D01*
X125519143Y-101495380D02*
X125900095Y-101495380D01*
X125900095Y-101495380D02*
X125995333Y-101543000D01*
X125995333Y-101543000D02*
X126042952Y-101590619D01*
X126042952Y-101590619D02*
X126090571Y-101685857D01*
X126090571Y-101685857D02*
X126090571Y-101828714D01*
X126090571Y-101828714D02*
X126042952Y-101923952D01*
X126042952Y-101923952D02*
X125995333Y-101971571D01*
X125995333Y-101971571D02*
X125900095Y-102019190D01*
X125900095Y-102019190D02*
X125519143Y-102019190D01*
X126471524Y-102447761D02*
X126566762Y-102495380D01*
X126566762Y-102495380D02*
X126757238Y-102495380D01*
X126757238Y-102495380D02*
X126852476Y-102447761D01*
X126852476Y-102447761D02*
X126900095Y-102352523D01*
X126900095Y-102352523D02*
X126900095Y-102304904D01*
X126900095Y-102304904D02*
X126852476Y-102209666D01*
X126852476Y-102209666D02*
X126757238Y-102162047D01*
X126757238Y-102162047D02*
X126614381Y-102162047D01*
X126614381Y-102162047D02*
X126519143Y-102114428D01*
X126519143Y-102114428D02*
X126471524Y-102019190D01*
X126471524Y-102019190D02*
X126471524Y-101971571D01*
X126471524Y-101971571D02*
X126519143Y-101876333D01*
X126519143Y-101876333D02*
X126614381Y-101828714D01*
X126614381Y-101828714D02*
X126757238Y-101828714D01*
X126757238Y-101828714D02*
X126852476Y-101876333D01*
X127281048Y-101590619D02*
X127328667Y-101543000D01*
X127328667Y-101543000D02*
X127423905Y-101495380D01*
X127423905Y-101495380D02*
X127662000Y-101495380D01*
X127662000Y-101495380D02*
X127757238Y-101543000D01*
X127757238Y-101543000D02*
X127804857Y-101590619D01*
X127804857Y-101590619D02*
X127852476Y-101685857D01*
X127852476Y-101685857D02*
X127852476Y-101781095D01*
X127852476Y-101781095D02*
X127804857Y-101923952D01*
X127804857Y-101923952D02*
X127233429Y-102495380D01*
X127233429Y-102495380D02*
X127852476Y-102495380D01*
X118193905Y-102229666D02*
X118670095Y-102229666D01*
X118098667Y-102515380D02*
X118432000Y-101515380D01*
X118432000Y-101515380D02*
X118765333Y-102515380D01*
%TO.C,Rs3*%
X177316571Y-81469380D02*
X176983238Y-80993190D01*
X176745143Y-81469380D02*
X176745143Y-80469380D01*
X176745143Y-80469380D02*
X177126095Y-80469380D01*
X177126095Y-80469380D02*
X177221333Y-80517000D01*
X177221333Y-80517000D02*
X177268952Y-80564619D01*
X177268952Y-80564619D02*
X177316571Y-80659857D01*
X177316571Y-80659857D02*
X177316571Y-80802714D01*
X177316571Y-80802714D02*
X177268952Y-80897952D01*
X177268952Y-80897952D02*
X177221333Y-80945571D01*
X177221333Y-80945571D02*
X177126095Y-80993190D01*
X177126095Y-80993190D02*
X176745143Y-80993190D01*
X177697524Y-81421761D02*
X177792762Y-81469380D01*
X177792762Y-81469380D02*
X177983238Y-81469380D01*
X177983238Y-81469380D02*
X178078476Y-81421761D01*
X178078476Y-81421761D02*
X178126095Y-81326523D01*
X178126095Y-81326523D02*
X178126095Y-81278904D01*
X178126095Y-81278904D02*
X178078476Y-81183666D01*
X178078476Y-81183666D02*
X177983238Y-81136047D01*
X177983238Y-81136047D02*
X177840381Y-81136047D01*
X177840381Y-81136047D02*
X177745143Y-81088428D01*
X177745143Y-81088428D02*
X177697524Y-80993190D01*
X177697524Y-80993190D02*
X177697524Y-80945571D01*
X177697524Y-80945571D02*
X177745143Y-80850333D01*
X177745143Y-80850333D02*
X177840381Y-80802714D01*
X177840381Y-80802714D02*
X177983238Y-80802714D01*
X177983238Y-80802714D02*
X178078476Y-80850333D01*
X178459429Y-80469380D02*
X179078476Y-80469380D01*
X179078476Y-80469380D02*
X178745143Y-80850333D01*
X178745143Y-80850333D02*
X178888000Y-80850333D01*
X178888000Y-80850333D02*
X178983238Y-80897952D01*
X178983238Y-80897952D02*
X179030857Y-80945571D01*
X179030857Y-80945571D02*
X179078476Y-81040809D01*
X179078476Y-81040809D02*
X179078476Y-81278904D01*
X179078476Y-81278904D02*
X179030857Y-81374142D01*
X179030857Y-81374142D02*
X178983238Y-81421761D01*
X178983238Y-81421761D02*
X178888000Y-81469380D01*
X178888000Y-81469380D02*
X178602286Y-81469380D01*
X178602286Y-81469380D02*
X178507048Y-81421761D01*
X178507048Y-81421761D02*
X178459429Y-81374142D01*
X169149905Y-82413666D02*
X169626095Y-82413666D01*
X169054667Y-82699380D02*
X169388000Y-81699380D01*
X169388000Y-81699380D02*
X169721333Y-82699380D01*
%TO.C,R8*%
X162585380Y-97278666D02*
X162109190Y-97611999D01*
X162585380Y-97850094D02*
X161585380Y-97850094D01*
X161585380Y-97850094D02*
X161585380Y-97469142D01*
X161585380Y-97469142D02*
X161633000Y-97373904D01*
X161633000Y-97373904D02*
X161680619Y-97326285D01*
X161680619Y-97326285D02*
X161775857Y-97278666D01*
X161775857Y-97278666D02*
X161918714Y-97278666D01*
X161918714Y-97278666D02*
X162013952Y-97326285D01*
X162013952Y-97326285D02*
X162061571Y-97373904D01*
X162061571Y-97373904D02*
X162109190Y-97469142D01*
X162109190Y-97469142D02*
X162109190Y-97850094D01*
X162013952Y-96707237D02*
X161966333Y-96802475D01*
X161966333Y-96802475D02*
X161918714Y-96850094D01*
X161918714Y-96850094D02*
X161823476Y-96897713D01*
X161823476Y-96897713D02*
X161775857Y-96897713D01*
X161775857Y-96897713D02*
X161680619Y-96850094D01*
X161680619Y-96850094D02*
X161633000Y-96802475D01*
X161633000Y-96802475D02*
X161585380Y-96707237D01*
X161585380Y-96707237D02*
X161585380Y-96516761D01*
X161585380Y-96516761D02*
X161633000Y-96421523D01*
X161633000Y-96421523D02*
X161680619Y-96373904D01*
X161680619Y-96373904D02*
X161775857Y-96326285D01*
X161775857Y-96326285D02*
X161823476Y-96326285D01*
X161823476Y-96326285D02*
X161918714Y-96373904D01*
X161918714Y-96373904D02*
X161966333Y-96421523D01*
X161966333Y-96421523D02*
X162013952Y-96516761D01*
X162013952Y-96516761D02*
X162013952Y-96707237D01*
X162013952Y-96707237D02*
X162061571Y-96802475D01*
X162061571Y-96802475D02*
X162109190Y-96850094D01*
X162109190Y-96850094D02*
X162204428Y-96897713D01*
X162204428Y-96897713D02*
X162394904Y-96897713D01*
X162394904Y-96897713D02*
X162490142Y-96850094D01*
X162490142Y-96850094D02*
X162537761Y-96802475D01*
X162537761Y-96802475D02*
X162585380Y-96707237D01*
X162585380Y-96707237D02*
X162585380Y-96516761D01*
X162585380Y-96516761D02*
X162537761Y-96421523D01*
X162537761Y-96421523D02*
X162490142Y-96373904D01*
X162490142Y-96373904D02*
X162394904Y-96326285D01*
X162394904Y-96326285D02*
X162204428Y-96326285D01*
X162204428Y-96326285D02*
X162109190Y-96373904D01*
X162109190Y-96373904D02*
X162061571Y-96421523D01*
X162061571Y-96421523D02*
X162013952Y-96516761D01*
D11*
%TO.C,R6*%
X164548000Y-94352000D02*
X164548000Y-87812000D01*
X164878000Y-94352000D02*
X164548000Y-94352000D01*
X166958000Y-94352000D02*
X167288000Y-94352000D01*
X167288000Y-94352000D02*
X167288000Y-87812000D01*
X164548000Y-87812000D02*
X164878000Y-87812000D01*
X167288000Y-87812000D02*
X166958000Y-87812000D01*
%TO.C,BT1*%
X77530000Y-123500000D02*
X77530000Y-69000000D01*
X107730000Y-123500000D02*
X77530000Y-123500000D01*
X77530000Y-69000000D02*
X107730000Y-69000000D01*
X107730000Y-69000000D02*
X107730000Y-123500000D01*
%TO.C,R12*%
X178440000Y-114680000D02*
X178440000Y-108140000D01*
X178770000Y-114680000D02*
X178440000Y-114680000D01*
X180850000Y-114680000D02*
X181180000Y-114680000D01*
X181180000Y-114680000D02*
X181180000Y-108140000D01*
X178440000Y-108140000D02*
X178770000Y-108140000D01*
X181180000Y-108140000D02*
X180850000Y-108140000D01*
%TO.C,U1*%
X119530000Y-85230000D02*
X119530000Y-95510000D01*
X119530000Y-95510000D02*
X124830000Y-95510000D01*
X121180000Y-85230000D02*
X119530000Y-85230000D01*
X124830000Y-85230000D02*
X123180000Y-85230000D01*
X124830000Y-95510000D02*
X124830000Y-85230000D01*
X121180000Y-85230000D02*
G75*
G03*
X123180000Y-85230000I1000000J0D01*
G01*
%TO.C,R5*%
X110182000Y-113648000D02*
X110182000Y-107108000D01*
X110512000Y-113648000D02*
X110182000Y-113648000D01*
X112592000Y-113648000D02*
X112922000Y-113648000D01*
X112922000Y-113648000D02*
X112922000Y-107108000D01*
X110182000Y-107108000D02*
X110512000Y-107108000D01*
X112922000Y-107108000D02*
X112592000Y-107108000D01*
%TO.C,U5*%
X131490000Y-124186560D02*
X159889999Y-124186560D01*
X131490001Y-76266560D02*
X131490000Y-124186560D01*
X136720120Y-70353440D02*
X154703320Y-70353440D01*
X136720120Y-76246240D02*
X136720120Y-70353440D01*
X154703320Y-70353440D02*
X154703320Y-76246240D01*
X159889999Y-124186560D02*
X159890000Y-76266560D01*
X159890000Y-76266560D02*
X131490001Y-76266560D01*
%TO.C,R3*%
X113762000Y-113638000D02*
X113762000Y-107098000D01*
X114092000Y-113638000D02*
X113762000Y-113638000D01*
X116172000Y-113638000D02*
X116502000Y-113638000D01*
X116502000Y-113638000D02*
X116502000Y-107098000D01*
X113762000Y-107098000D02*
X114092000Y-107098000D01*
X116502000Y-107098000D02*
X116172000Y-107098000D01*
%TO.C,U4*%
X170370000Y-105800000D02*
X170370000Y-116080000D01*
X170370000Y-116080000D02*
X175670000Y-116080000D01*
X172020000Y-105800000D02*
X170370000Y-105800000D01*
X175670000Y-105800000D02*
X174020000Y-105800000D01*
X175670000Y-116080000D02*
X175670000Y-105800000D01*
X172020000Y-105800000D02*
G75*
G03*
X174020000Y-105800000I1000000J0D01*
G01*
%TO.C,R10*%
X178178000Y-94312000D02*
X178178000Y-87772000D01*
X178508000Y-94312000D02*
X178178000Y-94312000D01*
X180588000Y-94312000D02*
X180918000Y-94312000D01*
X180918000Y-94312000D02*
X180918000Y-87772000D01*
X178178000Y-87772000D02*
X178508000Y-87772000D01*
X180918000Y-87772000D02*
X180588000Y-87772000D01*
%TO.C,R4*%
X127730000Y-94150000D02*
X127730000Y-87610000D01*
X128060000Y-94150000D02*
X127730000Y-94150000D01*
X130140000Y-94150000D02*
X130470000Y-94150000D01*
X130470000Y-94150000D02*
X130470000Y-87610000D01*
X127730000Y-87610000D02*
X128060000Y-87610000D01*
X130470000Y-87610000D02*
X130140000Y-87610000D01*
%TO.C,U2*%
X119380000Y-104730000D02*
X119380000Y-115010000D01*
X119380000Y-115010000D02*
X124680000Y-115010000D01*
X121030000Y-104730000D02*
X119380000Y-104730000D01*
X124680000Y-104730000D02*
X123030000Y-104730000D01*
X124680000Y-115010000D02*
X124680000Y-104730000D01*
X121030000Y-104730000D02*
G75*
G03*
X123030000Y-104730000I1000000J0D01*
G01*
%TO.C,R11*%
X161150000Y-114690000D02*
X161150000Y-108150000D01*
X161480000Y-114690000D02*
X161150000Y-114690000D01*
X163560000Y-114690000D02*
X163890000Y-114690000D01*
X163890000Y-114690000D02*
X163890000Y-108150000D01*
X161150000Y-108150000D02*
X161480000Y-108150000D01*
X163890000Y-108150000D02*
X163560000Y-108150000D01*
%TO.C,BT2*%
X186590000Y-123530000D02*
X186590000Y-69030000D01*
X216790000Y-123530000D02*
X186590000Y-123530000D01*
X186590000Y-69030000D02*
X216790000Y-69030000D01*
X216790000Y-69030000D02*
X216790000Y-123530000D01*
%TO.C,R9*%
X164690000Y-114700000D02*
X164690000Y-108160000D01*
X165020000Y-114700000D02*
X164690000Y-114700000D01*
X167100000Y-114700000D02*
X167430000Y-114700000D01*
X167430000Y-114700000D02*
X167430000Y-108160000D01*
X164690000Y-108160000D02*
X165020000Y-108160000D01*
X167430000Y-108160000D02*
X167100000Y-108160000D01*
%TO.C,Rs4*%
X173025404Y-104280000D02*
G75*
G03*
X173083629Y-101965268I1514596J1120000D01*
G01*
%TO.C,R1*%
X113780000Y-94130000D02*
X113780000Y-87590000D01*
X114110000Y-94130000D02*
X113780000Y-94130000D01*
X116190000Y-94130000D02*
X116520000Y-94130000D01*
X116520000Y-94130000D02*
X116520000Y-87590000D01*
X113780000Y-87590000D02*
X114110000Y-87590000D01*
X116520000Y-87590000D02*
X116190000Y-87590000D01*
%TO.C,Rs1*%
X121825404Y-83870000D02*
G75*
G03*
X121883629Y-81555268I1514596J1120000D01*
G01*
%TO.C,R2*%
X110450000Y-94130000D02*
X110450000Y-87590000D01*
X110780000Y-94130000D02*
X110450000Y-94130000D01*
X112860000Y-94130000D02*
X113190000Y-94130000D01*
X113190000Y-94130000D02*
X113190000Y-87590000D01*
X110450000Y-87590000D02*
X110780000Y-87590000D01*
X113190000Y-87590000D02*
X112860000Y-87590000D01*
%TO.C,R7*%
X127542000Y-113678000D02*
X127542000Y-107138000D01*
X127872000Y-113678000D02*
X127542000Y-113678000D01*
X129952000Y-113678000D02*
X130282000Y-113678000D01*
X130282000Y-113678000D02*
X130282000Y-107138000D01*
X127542000Y-107138000D02*
X127872000Y-107138000D01*
X130282000Y-107138000D02*
X129952000Y-107138000D01*
%TO.C,U3*%
X170130000Y-85420000D02*
X170130000Y-95700000D01*
X170130000Y-95700000D02*
X175430000Y-95700000D01*
X171780000Y-85420000D02*
X170130000Y-85420000D01*
X175430000Y-85420000D02*
X173780000Y-85420000D01*
X175430000Y-95700000D02*
X175430000Y-85420000D01*
X171780000Y-85420000D02*
G75*
G03*
X173780000Y-85420000I1000000J0D01*
G01*
%TO.C,Rs2*%
X121577404Y-103268000D02*
G75*
G03*
X121635629Y-100953268I1514596J1120000D01*
G01*
%TO.C,Rs3*%
X172533404Y-83452000D02*
G75*
G03*
X172591629Y-81137268I1514596J1120000D01*
G01*
%TO.C,R8*%
X160858000Y-94312000D02*
X160858000Y-87772000D01*
X161188000Y-94312000D02*
X160858000Y-94312000D01*
X163268000Y-94312000D02*
X163598000Y-94312000D01*
X163598000Y-94312000D02*
X163598000Y-87772000D01*
X160858000Y-87772000D02*
X161188000Y-87772000D01*
X163598000Y-87772000D02*
X163268000Y-87772000D01*
%TD*%
M02*
