%TF.GenerationSoftware,KiCad,Pcbnew,(7.0.0-0)*%
%TF.CreationDate,2023-03-03T08:57:49+01:00*%
%TF.ProjectId,sensor_circuit_board_esp32,73656e73-6f72-45f6-9369-72637569745f,rev?*%
%TF.SameCoordinates,Original*%
%TF.FileFunction,Drillmap*%
%TF.FilePolarity,Positive*%
%FSLAX45Y45*%
G04 Gerber Fmt 4.5, Leading zero omitted, Abs format (unit mm)*
G04 Created by KiCad (PCBNEW (7.0.0-0)) date 2023-03-03 08:57:49*
%MOMM*%
%LPD*%
G01*
G04 APERTURE LIST*
%ADD10C,0.100000*%
%ADD11C,0.200000*%
%ADD12C,0.260000*%
G04 APERTURE END LIST*
D10*
X7130000Y-6290000D02*
X22143000Y-6290000D01*
X22143000Y-6290000D02*
X22143000Y-12809000D01*
X22143000Y-12809000D02*
X7130000Y-12809000D01*
X7130000Y-12809000D02*
X7130000Y-6290000D01*
D11*
D12*
X8023000Y-8170000D02*
X8283000Y-8430000D01*
X8283000Y-8170000D02*
X8023000Y-8430000D01*
X8023000Y-10970000D02*
X8283000Y-11230000D01*
X8283000Y-10970000D02*
X8023000Y-11230000D01*
X10243000Y-9495000D02*
X10503000Y-9755000D01*
X10503000Y-9495000D02*
X10243000Y-9755000D01*
X18929000Y-8173000D02*
X19189000Y-8433000D01*
X19189000Y-8173000D02*
X18929000Y-8433000D01*
X18929000Y-10973000D02*
X19189000Y-11233000D01*
X19189000Y-10973000D02*
X18929000Y-11233000D01*
X21149000Y-9498000D02*
X21409000Y-9758000D01*
X21409000Y-9498000D02*
X21149000Y-9758000D01*
D11*
X7372619Y-13107476D02*
X7372619Y-12907476D01*
X7372619Y-12907476D02*
X7420238Y-12907476D01*
X7420238Y-12907476D02*
X7448809Y-12917000D01*
X7448809Y-12917000D02*
X7467857Y-12936048D01*
X7467857Y-12936048D02*
X7477381Y-12955095D01*
X7477381Y-12955095D02*
X7486905Y-12993190D01*
X7486905Y-12993190D02*
X7486905Y-13021762D01*
X7486905Y-13021762D02*
X7477381Y-13059857D01*
X7477381Y-13059857D02*
X7467857Y-13078905D01*
X7467857Y-13078905D02*
X7448809Y-13097952D01*
X7448809Y-13097952D02*
X7420238Y-13107476D01*
X7420238Y-13107476D02*
X7372619Y-13107476D01*
X7572619Y-13107476D02*
X7572619Y-12974143D01*
X7572619Y-13012238D02*
X7582143Y-12993190D01*
X7582143Y-12993190D02*
X7591667Y-12983667D01*
X7591667Y-12983667D02*
X7610714Y-12974143D01*
X7610714Y-12974143D02*
X7629762Y-12974143D01*
X7696428Y-13107476D02*
X7696428Y-12974143D01*
X7696428Y-12907476D02*
X7686905Y-12917000D01*
X7686905Y-12917000D02*
X7696428Y-12926524D01*
X7696428Y-12926524D02*
X7705952Y-12917000D01*
X7705952Y-12917000D02*
X7696428Y-12907476D01*
X7696428Y-12907476D02*
X7696428Y-12926524D01*
X7820238Y-13107476D02*
X7801190Y-13097952D01*
X7801190Y-13097952D02*
X7791667Y-13078905D01*
X7791667Y-13078905D02*
X7791667Y-12907476D01*
X7925000Y-13107476D02*
X7905952Y-13097952D01*
X7905952Y-13097952D02*
X7896428Y-13078905D01*
X7896428Y-13078905D02*
X7896428Y-12907476D01*
X8121190Y-13107476D02*
X8121190Y-12907476D01*
X8121190Y-12907476D02*
X8187857Y-13050333D01*
X8187857Y-13050333D02*
X8254524Y-12907476D01*
X8254524Y-12907476D02*
X8254524Y-13107476D01*
X8435476Y-13107476D02*
X8435476Y-13002714D01*
X8435476Y-13002714D02*
X8425952Y-12983667D01*
X8425952Y-12983667D02*
X8406905Y-12974143D01*
X8406905Y-12974143D02*
X8368809Y-12974143D01*
X8368809Y-12974143D02*
X8349762Y-12983667D01*
X8435476Y-13097952D02*
X8416429Y-13107476D01*
X8416429Y-13107476D02*
X8368809Y-13107476D01*
X8368809Y-13107476D02*
X8349762Y-13097952D01*
X8349762Y-13097952D02*
X8340238Y-13078905D01*
X8340238Y-13078905D02*
X8340238Y-13059857D01*
X8340238Y-13059857D02*
X8349762Y-13040809D01*
X8349762Y-13040809D02*
X8368809Y-13031286D01*
X8368809Y-13031286D02*
X8416429Y-13031286D01*
X8416429Y-13031286D02*
X8435476Y-13021762D01*
X8530714Y-12974143D02*
X8530714Y-13174143D01*
X8530714Y-12983667D02*
X8549762Y-12974143D01*
X8549762Y-12974143D02*
X8587857Y-12974143D01*
X8587857Y-12974143D02*
X8606905Y-12983667D01*
X8606905Y-12983667D02*
X8616429Y-12993190D01*
X8616429Y-12993190D02*
X8625952Y-13012238D01*
X8625952Y-13012238D02*
X8625952Y-13069381D01*
X8625952Y-13069381D02*
X8616429Y-13088428D01*
X8616429Y-13088428D02*
X8606905Y-13097952D01*
X8606905Y-13097952D02*
X8587857Y-13107476D01*
X8587857Y-13107476D02*
X8549762Y-13107476D01*
X8549762Y-13107476D02*
X8530714Y-13097952D01*
X8711667Y-13088428D02*
X8721190Y-13097952D01*
X8721190Y-13097952D02*
X8711667Y-13107476D01*
X8711667Y-13107476D02*
X8702143Y-13097952D01*
X8702143Y-13097952D02*
X8711667Y-13088428D01*
X8711667Y-13088428D02*
X8711667Y-13107476D01*
X8711667Y-12983667D02*
X8721190Y-12993190D01*
X8721190Y-12993190D02*
X8711667Y-13002714D01*
X8711667Y-13002714D02*
X8702143Y-12993190D01*
X8702143Y-12993190D02*
X8711667Y-12983667D01*
X8711667Y-12983667D02*
X8711667Y-13002714D01*
X6925000Y-13354000D02*
X7125000Y-13554000D01*
X7125000Y-13354000D02*
X6925000Y-13554000D01*
X7363095Y-13346524D02*
X7372619Y-13337000D01*
X7372619Y-13337000D02*
X7391667Y-13327476D01*
X7391667Y-13327476D02*
X7439286Y-13327476D01*
X7439286Y-13327476D02*
X7458333Y-13337000D01*
X7458333Y-13337000D02*
X7467857Y-13346524D01*
X7467857Y-13346524D02*
X7477381Y-13365571D01*
X7477381Y-13365571D02*
X7477381Y-13384619D01*
X7477381Y-13384619D02*
X7467857Y-13413190D01*
X7467857Y-13413190D02*
X7353571Y-13527476D01*
X7353571Y-13527476D02*
X7477381Y-13527476D01*
X7563095Y-13508428D02*
X7572619Y-13517952D01*
X7572619Y-13517952D02*
X7563095Y-13527476D01*
X7563095Y-13527476D02*
X7553571Y-13517952D01*
X7553571Y-13517952D02*
X7563095Y-13508428D01*
X7563095Y-13508428D02*
X7563095Y-13527476D01*
X7744048Y-13327476D02*
X7705952Y-13327476D01*
X7705952Y-13327476D02*
X7686905Y-13337000D01*
X7686905Y-13337000D02*
X7677381Y-13346524D01*
X7677381Y-13346524D02*
X7658333Y-13375095D01*
X7658333Y-13375095D02*
X7648809Y-13413190D01*
X7648809Y-13413190D02*
X7648809Y-13489381D01*
X7648809Y-13489381D02*
X7658333Y-13508428D01*
X7658333Y-13508428D02*
X7667857Y-13517952D01*
X7667857Y-13517952D02*
X7686905Y-13527476D01*
X7686905Y-13527476D02*
X7725000Y-13527476D01*
X7725000Y-13527476D02*
X7744048Y-13517952D01*
X7744048Y-13517952D02*
X7753571Y-13508428D01*
X7753571Y-13508428D02*
X7763095Y-13489381D01*
X7763095Y-13489381D02*
X7763095Y-13441762D01*
X7763095Y-13441762D02*
X7753571Y-13422714D01*
X7753571Y-13422714D02*
X7744048Y-13413190D01*
X7744048Y-13413190D02*
X7725000Y-13403667D01*
X7725000Y-13403667D02*
X7686905Y-13403667D01*
X7686905Y-13403667D02*
X7667857Y-13413190D01*
X7667857Y-13413190D02*
X7658333Y-13422714D01*
X7658333Y-13422714D02*
X7648809Y-13441762D01*
X7886905Y-13327476D02*
X7905952Y-13327476D01*
X7905952Y-13327476D02*
X7925000Y-13337000D01*
X7925000Y-13337000D02*
X7934524Y-13346524D01*
X7934524Y-13346524D02*
X7944048Y-13365571D01*
X7944048Y-13365571D02*
X7953571Y-13403667D01*
X7953571Y-13403667D02*
X7953571Y-13451286D01*
X7953571Y-13451286D02*
X7944048Y-13489381D01*
X7944048Y-13489381D02*
X7934524Y-13508428D01*
X7934524Y-13508428D02*
X7925000Y-13517952D01*
X7925000Y-13517952D02*
X7905952Y-13527476D01*
X7905952Y-13527476D02*
X7886905Y-13527476D01*
X7886905Y-13527476D02*
X7867857Y-13517952D01*
X7867857Y-13517952D02*
X7858333Y-13508428D01*
X7858333Y-13508428D02*
X7848809Y-13489381D01*
X7848809Y-13489381D02*
X7839286Y-13451286D01*
X7839286Y-13451286D02*
X7839286Y-13403667D01*
X7839286Y-13403667D02*
X7848809Y-13365571D01*
X7848809Y-13365571D02*
X7858333Y-13346524D01*
X7858333Y-13346524D02*
X7867857Y-13337000D01*
X7867857Y-13337000D02*
X7886905Y-13327476D01*
X8077381Y-13327476D02*
X8096429Y-13327476D01*
X8096429Y-13327476D02*
X8115476Y-13337000D01*
X8115476Y-13337000D02*
X8125000Y-13346524D01*
X8125000Y-13346524D02*
X8134524Y-13365571D01*
X8134524Y-13365571D02*
X8144048Y-13403667D01*
X8144048Y-13403667D02*
X8144048Y-13451286D01*
X8144048Y-13451286D02*
X8134524Y-13489381D01*
X8134524Y-13489381D02*
X8125000Y-13508428D01*
X8125000Y-13508428D02*
X8115476Y-13517952D01*
X8115476Y-13517952D02*
X8096429Y-13527476D01*
X8096429Y-13527476D02*
X8077381Y-13527476D01*
X8077381Y-13527476D02*
X8058333Y-13517952D01*
X8058333Y-13517952D02*
X8048809Y-13508428D01*
X8048809Y-13508428D02*
X8039286Y-13489381D01*
X8039286Y-13489381D02*
X8029762Y-13451286D01*
X8029762Y-13451286D02*
X8029762Y-13403667D01*
X8029762Y-13403667D02*
X8039286Y-13365571D01*
X8039286Y-13365571D02*
X8048809Y-13346524D01*
X8048809Y-13346524D02*
X8058333Y-13337000D01*
X8058333Y-13337000D02*
X8077381Y-13327476D01*
X8229762Y-13527476D02*
X8229762Y-13394143D01*
X8229762Y-13413190D02*
X8239286Y-13403667D01*
X8239286Y-13403667D02*
X8258333Y-13394143D01*
X8258333Y-13394143D02*
X8286905Y-13394143D01*
X8286905Y-13394143D02*
X8305952Y-13403667D01*
X8305952Y-13403667D02*
X8315476Y-13422714D01*
X8315476Y-13422714D02*
X8315476Y-13527476D01*
X8315476Y-13422714D02*
X8325000Y-13403667D01*
X8325000Y-13403667D02*
X8344048Y-13394143D01*
X8344048Y-13394143D02*
X8372619Y-13394143D01*
X8372619Y-13394143D02*
X8391667Y-13403667D01*
X8391667Y-13403667D02*
X8401191Y-13422714D01*
X8401191Y-13422714D02*
X8401191Y-13527476D01*
X8496429Y-13527476D02*
X8496429Y-13394143D01*
X8496429Y-13413190D02*
X8505952Y-13403667D01*
X8505952Y-13403667D02*
X8525000Y-13394143D01*
X8525000Y-13394143D02*
X8553572Y-13394143D01*
X8553572Y-13394143D02*
X8572619Y-13403667D01*
X8572619Y-13403667D02*
X8582143Y-13422714D01*
X8582143Y-13422714D02*
X8582143Y-13527476D01*
X8582143Y-13422714D02*
X8591667Y-13403667D01*
X8591667Y-13403667D02*
X8610714Y-13394143D01*
X8610714Y-13394143D02*
X8639286Y-13394143D01*
X8639286Y-13394143D02*
X8658333Y-13403667D01*
X8658333Y-13403667D02*
X8667857Y-13422714D01*
X8667857Y-13422714D02*
X8667857Y-13527476D01*
X9025952Y-13317952D02*
X8854524Y-13575095D01*
X9250714Y-13327476D02*
X9269762Y-13327476D01*
X9269762Y-13327476D02*
X9288810Y-13337000D01*
X9288810Y-13337000D02*
X9298333Y-13346524D01*
X9298333Y-13346524D02*
X9307857Y-13365571D01*
X9307857Y-13365571D02*
X9317381Y-13403667D01*
X9317381Y-13403667D02*
X9317381Y-13451286D01*
X9317381Y-13451286D02*
X9307857Y-13489381D01*
X9307857Y-13489381D02*
X9298333Y-13508428D01*
X9298333Y-13508428D02*
X9288810Y-13517952D01*
X9288810Y-13517952D02*
X9269762Y-13527476D01*
X9269762Y-13527476D02*
X9250714Y-13527476D01*
X9250714Y-13527476D02*
X9231667Y-13517952D01*
X9231667Y-13517952D02*
X9222143Y-13508428D01*
X9222143Y-13508428D02*
X9212619Y-13489381D01*
X9212619Y-13489381D02*
X9203095Y-13451286D01*
X9203095Y-13451286D02*
X9203095Y-13403667D01*
X9203095Y-13403667D02*
X9212619Y-13365571D01*
X9212619Y-13365571D02*
X9222143Y-13346524D01*
X9222143Y-13346524D02*
X9231667Y-13337000D01*
X9231667Y-13337000D02*
X9250714Y-13327476D01*
X9403095Y-13508428D02*
X9412619Y-13517952D01*
X9412619Y-13517952D02*
X9403095Y-13527476D01*
X9403095Y-13527476D02*
X9393572Y-13517952D01*
X9393572Y-13517952D02*
X9403095Y-13508428D01*
X9403095Y-13508428D02*
X9403095Y-13527476D01*
X9603095Y-13527476D02*
X9488810Y-13527476D01*
X9545952Y-13527476D02*
X9545952Y-13327476D01*
X9545952Y-13327476D02*
X9526905Y-13356048D01*
X9526905Y-13356048D02*
X9507857Y-13375095D01*
X9507857Y-13375095D02*
X9488810Y-13384619D01*
X9726905Y-13327476D02*
X9745953Y-13327476D01*
X9745953Y-13327476D02*
X9765000Y-13337000D01*
X9765000Y-13337000D02*
X9774524Y-13346524D01*
X9774524Y-13346524D02*
X9784048Y-13365571D01*
X9784048Y-13365571D02*
X9793572Y-13403667D01*
X9793572Y-13403667D02*
X9793572Y-13451286D01*
X9793572Y-13451286D02*
X9784048Y-13489381D01*
X9784048Y-13489381D02*
X9774524Y-13508428D01*
X9774524Y-13508428D02*
X9765000Y-13517952D01*
X9765000Y-13517952D02*
X9745953Y-13527476D01*
X9745953Y-13527476D02*
X9726905Y-13527476D01*
X9726905Y-13527476D02*
X9707857Y-13517952D01*
X9707857Y-13517952D02*
X9698333Y-13508428D01*
X9698333Y-13508428D02*
X9688810Y-13489381D01*
X9688810Y-13489381D02*
X9679286Y-13451286D01*
X9679286Y-13451286D02*
X9679286Y-13403667D01*
X9679286Y-13403667D02*
X9688810Y-13365571D01*
X9688810Y-13365571D02*
X9698333Y-13346524D01*
X9698333Y-13346524D02*
X9707857Y-13337000D01*
X9707857Y-13337000D02*
X9726905Y-13327476D01*
X9869762Y-13346524D02*
X9879286Y-13337000D01*
X9879286Y-13337000D02*
X9898333Y-13327476D01*
X9898333Y-13327476D02*
X9945953Y-13327476D01*
X9945953Y-13327476D02*
X9965000Y-13337000D01*
X9965000Y-13337000D02*
X9974524Y-13346524D01*
X9974524Y-13346524D02*
X9984048Y-13365571D01*
X9984048Y-13365571D02*
X9984048Y-13384619D01*
X9984048Y-13384619D02*
X9974524Y-13413190D01*
X9974524Y-13413190D02*
X9860238Y-13527476D01*
X9860238Y-13527476D02*
X9984048Y-13527476D01*
X10155476Y-13394143D02*
X10155476Y-13527476D01*
X10107857Y-13317952D02*
X10060238Y-13460809D01*
X10060238Y-13460809D02*
X10184048Y-13460809D01*
X10250714Y-13327476D02*
X10250714Y-13365571D01*
X10326905Y-13327476D02*
X10326905Y-13365571D01*
X10589762Y-13603667D02*
X10580238Y-13594143D01*
X10580238Y-13594143D02*
X10561191Y-13565571D01*
X10561191Y-13565571D02*
X10551667Y-13546524D01*
X10551667Y-13546524D02*
X10542143Y-13517952D01*
X10542143Y-13517952D02*
X10532619Y-13470333D01*
X10532619Y-13470333D02*
X10532619Y-13432238D01*
X10532619Y-13432238D02*
X10542143Y-13384619D01*
X10542143Y-13384619D02*
X10551667Y-13356048D01*
X10551667Y-13356048D02*
X10561191Y-13337000D01*
X10561191Y-13337000D02*
X10580238Y-13308428D01*
X10580238Y-13308428D02*
X10589762Y-13298905D01*
X10751667Y-13327476D02*
X10713572Y-13327476D01*
X10713572Y-13327476D02*
X10694524Y-13337000D01*
X10694524Y-13337000D02*
X10685000Y-13346524D01*
X10685000Y-13346524D02*
X10665953Y-13375095D01*
X10665953Y-13375095D02*
X10656429Y-13413190D01*
X10656429Y-13413190D02*
X10656429Y-13489381D01*
X10656429Y-13489381D02*
X10665953Y-13508428D01*
X10665953Y-13508428D02*
X10675476Y-13517952D01*
X10675476Y-13517952D02*
X10694524Y-13527476D01*
X10694524Y-13527476D02*
X10732619Y-13527476D01*
X10732619Y-13527476D02*
X10751667Y-13517952D01*
X10751667Y-13517952D02*
X10761191Y-13508428D01*
X10761191Y-13508428D02*
X10770714Y-13489381D01*
X10770714Y-13489381D02*
X10770714Y-13441762D01*
X10770714Y-13441762D02*
X10761191Y-13422714D01*
X10761191Y-13422714D02*
X10751667Y-13413190D01*
X10751667Y-13413190D02*
X10732619Y-13403667D01*
X10732619Y-13403667D02*
X10694524Y-13403667D01*
X10694524Y-13403667D02*
X10675476Y-13413190D01*
X10675476Y-13413190D02*
X10665953Y-13422714D01*
X10665953Y-13422714D02*
X10656429Y-13441762D01*
X10976429Y-13527476D02*
X10976429Y-13327476D01*
X11062143Y-13527476D02*
X11062143Y-13422714D01*
X11062143Y-13422714D02*
X11052619Y-13403667D01*
X11052619Y-13403667D02*
X11033572Y-13394143D01*
X11033572Y-13394143D02*
X11005000Y-13394143D01*
X11005000Y-13394143D02*
X10985953Y-13403667D01*
X10985953Y-13403667D02*
X10976429Y-13413190D01*
X11185952Y-13527476D02*
X11166905Y-13517952D01*
X11166905Y-13517952D02*
X11157381Y-13508428D01*
X11157381Y-13508428D02*
X11147857Y-13489381D01*
X11147857Y-13489381D02*
X11147857Y-13432238D01*
X11147857Y-13432238D02*
X11157381Y-13413190D01*
X11157381Y-13413190D02*
X11166905Y-13403667D01*
X11166905Y-13403667D02*
X11185952Y-13394143D01*
X11185952Y-13394143D02*
X11214524Y-13394143D01*
X11214524Y-13394143D02*
X11233572Y-13403667D01*
X11233572Y-13403667D02*
X11243095Y-13413190D01*
X11243095Y-13413190D02*
X11252619Y-13432238D01*
X11252619Y-13432238D02*
X11252619Y-13489381D01*
X11252619Y-13489381D02*
X11243095Y-13508428D01*
X11243095Y-13508428D02*
X11233572Y-13517952D01*
X11233572Y-13517952D02*
X11214524Y-13527476D01*
X11214524Y-13527476D02*
X11185952Y-13527476D01*
X11366905Y-13527476D02*
X11347857Y-13517952D01*
X11347857Y-13517952D02*
X11338333Y-13498905D01*
X11338333Y-13498905D02*
X11338333Y-13327476D01*
X11519286Y-13517952D02*
X11500238Y-13527476D01*
X11500238Y-13527476D02*
X11462143Y-13527476D01*
X11462143Y-13527476D02*
X11443095Y-13517952D01*
X11443095Y-13517952D02*
X11433572Y-13498905D01*
X11433572Y-13498905D02*
X11433572Y-13422714D01*
X11433572Y-13422714D02*
X11443095Y-13403667D01*
X11443095Y-13403667D02*
X11462143Y-13394143D01*
X11462143Y-13394143D02*
X11500238Y-13394143D01*
X11500238Y-13394143D02*
X11519286Y-13403667D01*
X11519286Y-13403667D02*
X11528810Y-13422714D01*
X11528810Y-13422714D02*
X11528810Y-13441762D01*
X11528810Y-13441762D02*
X11433572Y-13460809D01*
X11605000Y-13517952D02*
X11624048Y-13527476D01*
X11624048Y-13527476D02*
X11662143Y-13527476D01*
X11662143Y-13527476D02*
X11681191Y-13517952D01*
X11681191Y-13517952D02*
X11690714Y-13498905D01*
X11690714Y-13498905D02*
X11690714Y-13489381D01*
X11690714Y-13489381D02*
X11681191Y-13470333D01*
X11681191Y-13470333D02*
X11662143Y-13460809D01*
X11662143Y-13460809D02*
X11633572Y-13460809D01*
X11633572Y-13460809D02*
X11614524Y-13451286D01*
X11614524Y-13451286D02*
X11605000Y-13432238D01*
X11605000Y-13432238D02*
X11605000Y-13422714D01*
X11605000Y-13422714D02*
X11614524Y-13403667D01*
X11614524Y-13403667D02*
X11633572Y-13394143D01*
X11633572Y-13394143D02*
X11662143Y-13394143D01*
X11662143Y-13394143D02*
X11681191Y-13403667D01*
X11757381Y-13603667D02*
X11766905Y-13594143D01*
X11766905Y-13594143D02*
X11785953Y-13565571D01*
X11785953Y-13565571D02*
X11795476Y-13546524D01*
X11795476Y-13546524D02*
X11805000Y-13517952D01*
X11805000Y-13517952D02*
X11814524Y-13470333D01*
X11814524Y-13470333D02*
X11814524Y-13432238D01*
X11814524Y-13432238D02*
X11805000Y-13384619D01*
X11805000Y-13384619D02*
X11795476Y-13356048D01*
X11795476Y-13356048D02*
X11785953Y-13337000D01*
X11785953Y-13337000D02*
X11766905Y-13308428D01*
X11766905Y-13308428D02*
X11757381Y-13298905D01*
X12086905Y-13603667D02*
X12077381Y-13594143D01*
X12077381Y-13594143D02*
X12058333Y-13565571D01*
X12058333Y-13565571D02*
X12048810Y-13546524D01*
X12048810Y-13546524D02*
X12039286Y-13517952D01*
X12039286Y-13517952D02*
X12029762Y-13470333D01*
X12029762Y-13470333D02*
X12029762Y-13432238D01*
X12029762Y-13432238D02*
X12039286Y-13384619D01*
X12039286Y-13384619D02*
X12048810Y-13356048D01*
X12048810Y-13356048D02*
X12058333Y-13337000D01*
X12058333Y-13337000D02*
X12077381Y-13308428D01*
X12077381Y-13308428D02*
X12086905Y-13298905D01*
X12163095Y-13394143D02*
X12163095Y-13527476D01*
X12163095Y-13413190D02*
X12172619Y-13403667D01*
X12172619Y-13403667D02*
X12191667Y-13394143D01*
X12191667Y-13394143D02*
X12220238Y-13394143D01*
X12220238Y-13394143D02*
X12239286Y-13403667D01*
X12239286Y-13403667D02*
X12248810Y-13422714D01*
X12248810Y-13422714D02*
X12248810Y-13527476D01*
X12372619Y-13527476D02*
X12353572Y-13517952D01*
X12353572Y-13517952D02*
X12344048Y-13508428D01*
X12344048Y-13508428D02*
X12334524Y-13489381D01*
X12334524Y-13489381D02*
X12334524Y-13432238D01*
X12334524Y-13432238D02*
X12344048Y-13413190D01*
X12344048Y-13413190D02*
X12353572Y-13403667D01*
X12353572Y-13403667D02*
X12372619Y-13394143D01*
X12372619Y-13394143D02*
X12401191Y-13394143D01*
X12401191Y-13394143D02*
X12420238Y-13403667D01*
X12420238Y-13403667D02*
X12429762Y-13413190D01*
X12429762Y-13413190D02*
X12439286Y-13432238D01*
X12439286Y-13432238D02*
X12439286Y-13489381D01*
X12439286Y-13489381D02*
X12429762Y-13508428D01*
X12429762Y-13508428D02*
X12420238Y-13517952D01*
X12420238Y-13517952D02*
X12401191Y-13527476D01*
X12401191Y-13527476D02*
X12372619Y-13527476D01*
X12496429Y-13394143D02*
X12572619Y-13394143D01*
X12525000Y-13327476D02*
X12525000Y-13498905D01*
X12525000Y-13498905D02*
X12534524Y-13517952D01*
X12534524Y-13517952D02*
X12553572Y-13527476D01*
X12553572Y-13527476D02*
X12572619Y-13527476D01*
X12759286Y-13394143D02*
X12759286Y-13594143D01*
X12759286Y-13403667D02*
X12778333Y-13394143D01*
X12778333Y-13394143D02*
X12816429Y-13394143D01*
X12816429Y-13394143D02*
X12835476Y-13403667D01*
X12835476Y-13403667D02*
X12845000Y-13413190D01*
X12845000Y-13413190D02*
X12854524Y-13432238D01*
X12854524Y-13432238D02*
X12854524Y-13489381D01*
X12854524Y-13489381D02*
X12845000Y-13508428D01*
X12845000Y-13508428D02*
X12835476Y-13517952D01*
X12835476Y-13517952D02*
X12816429Y-13527476D01*
X12816429Y-13527476D02*
X12778333Y-13527476D01*
X12778333Y-13527476D02*
X12759286Y-13517952D01*
X12968810Y-13527476D02*
X12949762Y-13517952D01*
X12949762Y-13517952D02*
X12940238Y-13498905D01*
X12940238Y-13498905D02*
X12940238Y-13327476D01*
X13130714Y-13527476D02*
X13130714Y-13422714D01*
X13130714Y-13422714D02*
X13121191Y-13403667D01*
X13121191Y-13403667D02*
X13102143Y-13394143D01*
X13102143Y-13394143D02*
X13064048Y-13394143D01*
X13064048Y-13394143D02*
X13045000Y-13403667D01*
X13130714Y-13517952D02*
X13111667Y-13527476D01*
X13111667Y-13527476D02*
X13064048Y-13527476D01*
X13064048Y-13527476D02*
X13045000Y-13517952D01*
X13045000Y-13517952D02*
X13035476Y-13498905D01*
X13035476Y-13498905D02*
X13035476Y-13479857D01*
X13035476Y-13479857D02*
X13045000Y-13460809D01*
X13045000Y-13460809D02*
X13064048Y-13451286D01*
X13064048Y-13451286D02*
X13111667Y-13451286D01*
X13111667Y-13451286D02*
X13130714Y-13441762D01*
X13197381Y-13394143D02*
X13273572Y-13394143D01*
X13225953Y-13327476D02*
X13225953Y-13498905D01*
X13225953Y-13498905D02*
X13235476Y-13517952D01*
X13235476Y-13517952D02*
X13254524Y-13527476D01*
X13254524Y-13527476D02*
X13273572Y-13527476D01*
X13416429Y-13517952D02*
X13397381Y-13527476D01*
X13397381Y-13527476D02*
X13359286Y-13527476D01*
X13359286Y-13527476D02*
X13340238Y-13517952D01*
X13340238Y-13517952D02*
X13330714Y-13498905D01*
X13330714Y-13498905D02*
X13330714Y-13422714D01*
X13330714Y-13422714D02*
X13340238Y-13403667D01*
X13340238Y-13403667D02*
X13359286Y-13394143D01*
X13359286Y-13394143D02*
X13397381Y-13394143D01*
X13397381Y-13394143D02*
X13416429Y-13403667D01*
X13416429Y-13403667D02*
X13425953Y-13422714D01*
X13425953Y-13422714D02*
X13425953Y-13441762D01*
X13425953Y-13441762D02*
X13330714Y-13460809D01*
X13597381Y-13527476D02*
X13597381Y-13327476D01*
X13597381Y-13517952D02*
X13578334Y-13527476D01*
X13578334Y-13527476D02*
X13540238Y-13527476D01*
X13540238Y-13527476D02*
X13521191Y-13517952D01*
X13521191Y-13517952D02*
X13511667Y-13508428D01*
X13511667Y-13508428D02*
X13502143Y-13489381D01*
X13502143Y-13489381D02*
X13502143Y-13432238D01*
X13502143Y-13432238D02*
X13511667Y-13413190D01*
X13511667Y-13413190D02*
X13521191Y-13403667D01*
X13521191Y-13403667D02*
X13540238Y-13394143D01*
X13540238Y-13394143D02*
X13578334Y-13394143D01*
X13578334Y-13394143D02*
X13597381Y-13403667D01*
X13673572Y-13603667D02*
X13683095Y-13594143D01*
X13683095Y-13594143D02*
X13702143Y-13565571D01*
X13702143Y-13565571D02*
X13711667Y-13546524D01*
X13711667Y-13546524D02*
X13721191Y-13517952D01*
X13721191Y-13517952D02*
X13730714Y-13470333D01*
X13730714Y-13470333D02*
X13730714Y-13432238D01*
X13730714Y-13432238D02*
X13721191Y-13384619D01*
X13721191Y-13384619D02*
X13711667Y-13356048D01*
X13711667Y-13356048D02*
X13702143Y-13337000D01*
X13702143Y-13337000D02*
X13683095Y-13308428D01*
X13683095Y-13308428D02*
X13673572Y-13298905D01*
M02*
