M48
; DRILL file {KiCad (7.0.0-0)} date Friday, 03 March 2023 at 08:57:50
; FORMAT={-:-/ absolute / metric / decimal}
; #@! TF.CreationDate,2023-03-03T08:57:50+01:00
; #@! TF.GenerationSoftware,Kicad,Pcbnew,(7.0.0-0)
; #@! TF.FileFunction,Plated,1,2,PTH
FMAT,2
METRIC
; #@! TA.AperFunction,Plated,PTH,ComponentDrill
T1C0.800
; #@! TA.AperFunction,Plated,PTH,ComponentDrill
T2C1.200
; #@! TA.AperFunction,Plated,PTH,ComponentDrill
T3C2.400
%
G90
G05
T1
X111.552Y-106.568
X111.552Y-114.188
X111.82Y-87.05
X111.82Y-94.67
X115.132Y-106.558
X115.132Y-114.178
X115.15Y-87.05
X115.15Y-94.67
X118.22Y-106.06
X118.22Y-108.6
X118.22Y-111.14
X118.22Y-113.68
X118.37Y-86.56
X118.37Y-89.1
X118.37Y-91.64
X118.37Y-94.18
X125.84Y-106.06
X125.84Y-108.6
X125.84Y-111.14
X125.84Y-113.68
X125.99Y-86.56
X125.99Y-89.1
X125.99Y-91.64
X125.99Y-94.18
X128.912Y-106.598
X128.912Y-114.218
X129.1Y-87.07
X129.1Y-94.69
X132.99Y-77.367
X132.99Y-79.907
X132.99Y-82.447
X132.99Y-84.987
X132.99Y-87.527
X132.99Y-90.067
X132.99Y-92.607
X132.99Y-95.147
X132.99Y-97.687
X132.99Y-100.227
X132.99Y-102.767
X132.99Y-105.307
X132.99Y-107.847
X132.99Y-110.387
X132.99Y-112.927
X132.99Y-115.467
X132.99Y-118.007
X132.99Y-120.547
X132.99Y-123.087
X158.386Y-120.544
X158.386Y-123.084
X158.39Y-77.367
X158.39Y-79.907
X158.39Y-82.447
X158.39Y-84.987
X158.39Y-87.527
X158.39Y-90.067
X158.39Y-92.607
X158.39Y-95.147
X158.39Y-97.687
X158.39Y-100.227
X158.39Y-102.767
X158.39Y-105.307
X158.39Y-107.847
X158.39Y-110.387
X158.39Y-112.927
X158.39Y-115.467
X158.39Y-118.007
X162.228Y-87.232
X162.228Y-94.852
X162.52Y-107.61
X162.52Y-115.23
X165.918Y-87.272
X165.918Y-94.892
X166.06Y-107.62
X166.06Y-115.24
X168.97Y-86.75
X168.97Y-89.29
X168.97Y-91.83
X168.97Y-94.37
X169.21Y-107.13
X169.21Y-109.67
X169.21Y-112.21
X169.21Y-114.75
X176.59Y-86.75
X176.59Y-89.29
X176.59Y-91.83
X176.59Y-94.37
X176.83Y-107.13
X176.83Y-109.67
X176.83Y-112.21
X176.83Y-114.75
X179.548Y-87.232
X179.548Y-94.852
X179.81Y-107.6
X179.81Y-115.22
T2
X120.552Y-102.148
X120.8Y-82.75
X123.092Y-102.148
X123.34Y-82.75
X171.508Y-82.332
X172.0Y-103.16
X174.048Y-82.332
X174.54Y-103.16
T3
X86.28Y-72.1
X98.98Y-72.1
X195.34Y-72.13
X208.04Y-72.13
T0
M30
