%TF.GenerationSoftware,KiCad,Pcbnew,(7.0.0-0)*%
%TF.CreationDate,2023-03-03T08:57:49+01:00*%
%TF.ProjectId,sensor_circuit_board_esp32,73656e73-6f72-45f6-9369-72637569745f,rev?*%
%TF.SameCoordinates,Original*%
%TF.FileFunction,Drillmap*%
%TF.FilePolarity,Positive*%
%FSLAX45Y45*%
G04 Gerber Fmt 4.5, Leading zero omitted, Abs format (unit mm)*
G04 Created by KiCad (PCBNEW (7.0.0-0)) date 2023-03-03 08:57:49*
%MOMM*%
%LPD*%
G01*
G04 APERTURE LIST*
%ADD10C,0.100000*%
%ADD11C,0.200000*%
%ADD12C,0.080000*%
%ADD13C,0.120000*%
%ADD14C,0.240000*%
G04 APERTURE END LIST*
D10*
X7130000Y-6290000D02*
X22143000Y-6290000D01*
X22143000Y-6290000D02*
X22143000Y-12809000D01*
X22143000Y-12809000D02*
X7130000Y-12809000D01*
X7130000Y-12809000D02*
X7130000Y-6290000D01*
D11*
D12*
X11115200Y-10616800D02*
X11195200Y-10696800D01*
X11195200Y-10616800D02*
X11115200Y-10696800D01*
X11115200Y-11378800D02*
X11195200Y-11458800D01*
X11195200Y-11378800D02*
X11115200Y-11458800D01*
X11142000Y-8665000D02*
X11222000Y-8745000D01*
X11222000Y-8665000D02*
X11142000Y-8745000D01*
X11142000Y-9427000D02*
X11222000Y-9507000D01*
X11222000Y-9427000D02*
X11142000Y-9507000D01*
X11473200Y-10615800D02*
X11553200Y-10695800D01*
X11553200Y-10615800D02*
X11473200Y-10695800D01*
X11473200Y-11377800D02*
X11553200Y-11457800D01*
X11553200Y-11377800D02*
X11473200Y-11457800D01*
X11475000Y-8665000D02*
X11555000Y-8745000D01*
X11555000Y-8665000D02*
X11475000Y-8745000D01*
X11475000Y-9427000D02*
X11555000Y-9507000D01*
X11555000Y-9427000D02*
X11475000Y-9507000D01*
X11782000Y-10566000D02*
X11862000Y-10646000D01*
X11862000Y-10566000D02*
X11782000Y-10646000D01*
X11782000Y-10820000D02*
X11862000Y-10900000D01*
X11862000Y-10820000D02*
X11782000Y-10900000D01*
X11782000Y-11074000D02*
X11862000Y-11154000D01*
X11862000Y-11074000D02*
X11782000Y-11154000D01*
X11782000Y-11328000D02*
X11862000Y-11408000D01*
X11862000Y-11328000D02*
X11782000Y-11408000D01*
X11797000Y-8616000D02*
X11877000Y-8696000D01*
X11877000Y-8616000D02*
X11797000Y-8696000D01*
X11797000Y-8870000D02*
X11877000Y-8950000D01*
X11877000Y-8870000D02*
X11797000Y-8950000D01*
X11797000Y-9124000D02*
X11877000Y-9204000D01*
X11877000Y-9124000D02*
X11797000Y-9204000D01*
X11797000Y-9378000D02*
X11877000Y-9458000D01*
X11877000Y-9378000D02*
X11797000Y-9458000D01*
X12544000Y-10566000D02*
X12624000Y-10646000D01*
X12624000Y-10566000D02*
X12544000Y-10646000D01*
X12544000Y-10820000D02*
X12624000Y-10900000D01*
X12624000Y-10820000D02*
X12544000Y-10900000D01*
X12544000Y-11074000D02*
X12624000Y-11154000D01*
X12624000Y-11074000D02*
X12544000Y-11154000D01*
X12544000Y-11328000D02*
X12624000Y-11408000D01*
X12624000Y-11328000D02*
X12544000Y-11408000D01*
X12559000Y-8616000D02*
X12639000Y-8696000D01*
X12639000Y-8616000D02*
X12559000Y-8696000D01*
X12559000Y-8870000D02*
X12639000Y-8950000D01*
X12639000Y-8870000D02*
X12559000Y-8950000D01*
X12559000Y-9124000D02*
X12639000Y-9204000D01*
X12639000Y-9124000D02*
X12559000Y-9204000D01*
X12559000Y-9378000D02*
X12639000Y-9458000D01*
X12639000Y-9378000D02*
X12559000Y-9458000D01*
X12851200Y-10619800D02*
X12931200Y-10699800D01*
X12931200Y-10619800D02*
X12851200Y-10699800D01*
X12851200Y-11381800D02*
X12931200Y-11461800D01*
X12931200Y-11381800D02*
X12851200Y-11461800D01*
X12870000Y-8667000D02*
X12950000Y-8747000D01*
X12950000Y-8667000D02*
X12870000Y-8747000D01*
X12870000Y-9429000D02*
X12950000Y-9509000D01*
X12950000Y-9429000D02*
X12870000Y-9509000D01*
X13259000Y-7696656D02*
X13339000Y-7776656D01*
X13339000Y-7696656D02*
X13259000Y-7776656D01*
X13259000Y-7950656D02*
X13339000Y-8030656D01*
X13339000Y-7950656D02*
X13259000Y-8030656D01*
X13259000Y-8204656D02*
X13339000Y-8284656D01*
X13339000Y-8204656D02*
X13259000Y-8284656D01*
X13259000Y-8458656D02*
X13339000Y-8538656D01*
X13339000Y-8458656D02*
X13259000Y-8538656D01*
X13259000Y-8712656D02*
X13339000Y-8792656D01*
X13339000Y-8712656D02*
X13259000Y-8792656D01*
X13259000Y-8966656D02*
X13339000Y-9046656D01*
X13339000Y-8966656D02*
X13259000Y-9046656D01*
X13259000Y-9220656D02*
X13339000Y-9300656D01*
X13339000Y-9220656D02*
X13259000Y-9300656D01*
X13259000Y-9474656D02*
X13339000Y-9554656D01*
X13339000Y-9474656D02*
X13259000Y-9554656D01*
X13259000Y-9728656D02*
X13339000Y-9808656D01*
X13339000Y-9728656D02*
X13259000Y-9808656D01*
X13259000Y-9982656D02*
X13339000Y-10062656D01*
X13339000Y-9982656D02*
X13259000Y-10062656D01*
X13259000Y-10236656D02*
X13339000Y-10316656D01*
X13339000Y-10236656D02*
X13259000Y-10316656D01*
X13259000Y-10490656D02*
X13339000Y-10570656D01*
X13339000Y-10490656D02*
X13259000Y-10570656D01*
X13259000Y-10744656D02*
X13339000Y-10824656D01*
X13339000Y-10744656D02*
X13259000Y-10824656D01*
X13259000Y-10998656D02*
X13339000Y-11078656D01*
X13339000Y-10998656D02*
X13259000Y-11078656D01*
X13259000Y-11252656D02*
X13339000Y-11332656D01*
X13339000Y-11252656D02*
X13259000Y-11332656D01*
X13259000Y-11506656D02*
X13339000Y-11586656D01*
X13339000Y-11506656D02*
X13259000Y-11586656D01*
X13259000Y-11760656D02*
X13339000Y-11840656D01*
X13339000Y-11760656D02*
X13259000Y-11840656D01*
X13259000Y-12014656D02*
X13339000Y-12094656D01*
X13339000Y-12014656D02*
X13259000Y-12094656D01*
X13259000Y-12268656D02*
X13339000Y-12348656D01*
X13339000Y-12268656D02*
X13259000Y-12348656D01*
X15798632Y-12014384D02*
X15878632Y-12094384D01*
X15878632Y-12014384D02*
X15798632Y-12094384D01*
X15798632Y-12268384D02*
X15878632Y-12348384D01*
X15878632Y-12268384D02*
X15798632Y-12348384D01*
X15799000Y-7696656D02*
X15879000Y-7776656D01*
X15879000Y-7696656D02*
X15799000Y-7776656D01*
X15799000Y-7950656D02*
X15879000Y-8030656D01*
X15879000Y-7950656D02*
X15799000Y-8030656D01*
X15799000Y-8204656D02*
X15879000Y-8284656D01*
X15879000Y-8204656D02*
X15799000Y-8284656D01*
X15799000Y-8458656D02*
X15879000Y-8538656D01*
X15879000Y-8458656D02*
X15799000Y-8538656D01*
X15799000Y-8712656D02*
X15879000Y-8792656D01*
X15879000Y-8712656D02*
X15799000Y-8792656D01*
X15799000Y-8966656D02*
X15879000Y-9046656D01*
X15879000Y-8966656D02*
X15799000Y-9046656D01*
X15799000Y-9220656D02*
X15879000Y-9300656D01*
X15879000Y-9220656D02*
X15799000Y-9300656D01*
X15799000Y-9474656D02*
X15879000Y-9554656D01*
X15879000Y-9474656D02*
X15799000Y-9554656D01*
X15799000Y-9728656D02*
X15879000Y-9808656D01*
X15879000Y-9728656D02*
X15799000Y-9808656D01*
X15799000Y-9982656D02*
X15879000Y-10062656D01*
X15879000Y-9982656D02*
X15799000Y-10062656D01*
X15799000Y-10236656D02*
X15879000Y-10316656D01*
X15879000Y-10236656D02*
X15799000Y-10316656D01*
X15799000Y-10490656D02*
X15879000Y-10570656D01*
X15879000Y-10490656D02*
X15799000Y-10570656D01*
X15799000Y-10744656D02*
X15879000Y-10824656D01*
X15879000Y-10744656D02*
X15799000Y-10824656D01*
X15799000Y-10998656D02*
X15879000Y-11078656D01*
X15879000Y-10998656D02*
X15799000Y-11078656D01*
X15799000Y-11252656D02*
X15879000Y-11332656D01*
X15879000Y-11252656D02*
X15799000Y-11332656D01*
X15799000Y-11506656D02*
X15879000Y-11586656D01*
X15879000Y-11506656D02*
X15799000Y-11586656D01*
X15799000Y-11760656D02*
X15879000Y-11840656D01*
X15879000Y-11760656D02*
X15799000Y-11840656D01*
X16182800Y-8683200D02*
X16262800Y-8763200D01*
X16262800Y-8683200D02*
X16182800Y-8763200D01*
X16182800Y-9445200D02*
X16262800Y-9525200D01*
X16262800Y-9445200D02*
X16182800Y-9525200D01*
X16212000Y-10721000D02*
X16292000Y-10801000D01*
X16292000Y-10721000D02*
X16212000Y-10801000D01*
X16212000Y-11483000D02*
X16292000Y-11563000D01*
X16292000Y-11483000D02*
X16212000Y-11563000D01*
X16551800Y-8687200D02*
X16631800Y-8767200D01*
X16631800Y-8687200D02*
X16551800Y-8767200D01*
X16551800Y-9449200D02*
X16631800Y-9529200D01*
X16631800Y-9449200D02*
X16551800Y-9529200D01*
X16566000Y-10722000D02*
X16646000Y-10802000D01*
X16646000Y-10722000D02*
X16566000Y-10802000D01*
X16566000Y-11484000D02*
X16646000Y-11564000D01*
X16646000Y-11484000D02*
X16566000Y-11564000D01*
X16857000Y-8635000D02*
X16937000Y-8715000D01*
X16937000Y-8635000D02*
X16857000Y-8715000D01*
X16857000Y-8889000D02*
X16937000Y-8969000D01*
X16937000Y-8889000D02*
X16857000Y-8969000D01*
X16857000Y-9143000D02*
X16937000Y-9223000D01*
X16937000Y-9143000D02*
X16857000Y-9223000D01*
X16857000Y-9397000D02*
X16937000Y-9477000D01*
X16937000Y-9397000D02*
X16857000Y-9477000D01*
X16881000Y-10673000D02*
X16961000Y-10753000D01*
X16961000Y-10673000D02*
X16881000Y-10753000D01*
X16881000Y-10927000D02*
X16961000Y-11007000D01*
X16961000Y-10927000D02*
X16881000Y-11007000D01*
X16881000Y-11181000D02*
X16961000Y-11261000D01*
X16961000Y-11181000D02*
X16881000Y-11261000D01*
X16881000Y-11435000D02*
X16961000Y-11515000D01*
X16961000Y-11435000D02*
X16881000Y-11515000D01*
X17619000Y-8635000D02*
X17699000Y-8715000D01*
X17699000Y-8635000D02*
X17619000Y-8715000D01*
X17619000Y-8889000D02*
X17699000Y-8969000D01*
X17699000Y-8889000D02*
X17619000Y-8969000D01*
X17619000Y-9143000D02*
X17699000Y-9223000D01*
X17699000Y-9143000D02*
X17619000Y-9223000D01*
X17619000Y-9397000D02*
X17699000Y-9477000D01*
X17699000Y-9397000D02*
X17619000Y-9477000D01*
X17643000Y-10673000D02*
X17723000Y-10753000D01*
X17723000Y-10673000D02*
X17643000Y-10753000D01*
X17643000Y-10927000D02*
X17723000Y-11007000D01*
X17723000Y-10927000D02*
X17643000Y-11007000D01*
X17643000Y-11181000D02*
X17723000Y-11261000D01*
X17723000Y-11181000D02*
X17643000Y-11261000D01*
X17643000Y-11435000D02*
X17723000Y-11515000D01*
X17723000Y-11435000D02*
X17643000Y-11515000D01*
X17914800Y-8683200D02*
X17994800Y-8763200D01*
X17994800Y-8683200D02*
X17914800Y-8763200D01*
X17914800Y-9445200D02*
X17994800Y-9525200D01*
X17994800Y-9445200D02*
X17914800Y-9525200D01*
X17941000Y-10720000D02*
X18021000Y-10800000D01*
X18021000Y-10720000D02*
X17941000Y-10800000D01*
X17941000Y-11482000D02*
X18021000Y-11562000D01*
X18021000Y-11482000D02*
X17941000Y-11562000D01*
D13*
X12115200Y-10214800D02*
G75*
G03*
X12115200Y-10214800I-60000J0D01*
G01*
X12140000Y-8275000D02*
G75*
G03*
X12140000Y-8275000I-60000J0D01*
G01*
X12369200Y-10214800D02*
G75*
G03*
X12369200Y-10214800I-60000J0D01*
G01*
X12394000Y-8275000D02*
G75*
G03*
X12394000Y-8275000I-60000J0D01*
G01*
X17210800Y-8233200D02*
G75*
G03*
X17210800Y-8233200I-60000J0D01*
G01*
X17260000Y-10316000D02*
G75*
G03*
X17260000Y-10316000I-60000J0D01*
G01*
X17464800Y-8233200D02*
G75*
G03*
X17464800Y-8233200I-60000J0D01*
G01*
X17514000Y-10316000D02*
G75*
G03*
X17514000Y-10316000I-60000J0D01*
G01*
D14*
X8628000Y-7090000D02*
X8628000Y-7330000D01*
X8508000Y-7210000D02*
X8748000Y-7210000D01*
X9898000Y-7090000D02*
X9898000Y-7330000D01*
X9778000Y-7210000D02*
X10018000Y-7210000D01*
X19534000Y-7093000D02*
X19534000Y-7333000D01*
X19414000Y-7213000D02*
X19654000Y-7213000D01*
X20804000Y-7093000D02*
X20804000Y-7333000D01*
X20684000Y-7213000D02*
X20924000Y-7213000D01*
D11*
X7372619Y-13107476D02*
X7372619Y-12907476D01*
X7372619Y-12907476D02*
X7420238Y-12907476D01*
X7420238Y-12907476D02*
X7448809Y-12917000D01*
X7448809Y-12917000D02*
X7467857Y-12936048D01*
X7467857Y-12936048D02*
X7477381Y-12955095D01*
X7477381Y-12955095D02*
X7486905Y-12993190D01*
X7486905Y-12993190D02*
X7486905Y-13021762D01*
X7486905Y-13021762D02*
X7477381Y-13059857D01*
X7477381Y-13059857D02*
X7467857Y-13078905D01*
X7467857Y-13078905D02*
X7448809Y-13097952D01*
X7448809Y-13097952D02*
X7420238Y-13107476D01*
X7420238Y-13107476D02*
X7372619Y-13107476D01*
X7572619Y-13107476D02*
X7572619Y-12974143D01*
X7572619Y-13012238D02*
X7582143Y-12993190D01*
X7582143Y-12993190D02*
X7591667Y-12983667D01*
X7591667Y-12983667D02*
X7610714Y-12974143D01*
X7610714Y-12974143D02*
X7629762Y-12974143D01*
X7696428Y-13107476D02*
X7696428Y-12974143D01*
X7696428Y-12907476D02*
X7686905Y-12917000D01*
X7686905Y-12917000D02*
X7696428Y-12926524D01*
X7696428Y-12926524D02*
X7705952Y-12917000D01*
X7705952Y-12917000D02*
X7696428Y-12907476D01*
X7696428Y-12907476D02*
X7696428Y-12926524D01*
X7820238Y-13107476D02*
X7801190Y-13097952D01*
X7801190Y-13097952D02*
X7791667Y-13078905D01*
X7791667Y-13078905D02*
X7791667Y-12907476D01*
X7925000Y-13107476D02*
X7905952Y-13097952D01*
X7905952Y-13097952D02*
X7896428Y-13078905D01*
X7896428Y-13078905D02*
X7896428Y-12907476D01*
X8121190Y-13107476D02*
X8121190Y-12907476D01*
X8121190Y-12907476D02*
X8187857Y-13050333D01*
X8187857Y-13050333D02*
X8254524Y-12907476D01*
X8254524Y-12907476D02*
X8254524Y-13107476D01*
X8435476Y-13107476D02*
X8435476Y-13002714D01*
X8435476Y-13002714D02*
X8425952Y-12983667D01*
X8425952Y-12983667D02*
X8406905Y-12974143D01*
X8406905Y-12974143D02*
X8368809Y-12974143D01*
X8368809Y-12974143D02*
X8349762Y-12983667D01*
X8435476Y-13097952D02*
X8416429Y-13107476D01*
X8416429Y-13107476D02*
X8368809Y-13107476D01*
X8368809Y-13107476D02*
X8349762Y-13097952D01*
X8349762Y-13097952D02*
X8340238Y-13078905D01*
X8340238Y-13078905D02*
X8340238Y-13059857D01*
X8340238Y-13059857D02*
X8349762Y-13040809D01*
X8349762Y-13040809D02*
X8368809Y-13031286D01*
X8368809Y-13031286D02*
X8416429Y-13031286D01*
X8416429Y-13031286D02*
X8435476Y-13021762D01*
X8530714Y-12974143D02*
X8530714Y-13174143D01*
X8530714Y-12983667D02*
X8549762Y-12974143D01*
X8549762Y-12974143D02*
X8587857Y-12974143D01*
X8587857Y-12974143D02*
X8606905Y-12983667D01*
X8606905Y-12983667D02*
X8616429Y-12993190D01*
X8616429Y-12993190D02*
X8625952Y-13012238D01*
X8625952Y-13012238D02*
X8625952Y-13069381D01*
X8625952Y-13069381D02*
X8616429Y-13088428D01*
X8616429Y-13088428D02*
X8606905Y-13097952D01*
X8606905Y-13097952D02*
X8587857Y-13107476D01*
X8587857Y-13107476D02*
X8549762Y-13107476D01*
X8549762Y-13107476D02*
X8530714Y-13097952D01*
X8711667Y-13088428D02*
X8721190Y-13097952D01*
X8721190Y-13097952D02*
X8711667Y-13107476D01*
X8711667Y-13107476D02*
X8702143Y-13097952D01*
X8702143Y-13097952D02*
X8711667Y-13088428D01*
X8711667Y-13088428D02*
X8711667Y-13107476D01*
X8711667Y-12983667D02*
X8721190Y-12993190D01*
X8721190Y-12993190D02*
X8711667Y-13002714D01*
X8711667Y-13002714D02*
X8702143Y-12993190D01*
X8702143Y-12993190D02*
X8711667Y-12983667D01*
X8711667Y-12983667D02*
X8711667Y-13002714D01*
D12*
X7045000Y-13414000D02*
X7125000Y-13494000D01*
X7125000Y-13414000D02*
X7045000Y-13494000D01*
D11*
X7410714Y-13327476D02*
X7429762Y-13327476D01*
X7429762Y-13327476D02*
X7448809Y-13337000D01*
X7448809Y-13337000D02*
X7458333Y-13346524D01*
X7458333Y-13346524D02*
X7467857Y-13365571D01*
X7467857Y-13365571D02*
X7477381Y-13403667D01*
X7477381Y-13403667D02*
X7477381Y-13451286D01*
X7477381Y-13451286D02*
X7467857Y-13489381D01*
X7467857Y-13489381D02*
X7458333Y-13508428D01*
X7458333Y-13508428D02*
X7448809Y-13517952D01*
X7448809Y-13517952D02*
X7429762Y-13527476D01*
X7429762Y-13527476D02*
X7410714Y-13527476D01*
X7410714Y-13527476D02*
X7391667Y-13517952D01*
X7391667Y-13517952D02*
X7382143Y-13508428D01*
X7382143Y-13508428D02*
X7372619Y-13489381D01*
X7372619Y-13489381D02*
X7363095Y-13451286D01*
X7363095Y-13451286D02*
X7363095Y-13403667D01*
X7363095Y-13403667D02*
X7372619Y-13365571D01*
X7372619Y-13365571D02*
X7382143Y-13346524D01*
X7382143Y-13346524D02*
X7391667Y-13337000D01*
X7391667Y-13337000D02*
X7410714Y-13327476D01*
X7563095Y-13508428D02*
X7572619Y-13517952D01*
X7572619Y-13517952D02*
X7563095Y-13527476D01*
X7563095Y-13527476D02*
X7553571Y-13517952D01*
X7553571Y-13517952D02*
X7563095Y-13508428D01*
X7563095Y-13508428D02*
X7563095Y-13527476D01*
X7686905Y-13413190D02*
X7667857Y-13403667D01*
X7667857Y-13403667D02*
X7658333Y-13394143D01*
X7658333Y-13394143D02*
X7648809Y-13375095D01*
X7648809Y-13375095D02*
X7648809Y-13365571D01*
X7648809Y-13365571D02*
X7658333Y-13346524D01*
X7658333Y-13346524D02*
X7667857Y-13337000D01*
X7667857Y-13337000D02*
X7686905Y-13327476D01*
X7686905Y-13327476D02*
X7725000Y-13327476D01*
X7725000Y-13327476D02*
X7744048Y-13337000D01*
X7744048Y-13337000D02*
X7753571Y-13346524D01*
X7753571Y-13346524D02*
X7763095Y-13365571D01*
X7763095Y-13365571D02*
X7763095Y-13375095D01*
X7763095Y-13375095D02*
X7753571Y-13394143D01*
X7753571Y-13394143D02*
X7744048Y-13403667D01*
X7744048Y-13403667D02*
X7725000Y-13413190D01*
X7725000Y-13413190D02*
X7686905Y-13413190D01*
X7686905Y-13413190D02*
X7667857Y-13422714D01*
X7667857Y-13422714D02*
X7658333Y-13432238D01*
X7658333Y-13432238D02*
X7648809Y-13451286D01*
X7648809Y-13451286D02*
X7648809Y-13489381D01*
X7648809Y-13489381D02*
X7658333Y-13508428D01*
X7658333Y-13508428D02*
X7667857Y-13517952D01*
X7667857Y-13517952D02*
X7686905Y-13527476D01*
X7686905Y-13527476D02*
X7725000Y-13527476D01*
X7725000Y-13527476D02*
X7744048Y-13517952D01*
X7744048Y-13517952D02*
X7753571Y-13508428D01*
X7753571Y-13508428D02*
X7763095Y-13489381D01*
X7763095Y-13489381D02*
X7763095Y-13451286D01*
X7763095Y-13451286D02*
X7753571Y-13432238D01*
X7753571Y-13432238D02*
X7744048Y-13422714D01*
X7744048Y-13422714D02*
X7725000Y-13413190D01*
X7886905Y-13327476D02*
X7905952Y-13327476D01*
X7905952Y-13327476D02*
X7925000Y-13337000D01*
X7925000Y-13337000D02*
X7934524Y-13346524D01*
X7934524Y-13346524D02*
X7944048Y-13365571D01*
X7944048Y-13365571D02*
X7953571Y-13403667D01*
X7953571Y-13403667D02*
X7953571Y-13451286D01*
X7953571Y-13451286D02*
X7944048Y-13489381D01*
X7944048Y-13489381D02*
X7934524Y-13508428D01*
X7934524Y-13508428D02*
X7925000Y-13517952D01*
X7925000Y-13517952D02*
X7905952Y-13527476D01*
X7905952Y-13527476D02*
X7886905Y-13527476D01*
X7886905Y-13527476D02*
X7867857Y-13517952D01*
X7867857Y-13517952D02*
X7858333Y-13508428D01*
X7858333Y-13508428D02*
X7848809Y-13489381D01*
X7848809Y-13489381D02*
X7839286Y-13451286D01*
X7839286Y-13451286D02*
X7839286Y-13403667D01*
X7839286Y-13403667D02*
X7848809Y-13365571D01*
X7848809Y-13365571D02*
X7858333Y-13346524D01*
X7858333Y-13346524D02*
X7867857Y-13337000D01*
X7867857Y-13337000D02*
X7886905Y-13327476D01*
X8077381Y-13327476D02*
X8096429Y-13327476D01*
X8096429Y-13327476D02*
X8115476Y-13337000D01*
X8115476Y-13337000D02*
X8125000Y-13346524D01*
X8125000Y-13346524D02*
X8134524Y-13365571D01*
X8134524Y-13365571D02*
X8144048Y-13403667D01*
X8144048Y-13403667D02*
X8144048Y-13451286D01*
X8144048Y-13451286D02*
X8134524Y-13489381D01*
X8134524Y-13489381D02*
X8125000Y-13508428D01*
X8125000Y-13508428D02*
X8115476Y-13517952D01*
X8115476Y-13517952D02*
X8096429Y-13527476D01*
X8096429Y-13527476D02*
X8077381Y-13527476D01*
X8077381Y-13527476D02*
X8058333Y-13517952D01*
X8058333Y-13517952D02*
X8048809Y-13508428D01*
X8048809Y-13508428D02*
X8039286Y-13489381D01*
X8039286Y-13489381D02*
X8029762Y-13451286D01*
X8029762Y-13451286D02*
X8029762Y-13403667D01*
X8029762Y-13403667D02*
X8039286Y-13365571D01*
X8039286Y-13365571D02*
X8048809Y-13346524D01*
X8048809Y-13346524D02*
X8058333Y-13337000D01*
X8058333Y-13337000D02*
X8077381Y-13327476D01*
X8229762Y-13527476D02*
X8229762Y-13394143D01*
X8229762Y-13413190D02*
X8239286Y-13403667D01*
X8239286Y-13403667D02*
X8258333Y-13394143D01*
X8258333Y-13394143D02*
X8286905Y-13394143D01*
X8286905Y-13394143D02*
X8305952Y-13403667D01*
X8305952Y-13403667D02*
X8315476Y-13422714D01*
X8315476Y-13422714D02*
X8315476Y-13527476D01*
X8315476Y-13422714D02*
X8325000Y-13403667D01*
X8325000Y-13403667D02*
X8344048Y-13394143D01*
X8344048Y-13394143D02*
X8372619Y-13394143D01*
X8372619Y-13394143D02*
X8391667Y-13403667D01*
X8391667Y-13403667D02*
X8401191Y-13422714D01*
X8401191Y-13422714D02*
X8401191Y-13527476D01*
X8496429Y-13527476D02*
X8496429Y-13394143D01*
X8496429Y-13413190D02*
X8505952Y-13403667D01*
X8505952Y-13403667D02*
X8525000Y-13394143D01*
X8525000Y-13394143D02*
X8553572Y-13394143D01*
X8553572Y-13394143D02*
X8572619Y-13403667D01*
X8572619Y-13403667D02*
X8582143Y-13422714D01*
X8582143Y-13422714D02*
X8582143Y-13527476D01*
X8582143Y-13422714D02*
X8591667Y-13403667D01*
X8591667Y-13403667D02*
X8610714Y-13394143D01*
X8610714Y-13394143D02*
X8639286Y-13394143D01*
X8639286Y-13394143D02*
X8658333Y-13403667D01*
X8658333Y-13403667D02*
X8667857Y-13422714D01*
X8667857Y-13422714D02*
X8667857Y-13527476D01*
X9025952Y-13317952D02*
X8854524Y-13575095D01*
X9250714Y-13327476D02*
X9269762Y-13327476D01*
X9269762Y-13327476D02*
X9288810Y-13337000D01*
X9288810Y-13337000D02*
X9298333Y-13346524D01*
X9298333Y-13346524D02*
X9307857Y-13365571D01*
X9307857Y-13365571D02*
X9317381Y-13403667D01*
X9317381Y-13403667D02*
X9317381Y-13451286D01*
X9317381Y-13451286D02*
X9307857Y-13489381D01*
X9307857Y-13489381D02*
X9298333Y-13508428D01*
X9298333Y-13508428D02*
X9288810Y-13517952D01*
X9288810Y-13517952D02*
X9269762Y-13527476D01*
X9269762Y-13527476D02*
X9250714Y-13527476D01*
X9250714Y-13527476D02*
X9231667Y-13517952D01*
X9231667Y-13517952D02*
X9222143Y-13508428D01*
X9222143Y-13508428D02*
X9212619Y-13489381D01*
X9212619Y-13489381D02*
X9203095Y-13451286D01*
X9203095Y-13451286D02*
X9203095Y-13403667D01*
X9203095Y-13403667D02*
X9212619Y-13365571D01*
X9212619Y-13365571D02*
X9222143Y-13346524D01*
X9222143Y-13346524D02*
X9231667Y-13337000D01*
X9231667Y-13337000D02*
X9250714Y-13327476D01*
X9403095Y-13508428D02*
X9412619Y-13517952D01*
X9412619Y-13517952D02*
X9403095Y-13527476D01*
X9403095Y-13527476D02*
X9393572Y-13517952D01*
X9393572Y-13517952D02*
X9403095Y-13508428D01*
X9403095Y-13508428D02*
X9403095Y-13527476D01*
X9536429Y-13327476D02*
X9555476Y-13327476D01*
X9555476Y-13327476D02*
X9574524Y-13337000D01*
X9574524Y-13337000D02*
X9584048Y-13346524D01*
X9584048Y-13346524D02*
X9593572Y-13365571D01*
X9593572Y-13365571D02*
X9603095Y-13403667D01*
X9603095Y-13403667D02*
X9603095Y-13451286D01*
X9603095Y-13451286D02*
X9593572Y-13489381D01*
X9593572Y-13489381D02*
X9584048Y-13508428D01*
X9584048Y-13508428D02*
X9574524Y-13517952D01*
X9574524Y-13517952D02*
X9555476Y-13527476D01*
X9555476Y-13527476D02*
X9536429Y-13527476D01*
X9536429Y-13527476D02*
X9517381Y-13517952D01*
X9517381Y-13517952D02*
X9507857Y-13508428D01*
X9507857Y-13508428D02*
X9498333Y-13489381D01*
X9498333Y-13489381D02*
X9488810Y-13451286D01*
X9488810Y-13451286D02*
X9488810Y-13403667D01*
X9488810Y-13403667D02*
X9498333Y-13365571D01*
X9498333Y-13365571D02*
X9507857Y-13346524D01*
X9507857Y-13346524D02*
X9517381Y-13337000D01*
X9517381Y-13337000D02*
X9536429Y-13327476D01*
X9669762Y-13327476D02*
X9793572Y-13327476D01*
X9793572Y-13327476D02*
X9726905Y-13403667D01*
X9726905Y-13403667D02*
X9755476Y-13403667D01*
X9755476Y-13403667D02*
X9774524Y-13413190D01*
X9774524Y-13413190D02*
X9784048Y-13422714D01*
X9784048Y-13422714D02*
X9793572Y-13441762D01*
X9793572Y-13441762D02*
X9793572Y-13489381D01*
X9793572Y-13489381D02*
X9784048Y-13508428D01*
X9784048Y-13508428D02*
X9774524Y-13517952D01*
X9774524Y-13517952D02*
X9755476Y-13527476D01*
X9755476Y-13527476D02*
X9698333Y-13527476D01*
X9698333Y-13527476D02*
X9679286Y-13517952D01*
X9679286Y-13517952D02*
X9669762Y-13508428D01*
X9984048Y-13527476D02*
X9869762Y-13527476D01*
X9926905Y-13527476D02*
X9926905Y-13327476D01*
X9926905Y-13327476D02*
X9907857Y-13356048D01*
X9907857Y-13356048D02*
X9888810Y-13375095D01*
X9888810Y-13375095D02*
X9869762Y-13384619D01*
X10165000Y-13327476D02*
X10069762Y-13327476D01*
X10069762Y-13327476D02*
X10060238Y-13422714D01*
X10060238Y-13422714D02*
X10069762Y-13413190D01*
X10069762Y-13413190D02*
X10088810Y-13403667D01*
X10088810Y-13403667D02*
X10136429Y-13403667D01*
X10136429Y-13403667D02*
X10155476Y-13413190D01*
X10155476Y-13413190D02*
X10165000Y-13422714D01*
X10165000Y-13422714D02*
X10174524Y-13441762D01*
X10174524Y-13441762D02*
X10174524Y-13489381D01*
X10174524Y-13489381D02*
X10165000Y-13508428D01*
X10165000Y-13508428D02*
X10155476Y-13517952D01*
X10155476Y-13517952D02*
X10136429Y-13527476D01*
X10136429Y-13527476D02*
X10088810Y-13527476D01*
X10088810Y-13527476D02*
X10069762Y-13517952D01*
X10069762Y-13517952D02*
X10060238Y-13508428D01*
X10250714Y-13327476D02*
X10250714Y-13365571D01*
X10326905Y-13327476D02*
X10326905Y-13365571D01*
X10589762Y-13603667D02*
X10580238Y-13594143D01*
X10580238Y-13594143D02*
X10561191Y-13565571D01*
X10561191Y-13565571D02*
X10551667Y-13546524D01*
X10551667Y-13546524D02*
X10542143Y-13517952D01*
X10542143Y-13517952D02*
X10532619Y-13470333D01*
X10532619Y-13470333D02*
X10532619Y-13432238D01*
X10532619Y-13432238D02*
X10542143Y-13384619D01*
X10542143Y-13384619D02*
X10551667Y-13356048D01*
X10551667Y-13356048D02*
X10561191Y-13337000D01*
X10561191Y-13337000D02*
X10580238Y-13308428D01*
X10580238Y-13308428D02*
X10589762Y-13298905D01*
X10675476Y-13527476D02*
X10713572Y-13527476D01*
X10713572Y-13527476D02*
X10732619Y-13517952D01*
X10732619Y-13517952D02*
X10742143Y-13508428D01*
X10742143Y-13508428D02*
X10761191Y-13479857D01*
X10761191Y-13479857D02*
X10770714Y-13441762D01*
X10770714Y-13441762D02*
X10770714Y-13365571D01*
X10770714Y-13365571D02*
X10761191Y-13346524D01*
X10761191Y-13346524D02*
X10751667Y-13337000D01*
X10751667Y-13337000D02*
X10732619Y-13327476D01*
X10732619Y-13327476D02*
X10694524Y-13327476D01*
X10694524Y-13327476D02*
X10675476Y-13337000D01*
X10675476Y-13337000D02*
X10665953Y-13346524D01*
X10665953Y-13346524D02*
X10656429Y-13365571D01*
X10656429Y-13365571D02*
X10656429Y-13413190D01*
X10656429Y-13413190D02*
X10665953Y-13432238D01*
X10665953Y-13432238D02*
X10675476Y-13441762D01*
X10675476Y-13441762D02*
X10694524Y-13451286D01*
X10694524Y-13451286D02*
X10732619Y-13451286D01*
X10732619Y-13451286D02*
X10751667Y-13441762D01*
X10751667Y-13441762D02*
X10761191Y-13432238D01*
X10761191Y-13432238D02*
X10770714Y-13413190D01*
X10942143Y-13394143D02*
X10942143Y-13527476D01*
X10894524Y-13317952D02*
X10846905Y-13460809D01*
X10846905Y-13460809D02*
X10970714Y-13460809D01*
X11166905Y-13527476D02*
X11166905Y-13327476D01*
X11252619Y-13527476D02*
X11252619Y-13422714D01*
X11252619Y-13422714D02*
X11243095Y-13403667D01*
X11243095Y-13403667D02*
X11224048Y-13394143D01*
X11224048Y-13394143D02*
X11195476Y-13394143D01*
X11195476Y-13394143D02*
X11176429Y-13403667D01*
X11176429Y-13403667D02*
X11166905Y-13413190D01*
X11376429Y-13527476D02*
X11357381Y-13517952D01*
X11357381Y-13517952D02*
X11347857Y-13508428D01*
X11347857Y-13508428D02*
X11338333Y-13489381D01*
X11338333Y-13489381D02*
X11338333Y-13432238D01*
X11338333Y-13432238D02*
X11347857Y-13413190D01*
X11347857Y-13413190D02*
X11357381Y-13403667D01*
X11357381Y-13403667D02*
X11376429Y-13394143D01*
X11376429Y-13394143D02*
X11405000Y-13394143D01*
X11405000Y-13394143D02*
X11424048Y-13403667D01*
X11424048Y-13403667D02*
X11433572Y-13413190D01*
X11433572Y-13413190D02*
X11443095Y-13432238D01*
X11443095Y-13432238D02*
X11443095Y-13489381D01*
X11443095Y-13489381D02*
X11433572Y-13508428D01*
X11433572Y-13508428D02*
X11424048Y-13517952D01*
X11424048Y-13517952D02*
X11405000Y-13527476D01*
X11405000Y-13527476D02*
X11376429Y-13527476D01*
X11557381Y-13527476D02*
X11538333Y-13517952D01*
X11538333Y-13517952D02*
X11528810Y-13498905D01*
X11528810Y-13498905D02*
X11528810Y-13327476D01*
X11709762Y-13517952D02*
X11690714Y-13527476D01*
X11690714Y-13527476D02*
X11652619Y-13527476D01*
X11652619Y-13527476D02*
X11633572Y-13517952D01*
X11633572Y-13517952D02*
X11624048Y-13498905D01*
X11624048Y-13498905D02*
X11624048Y-13422714D01*
X11624048Y-13422714D02*
X11633572Y-13403667D01*
X11633572Y-13403667D02*
X11652619Y-13394143D01*
X11652619Y-13394143D02*
X11690714Y-13394143D01*
X11690714Y-13394143D02*
X11709762Y-13403667D01*
X11709762Y-13403667D02*
X11719286Y-13422714D01*
X11719286Y-13422714D02*
X11719286Y-13441762D01*
X11719286Y-13441762D02*
X11624048Y-13460809D01*
X11795476Y-13517952D02*
X11814524Y-13527476D01*
X11814524Y-13527476D02*
X11852619Y-13527476D01*
X11852619Y-13527476D02*
X11871667Y-13517952D01*
X11871667Y-13517952D02*
X11881191Y-13498905D01*
X11881191Y-13498905D02*
X11881191Y-13489381D01*
X11881191Y-13489381D02*
X11871667Y-13470333D01*
X11871667Y-13470333D02*
X11852619Y-13460809D01*
X11852619Y-13460809D02*
X11824048Y-13460809D01*
X11824048Y-13460809D02*
X11805000Y-13451286D01*
X11805000Y-13451286D02*
X11795476Y-13432238D01*
X11795476Y-13432238D02*
X11795476Y-13422714D01*
X11795476Y-13422714D02*
X11805000Y-13403667D01*
X11805000Y-13403667D02*
X11824048Y-13394143D01*
X11824048Y-13394143D02*
X11852619Y-13394143D01*
X11852619Y-13394143D02*
X11871667Y-13403667D01*
X11947857Y-13603667D02*
X11957381Y-13594143D01*
X11957381Y-13594143D02*
X11976429Y-13565571D01*
X11976429Y-13565571D02*
X11985953Y-13546524D01*
X11985953Y-13546524D02*
X11995476Y-13517952D01*
X11995476Y-13517952D02*
X12005000Y-13470333D01*
X12005000Y-13470333D02*
X12005000Y-13432238D01*
X12005000Y-13432238D02*
X11995476Y-13384619D01*
X11995476Y-13384619D02*
X11985953Y-13356048D01*
X11985953Y-13356048D02*
X11976429Y-13337000D01*
X11976429Y-13337000D02*
X11957381Y-13308428D01*
X11957381Y-13308428D02*
X11947857Y-13298905D01*
D13*
X7125000Y-13718000D02*
G75*
G03*
X7125000Y-13718000I-60000J0D01*
G01*
D11*
X7477381Y-13791476D02*
X7363095Y-13791476D01*
X7420238Y-13791476D02*
X7420238Y-13591476D01*
X7420238Y-13591476D02*
X7401190Y-13620048D01*
X7401190Y-13620048D02*
X7382143Y-13639095D01*
X7382143Y-13639095D02*
X7363095Y-13648619D01*
X7563095Y-13772428D02*
X7572619Y-13781952D01*
X7572619Y-13781952D02*
X7563095Y-13791476D01*
X7563095Y-13791476D02*
X7553571Y-13781952D01*
X7553571Y-13781952D02*
X7563095Y-13772428D01*
X7563095Y-13772428D02*
X7563095Y-13791476D01*
X7648809Y-13610524D02*
X7658333Y-13601000D01*
X7658333Y-13601000D02*
X7677381Y-13591476D01*
X7677381Y-13591476D02*
X7725000Y-13591476D01*
X7725000Y-13591476D02*
X7744048Y-13601000D01*
X7744048Y-13601000D02*
X7753571Y-13610524D01*
X7753571Y-13610524D02*
X7763095Y-13629571D01*
X7763095Y-13629571D02*
X7763095Y-13648619D01*
X7763095Y-13648619D02*
X7753571Y-13677190D01*
X7753571Y-13677190D02*
X7639286Y-13791476D01*
X7639286Y-13791476D02*
X7763095Y-13791476D01*
X7886905Y-13591476D02*
X7905952Y-13591476D01*
X7905952Y-13591476D02*
X7925000Y-13601000D01*
X7925000Y-13601000D02*
X7934524Y-13610524D01*
X7934524Y-13610524D02*
X7944048Y-13629571D01*
X7944048Y-13629571D02*
X7953571Y-13667667D01*
X7953571Y-13667667D02*
X7953571Y-13715286D01*
X7953571Y-13715286D02*
X7944048Y-13753381D01*
X7944048Y-13753381D02*
X7934524Y-13772428D01*
X7934524Y-13772428D02*
X7925000Y-13781952D01*
X7925000Y-13781952D02*
X7905952Y-13791476D01*
X7905952Y-13791476D02*
X7886905Y-13791476D01*
X7886905Y-13791476D02*
X7867857Y-13781952D01*
X7867857Y-13781952D02*
X7858333Y-13772428D01*
X7858333Y-13772428D02*
X7848809Y-13753381D01*
X7848809Y-13753381D02*
X7839286Y-13715286D01*
X7839286Y-13715286D02*
X7839286Y-13667667D01*
X7839286Y-13667667D02*
X7848809Y-13629571D01*
X7848809Y-13629571D02*
X7858333Y-13610524D01*
X7858333Y-13610524D02*
X7867857Y-13601000D01*
X7867857Y-13601000D02*
X7886905Y-13591476D01*
X8077381Y-13591476D02*
X8096429Y-13591476D01*
X8096429Y-13591476D02*
X8115476Y-13601000D01*
X8115476Y-13601000D02*
X8125000Y-13610524D01*
X8125000Y-13610524D02*
X8134524Y-13629571D01*
X8134524Y-13629571D02*
X8144048Y-13667667D01*
X8144048Y-13667667D02*
X8144048Y-13715286D01*
X8144048Y-13715286D02*
X8134524Y-13753381D01*
X8134524Y-13753381D02*
X8125000Y-13772428D01*
X8125000Y-13772428D02*
X8115476Y-13781952D01*
X8115476Y-13781952D02*
X8096429Y-13791476D01*
X8096429Y-13791476D02*
X8077381Y-13791476D01*
X8077381Y-13791476D02*
X8058333Y-13781952D01*
X8058333Y-13781952D02*
X8048809Y-13772428D01*
X8048809Y-13772428D02*
X8039286Y-13753381D01*
X8039286Y-13753381D02*
X8029762Y-13715286D01*
X8029762Y-13715286D02*
X8029762Y-13667667D01*
X8029762Y-13667667D02*
X8039286Y-13629571D01*
X8039286Y-13629571D02*
X8048809Y-13610524D01*
X8048809Y-13610524D02*
X8058333Y-13601000D01*
X8058333Y-13601000D02*
X8077381Y-13591476D01*
X8229762Y-13791476D02*
X8229762Y-13658143D01*
X8229762Y-13677190D02*
X8239286Y-13667667D01*
X8239286Y-13667667D02*
X8258333Y-13658143D01*
X8258333Y-13658143D02*
X8286905Y-13658143D01*
X8286905Y-13658143D02*
X8305952Y-13667667D01*
X8305952Y-13667667D02*
X8315476Y-13686714D01*
X8315476Y-13686714D02*
X8315476Y-13791476D01*
X8315476Y-13686714D02*
X8325000Y-13667667D01*
X8325000Y-13667667D02*
X8344048Y-13658143D01*
X8344048Y-13658143D02*
X8372619Y-13658143D01*
X8372619Y-13658143D02*
X8391667Y-13667667D01*
X8391667Y-13667667D02*
X8401191Y-13686714D01*
X8401191Y-13686714D02*
X8401191Y-13791476D01*
X8496429Y-13791476D02*
X8496429Y-13658143D01*
X8496429Y-13677190D02*
X8505952Y-13667667D01*
X8505952Y-13667667D02*
X8525000Y-13658143D01*
X8525000Y-13658143D02*
X8553572Y-13658143D01*
X8553572Y-13658143D02*
X8572619Y-13667667D01*
X8572619Y-13667667D02*
X8582143Y-13686714D01*
X8582143Y-13686714D02*
X8582143Y-13791476D01*
X8582143Y-13686714D02*
X8591667Y-13667667D01*
X8591667Y-13667667D02*
X8610714Y-13658143D01*
X8610714Y-13658143D02*
X8639286Y-13658143D01*
X8639286Y-13658143D02*
X8658333Y-13667667D01*
X8658333Y-13667667D02*
X8667857Y-13686714D01*
X8667857Y-13686714D02*
X8667857Y-13791476D01*
X9025952Y-13581952D02*
X8854524Y-13839095D01*
X9250714Y-13591476D02*
X9269762Y-13591476D01*
X9269762Y-13591476D02*
X9288810Y-13601000D01*
X9288810Y-13601000D02*
X9298333Y-13610524D01*
X9298333Y-13610524D02*
X9307857Y-13629571D01*
X9307857Y-13629571D02*
X9317381Y-13667667D01*
X9317381Y-13667667D02*
X9317381Y-13715286D01*
X9317381Y-13715286D02*
X9307857Y-13753381D01*
X9307857Y-13753381D02*
X9298333Y-13772428D01*
X9298333Y-13772428D02*
X9288810Y-13781952D01*
X9288810Y-13781952D02*
X9269762Y-13791476D01*
X9269762Y-13791476D02*
X9250714Y-13791476D01*
X9250714Y-13791476D02*
X9231667Y-13781952D01*
X9231667Y-13781952D02*
X9222143Y-13772428D01*
X9222143Y-13772428D02*
X9212619Y-13753381D01*
X9212619Y-13753381D02*
X9203095Y-13715286D01*
X9203095Y-13715286D02*
X9203095Y-13667667D01*
X9203095Y-13667667D02*
X9212619Y-13629571D01*
X9212619Y-13629571D02*
X9222143Y-13610524D01*
X9222143Y-13610524D02*
X9231667Y-13601000D01*
X9231667Y-13601000D02*
X9250714Y-13591476D01*
X9403095Y-13772428D02*
X9412619Y-13781952D01*
X9412619Y-13781952D02*
X9403095Y-13791476D01*
X9403095Y-13791476D02*
X9393572Y-13781952D01*
X9393572Y-13781952D02*
X9403095Y-13772428D01*
X9403095Y-13772428D02*
X9403095Y-13791476D01*
X9536429Y-13591476D02*
X9555476Y-13591476D01*
X9555476Y-13591476D02*
X9574524Y-13601000D01*
X9574524Y-13601000D02*
X9584048Y-13610524D01*
X9584048Y-13610524D02*
X9593572Y-13629571D01*
X9593572Y-13629571D02*
X9603095Y-13667667D01*
X9603095Y-13667667D02*
X9603095Y-13715286D01*
X9603095Y-13715286D02*
X9593572Y-13753381D01*
X9593572Y-13753381D02*
X9584048Y-13772428D01*
X9584048Y-13772428D02*
X9574524Y-13781952D01*
X9574524Y-13781952D02*
X9555476Y-13791476D01*
X9555476Y-13791476D02*
X9536429Y-13791476D01*
X9536429Y-13791476D02*
X9517381Y-13781952D01*
X9517381Y-13781952D02*
X9507857Y-13772428D01*
X9507857Y-13772428D02*
X9498333Y-13753381D01*
X9498333Y-13753381D02*
X9488810Y-13715286D01*
X9488810Y-13715286D02*
X9488810Y-13667667D01*
X9488810Y-13667667D02*
X9498333Y-13629571D01*
X9498333Y-13629571D02*
X9507857Y-13610524D01*
X9507857Y-13610524D02*
X9517381Y-13601000D01*
X9517381Y-13601000D02*
X9536429Y-13591476D01*
X9774524Y-13658143D02*
X9774524Y-13791476D01*
X9726905Y-13581952D02*
X9679286Y-13724809D01*
X9679286Y-13724809D02*
X9803095Y-13724809D01*
X9860238Y-13591476D02*
X9993572Y-13591476D01*
X9993572Y-13591476D02*
X9907857Y-13791476D01*
X10060238Y-13610524D02*
X10069762Y-13601000D01*
X10069762Y-13601000D02*
X10088810Y-13591476D01*
X10088810Y-13591476D02*
X10136429Y-13591476D01*
X10136429Y-13591476D02*
X10155476Y-13601000D01*
X10155476Y-13601000D02*
X10165000Y-13610524D01*
X10165000Y-13610524D02*
X10174524Y-13629571D01*
X10174524Y-13629571D02*
X10174524Y-13648619D01*
X10174524Y-13648619D02*
X10165000Y-13677190D01*
X10165000Y-13677190D02*
X10050714Y-13791476D01*
X10050714Y-13791476D02*
X10174524Y-13791476D01*
X10250714Y-13591476D02*
X10250714Y-13629571D01*
X10326905Y-13591476D02*
X10326905Y-13629571D01*
X10589762Y-13867667D02*
X10580238Y-13858143D01*
X10580238Y-13858143D02*
X10561191Y-13829571D01*
X10561191Y-13829571D02*
X10551667Y-13810524D01*
X10551667Y-13810524D02*
X10542143Y-13781952D01*
X10542143Y-13781952D02*
X10532619Y-13734333D01*
X10532619Y-13734333D02*
X10532619Y-13696238D01*
X10532619Y-13696238D02*
X10542143Y-13648619D01*
X10542143Y-13648619D02*
X10551667Y-13620048D01*
X10551667Y-13620048D02*
X10561191Y-13601000D01*
X10561191Y-13601000D02*
X10580238Y-13572428D01*
X10580238Y-13572428D02*
X10589762Y-13562905D01*
X10694524Y-13677190D02*
X10675476Y-13667667D01*
X10675476Y-13667667D02*
X10665953Y-13658143D01*
X10665953Y-13658143D02*
X10656429Y-13639095D01*
X10656429Y-13639095D02*
X10656429Y-13629571D01*
X10656429Y-13629571D02*
X10665953Y-13610524D01*
X10665953Y-13610524D02*
X10675476Y-13601000D01*
X10675476Y-13601000D02*
X10694524Y-13591476D01*
X10694524Y-13591476D02*
X10732619Y-13591476D01*
X10732619Y-13591476D02*
X10751667Y-13601000D01*
X10751667Y-13601000D02*
X10761191Y-13610524D01*
X10761191Y-13610524D02*
X10770714Y-13629571D01*
X10770714Y-13629571D02*
X10770714Y-13639095D01*
X10770714Y-13639095D02*
X10761191Y-13658143D01*
X10761191Y-13658143D02*
X10751667Y-13667667D01*
X10751667Y-13667667D02*
X10732619Y-13677190D01*
X10732619Y-13677190D02*
X10694524Y-13677190D01*
X10694524Y-13677190D02*
X10675476Y-13686714D01*
X10675476Y-13686714D02*
X10665953Y-13696238D01*
X10665953Y-13696238D02*
X10656429Y-13715286D01*
X10656429Y-13715286D02*
X10656429Y-13753381D01*
X10656429Y-13753381D02*
X10665953Y-13772428D01*
X10665953Y-13772428D02*
X10675476Y-13781952D01*
X10675476Y-13781952D02*
X10694524Y-13791476D01*
X10694524Y-13791476D02*
X10732619Y-13791476D01*
X10732619Y-13791476D02*
X10751667Y-13781952D01*
X10751667Y-13781952D02*
X10761191Y-13772428D01*
X10761191Y-13772428D02*
X10770714Y-13753381D01*
X10770714Y-13753381D02*
X10770714Y-13715286D01*
X10770714Y-13715286D02*
X10761191Y-13696238D01*
X10761191Y-13696238D02*
X10751667Y-13686714D01*
X10751667Y-13686714D02*
X10732619Y-13677190D01*
X10976429Y-13791476D02*
X10976429Y-13591476D01*
X11062143Y-13791476D02*
X11062143Y-13686714D01*
X11062143Y-13686714D02*
X11052619Y-13667667D01*
X11052619Y-13667667D02*
X11033572Y-13658143D01*
X11033572Y-13658143D02*
X11005000Y-13658143D01*
X11005000Y-13658143D02*
X10985953Y-13667667D01*
X10985953Y-13667667D02*
X10976429Y-13677190D01*
X11185952Y-13791476D02*
X11166905Y-13781952D01*
X11166905Y-13781952D02*
X11157381Y-13772428D01*
X11157381Y-13772428D02*
X11147857Y-13753381D01*
X11147857Y-13753381D02*
X11147857Y-13696238D01*
X11147857Y-13696238D02*
X11157381Y-13677190D01*
X11157381Y-13677190D02*
X11166905Y-13667667D01*
X11166905Y-13667667D02*
X11185952Y-13658143D01*
X11185952Y-13658143D02*
X11214524Y-13658143D01*
X11214524Y-13658143D02*
X11233572Y-13667667D01*
X11233572Y-13667667D02*
X11243095Y-13677190D01*
X11243095Y-13677190D02*
X11252619Y-13696238D01*
X11252619Y-13696238D02*
X11252619Y-13753381D01*
X11252619Y-13753381D02*
X11243095Y-13772428D01*
X11243095Y-13772428D02*
X11233572Y-13781952D01*
X11233572Y-13781952D02*
X11214524Y-13791476D01*
X11214524Y-13791476D02*
X11185952Y-13791476D01*
X11366905Y-13791476D02*
X11347857Y-13781952D01*
X11347857Y-13781952D02*
X11338333Y-13762905D01*
X11338333Y-13762905D02*
X11338333Y-13591476D01*
X11519286Y-13781952D02*
X11500238Y-13791476D01*
X11500238Y-13791476D02*
X11462143Y-13791476D01*
X11462143Y-13791476D02*
X11443095Y-13781952D01*
X11443095Y-13781952D02*
X11433572Y-13762905D01*
X11433572Y-13762905D02*
X11433572Y-13686714D01*
X11433572Y-13686714D02*
X11443095Y-13667667D01*
X11443095Y-13667667D02*
X11462143Y-13658143D01*
X11462143Y-13658143D02*
X11500238Y-13658143D01*
X11500238Y-13658143D02*
X11519286Y-13667667D01*
X11519286Y-13667667D02*
X11528810Y-13686714D01*
X11528810Y-13686714D02*
X11528810Y-13705762D01*
X11528810Y-13705762D02*
X11433572Y-13724809D01*
X11605000Y-13781952D02*
X11624048Y-13791476D01*
X11624048Y-13791476D02*
X11662143Y-13791476D01*
X11662143Y-13791476D02*
X11681191Y-13781952D01*
X11681191Y-13781952D02*
X11690714Y-13762905D01*
X11690714Y-13762905D02*
X11690714Y-13753381D01*
X11690714Y-13753381D02*
X11681191Y-13734333D01*
X11681191Y-13734333D02*
X11662143Y-13724809D01*
X11662143Y-13724809D02*
X11633572Y-13724809D01*
X11633572Y-13724809D02*
X11614524Y-13715286D01*
X11614524Y-13715286D02*
X11605000Y-13696238D01*
X11605000Y-13696238D02*
X11605000Y-13686714D01*
X11605000Y-13686714D02*
X11614524Y-13667667D01*
X11614524Y-13667667D02*
X11633572Y-13658143D01*
X11633572Y-13658143D02*
X11662143Y-13658143D01*
X11662143Y-13658143D02*
X11681191Y-13667667D01*
X11757381Y-13867667D02*
X11766905Y-13858143D01*
X11766905Y-13858143D02*
X11785953Y-13829571D01*
X11785953Y-13829571D02*
X11795476Y-13810524D01*
X11795476Y-13810524D02*
X11805000Y-13781952D01*
X11805000Y-13781952D02*
X11814524Y-13734333D01*
X11814524Y-13734333D02*
X11814524Y-13696238D01*
X11814524Y-13696238D02*
X11805000Y-13648619D01*
X11805000Y-13648619D02*
X11795476Y-13620048D01*
X11795476Y-13620048D02*
X11785953Y-13601000D01*
X11785953Y-13601000D02*
X11766905Y-13572428D01*
X11766905Y-13572428D02*
X11757381Y-13562905D01*
X7025000Y-13882000D02*
X7025000Y-14082000D01*
X6925000Y-13982000D02*
X7125000Y-13982000D01*
X7363095Y-13874524D02*
X7372619Y-13865000D01*
X7372619Y-13865000D02*
X7391667Y-13855476D01*
X7391667Y-13855476D02*
X7439286Y-13855476D01*
X7439286Y-13855476D02*
X7458333Y-13865000D01*
X7458333Y-13865000D02*
X7467857Y-13874524D01*
X7467857Y-13874524D02*
X7477381Y-13893571D01*
X7477381Y-13893571D02*
X7477381Y-13912619D01*
X7477381Y-13912619D02*
X7467857Y-13941190D01*
X7467857Y-13941190D02*
X7353571Y-14055476D01*
X7353571Y-14055476D02*
X7477381Y-14055476D01*
X7563095Y-14036428D02*
X7572619Y-14045952D01*
X7572619Y-14045952D02*
X7563095Y-14055476D01*
X7563095Y-14055476D02*
X7553571Y-14045952D01*
X7553571Y-14045952D02*
X7563095Y-14036428D01*
X7563095Y-14036428D02*
X7563095Y-14055476D01*
X7744048Y-13922143D02*
X7744048Y-14055476D01*
X7696428Y-13845952D02*
X7648809Y-13988809D01*
X7648809Y-13988809D02*
X7772619Y-13988809D01*
X7886905Y-13855476D02*
X7905952Y-13855476D01*
X7905952Y-13855476D02*
X7925000Y-13865000D01*
X7925000Y-13865000D02*
X7934524Y-13874524D01*
X7934524Y-13874524D02*
X7944048Y-13893571D01*
X7944048Y-13893571D02*
X7953571Y-13931667D01*
X7953571Y-13931667D02*
X7953571Y-13979286D01*
X7953571Y-13979286D02*
X7944048Y-14017381D01*
X7944048Y-14017381D02*
X7934524Y-14036428D01*
X7934524Y-14036428D02*
X7925000Y-14045952D01*
X7925000Y-14045952D02*
X7905952Y-14055476D01*
X7905952Y-14055476D02*
X7886905Y-14055476D01*
X7886905Y-14055476D02*
X7867857Y-14045952D01*
X7867857Y-14045952D02*
X7858333Y-14036428D01*
X7858333Y-14036428D02*
X7848809Y-14017381D01*
X7848809Y-14017381D02*
X7839286Y-13979286D01*
X7839286Y-13979286D02*
X7839286Y-13931667D01*
X7839286Y-13931667D02*
X7848809Y-13893571D01*
X7848809Y-13893571D02*
X7858333Y-13874524D01*
X7858333Y-13874524D02*
X7867857Y-13865000D01*
X7867857Y-13865000D02*
X7886905Y-13855476D01*
X8077381Y-13855476D02*
X8096429Y-13855476D01*
X8096429Y-13855476D02*
X8115476Y-13865000D01*
X8115476Y-13865000D02*
X8125000Y-13874524D01*
X8125000Y-13874524D02*
X8134524Y-13893571D01*
X8134524Y-13893571D02*
X8144048Y-13931667D01*
X8144048Y-13931667D02*
X8144048Y-13979286D01*
X8144048Y-13979286D02*
X8134524Y-14017381D01*
X8134524Y-14017381D02*
X8125000Y-14036428D01*
X8125000Y-14036428D02*
X8115476Y-14045952D01*
X8115476Y-14045952D02*
X8096429Y-14055476D01*
X8096429Y-14055476D02*
X8077381Y-14055476D01*
X8077381Y-14055476D02*
X8058333Y-14045952D01*
X8058333Y-14045952D02*
X8048809Y-14036428D01*
X8048809Y-14036428D02*
X8039286Y-14017381D01*
X8039286Y-14017381D02*
X8029762Y-13979286D01*
X8029762Y-13979286D02*
X8029762Y-13931667D01*
X8029762Y-13931667D02*
X8039286Y-13893571D01*
X8039286Y-13893571D02*
X8048809Y-13874524D01*
X8048809Y-13874524D02*
X8058333Y-13865000D01*
X8058333Y-13865000D02*
X8077381Y-13855476D01*
X8229762Y-14055476D02*
X8229762Y-13922143D01*
X8229762Y-13941190D02*
X8239286Y-13931667D01*
X8239286Y-13931667D02*
X8258333Y-13922143D01*
X8258333Y-13922143D02*
X8286905Y-13922143D01*
X8286905Y-13922143D02*
X8305952Y-13931667D01*
X8305952Y-13931667D02*
X8315476Y-13950714D01*
X8315476Y-13950714D02*
X8315476Y-14055476D01*
X8315476Y-13950714D02*
X8325000Y-13931667D01*
X8325000Y-13931667D02*
X8344048Y-13922143D01*
X8344048Y-13922143D02*
X8372619Y-13922143D01*
X8372619Y-13922143D02*
X8391667Y-13931667D01*
X8391667Y-13931667D02*
X8401191Y-13950714D01*
X8401191Y-13950714D02*
X8401191Y-14055476D01*
X8496429Y-14055476D02*
X8496429Y-13922143D01*
X8496429Y-13941190D02*
X8505952Y-13931667D01*
X8505952Y-13931667D02*
X8525000Y-13922143D01*
X8525000Y-13922143D02*
X8553572Y-13922143D01*
X8553572Y-13922143D02*
X8572619Y-13931667D01*
X8572619Y-13931667D02*
X8582143Y-13950714D01*
X8582143Y-13950714D02*
X8582143Y-14055476D01*
X8582143Y-13950714D02*
X8591667Y-13931667D01*
X8591667Y-13931667D02*
X8610714Y-13922143D01*
X8610714Y-13922143D02*
X8639286Y-13922143D01*
X8639286Y-13922143D02*
X8658333Y-13931667D01*
X8658333Y-13931667D02*
X8667857Y-13950714D01*
X8667857Y-13950714D02*
X8667857Y-14055476D01*
X9025952Y-13845952D02*
X8854524Y-14103095D01*
X9250714Y-13855476D02*
X9269762Y-13855476D01*
X9269762Y-13855476D02*
X9288810Y-13865000D01*
X9288810Y-13865000D02*
X9298333Y-13874524D01*
X9298333Y-13874524D02*
X9307857Y-13893571D01*
X9307857Y-13893571D02*
X9317381Y-13931667D01*
X9317381Y-13931667D02*
X9317381Y-13979286D01*
X9317381Y-13979286D02*
X9307857Y-14017381D01*
X9307857Y-14017381D02*
X9298333Y-14036428D01*
X9298333Y-14036428D02*
X9288810Y-14045952D01*
X9288810Y-14045952D02*
X9269762Y-14055476D01*
X9269762Y-14055476D02*
X9250714Y-14055476D01*
X9250714Y-14055476D02*
X9231667Y-14045952D01*
X9231667Y-14045952D02*
X9222143Y-14036428D01*
X9222143Y-14036428D02*
X9212619Y-14017381D01*
X9212619Y-14017381D02*
X9203095Y-13979286D01*
X9203095Y-13979286D02*
X9203095Y-13931667D01*
X9203095Y-13931667D02*
X9212619Y-13893571D01*
X9212619Y-13893571D02*
X9222143Y-13874524D01*
X9222143Y-13874524D02*
X9231667Y-13865000D01*
X9231667Y-13865000D02*
X9250714Y-13855476D01*
X9403095Y-14036428D02*
X9412619Y-14045952D01*
X9412619Y-14045952D02*
X9403095Y-14055476D01*
X9403095Y-14055476D02*
X9393572Y-14045952D01*
X9393572Y-14045952D02*
X9403095Y-14036428D01*
X9403095Y-14036428D02*
X9403095Y-14055476D01*
X9536429Y-13855476D02*
X9555476Y-13855476D01*
X9555476Y-13855476D02*
X9574524Y-13865000D01*
X9574524Y-13865000D02*
X9584048Y-13874524D01*
X9584048Y-13874524D02*
X9593572Y-13893571D01*
X9593572Y-13893571D02*
X9603095Y-13931667D01*
X9603095Y-13931667D02*
X9603095Y-13979286D01*
X9603095Y-13979286D02*
X9593572Y-14017381D01*
X9593572Y-14017381D02*
X9584048Y-14036428D01*
X9584048Y-14036428D02*
X9574524Y-14045952D01*
X9574524Y-14045952D02*
X9555476Y-14055476D01*
X9555476Y-14055476D02*
X9536429Y-14055476D01*
X9536429Y-14055476D02*
X9517381Y-14045952D01*
X9517381Y-14045952D02*
X9507857Y-14036428D01*
X9507857Y-14036428D02*
X9498333Y-14017381D01*
X9498333Y-14017381D02*
X9488810Y-13979286D01*
X9488810Y-13979286D02*
X9488810Y-13931667D01*
X9488810Y-13931667D02*
X9498333Y-13893571D01*
X9498333Y-13893571D02*
X9507857Y-13874524D01*
X9507857Y-13874524D02*
X9517381Y-13865000D01*
X9517381Y-13865000D02*
X9536429Y-13855476D01*
X9698333Y-14055476D02*
X9736429Y-14055476D01*
X9736429Y-14055476D02*
X9755476Y-14045952D01*
X9755476Y-14045952D02*
X9765000Y-14036428D01*
X9765000Y-14036428D02*
X9784048Y-14007857D01*
X9784048Y-14007857D02*
X9793572Y-13969762D01*
X9793572Y-13969762D02*
X9793572Y-13893571D01*
X9793572Y-13893571D02*
X9784048Y-13874524D01*
X9784048Y-13874524D02*
X9774524Y-13865000D01*
X9774524Y-13865000D02*
X9755476Y-13855476D01*
X9755476Y-13855476D02*
X9717381Y-13855476D01*
X9717381Y-13855476D02*
X9698333Y-13865000D01*
X9698333Y-13865000D02*
X9688810Y-13874524D01*
X9688810Y-13874524D02*
X9679286Y-13893571D01*
X9679286Y-13893571D02*
X9679286Y-13941190D01*
X9679286Y-13941190D02*
X9688810Y-13960238D01*
X9688810Y-13960238D02*
X9698333Y-13969762D01*
X9698333Y-13969762D02*
X9717381Y-13979286D01*
X9717381Y-13979286D02*
X9755476Y-13979286D01*
X9755476Y-13979286D02*
X9774524Y-13969762D01*
X9774524Y-13969762D02*
X9784048Y-13960238D01*
X9784048Y-13960238D02*
X9793572Y-13941190D01*
X9965000Y-13922143D02*
X9965000Y-14055476D01*
X9917381Y-13845952D02*
X9869762Y-13988809D01*
X9869762Y-13988809D02*
X9993572Y-13988809D01*
X10165000Y-13855476D02*
X10069762Y-13855476D01*
X10069762Y-13855476D02*
X10060238Y-13950714D01*
X10060238Y-13950714D02*
X10069762Y-13941190D01*
X10069762Y-13941190D02*
X10088810Y-13931667D01*
X10088810Y-13931667D02*
X10136429Y-13931667D01*
X10136429Y-13931667D02*
X10155476Y-13941190D01*
X10155476Y-13941190D02*
X10165000Y-13950714D01*
X10165000Y-13950714D02*
X10174524Y-13969762D01*
X10174524Y-13969762D02*
X10174524Y-14017381D01*
X10174524Y-14017381D02*
X10165000Y-14036428D01*
X10165000Y-14036428D02*
X10155476Y-14045952D01*
X10155476Y-14045952D02*
X10136429Y-14055476D01*
X10136429Y-14055476D02*
X10088810Y-14055476D01*
X10088810Y-14055476D02*
X10069762Y-14045952D01*
X10069762Y-14045952D02*
X10060238Y-14036428D01*
X10250714Y-13855476D02*
X10250714Y-13893571D01*
X10326905Y-13855476D02*
X10326905Y-13893571D01*
X10589762Y-14131667D02*
X10580238Y-14122143D01*
X10580238Y-14122143D02*
X10561191Y-14093571D01*
X10561191Y-14093571D02*
X10551667Y-14074524D01*
X10551667Y-14074524D02*
X10542143Y-14045952D01*
X10542143Y-14045952D02*
X10532619Y-13998333D01*
X10532619Y-13998333D02*
X10532619Y-13960238D01*
X10532619Y-13960238D02*
X10542143Y-13912619D01*
X10542143Y-13912619D02*
X10551667Y-13884048D01*
X10551667Y-13884048D02*
X10561191Y-13865000D01*
X10561191Y-13865000D02*
X10580238Y-13836428D01*
X10580238Y-13836428D02*
X10589762Y-13826905D01*
X10751667Y-13922143D02*
X10751667Y-14055476D01*
X10704048Y-13845952D02*
X10656429Y-13988809D01*
X10656429Y-13988809D02*
X10780238Y-13988809D01*
X10976429Y-14055476D02*
X10976429Y-13855476D01*
X11062143Y-14055476D02*
X11062143Y-13950714D01*
X11062143Y-13950714D02*
X11052619Y-13931667D01*
X11052619Y-13931667D02*
X11033572Y-13922143D01*
X11033572Y-13922143D02*
X11005000Y-13922143D01*
X11005000Y-13922143D02*
X10985953Y-13931667D01*
X10985953Y-13931667D02*
X10976429Y-13941190D01*
X11185952Y-14055476D02*
X11166905Y-14045952D01*
X11166905Y-14045952D02*
X11157381Y-14036428D01*
X11157381Y-14036428D02*
X11147857Y-14017381D01*
X11147857Y-14017381D02*
X11147857Y-13960238D01*
X11147857Y-13960238D02*
X11157381Y-13941190D01*
X11157381Y-13941190D02*
X11166905Y-13931667D01*
X11166905Y-13931667D02*
X11185952Y-13922143D01*
X11185952Y-13922143D02*
X11214524Y-13922143D01*
X11214524Y-13922143D02*
X11233572Y-13931667D01*
X11233572Y-13931667D02*
X11243095Y-13941190D01*
X11243095Y-13941190D02*
X11252619Y-13960238D01*
X11252619Y-13960238D02*
X11252619Y-14017381D01*
X11252619Y-14017381D02*
X11243095Y-14036428D01*
X11243095Y-14036428D02*
X11233572Y-14045952D01*
X11233572Y-14045952D02*
X11214524Y-14055476D01*
X11214524Y-14055476D02*
X11185952Y-14055476D01*
X11366905Y-14055476D02*
X11347857Y-14045952D01*
X11347857Y-14045952D02*
X11338333Y-14026905D01*
X11338333Y-14026905D02*
X11338333Y-13855476D01*
X11519286Y-14045952D02*
X11500238Y-14055476D01*
X11500238Y-14055476D02*
X11462143Y-14055476D01*
X11462143Y-14055476D02*
X11443095Y-14045952D01*
X11443095Y-14045952D02*
X11433572Y-14026905D01*
X11433572Y-14026905D02*
X11433572Y-13950714D01*
X11433572Y-13950714D02*
X11443095Y-13931667D01*
X11443095Y-13931667D02*
X11462143Y-13922143D01*
X11462143Y-13922143D02*
X11500238Y-13922143D01*
X11500238Y-13922143D02*
X11519286Y-13931667D01*
X11519286Y-13931667D02*
X11528810Y-13950714D01*
X11528810Y-13950714D02*
X11528810Y-13969762D01*
X11528810Y-13969762D02*
X11433572Y-13988809D01*
X11605000Y-14045952D02*
X11624048Y-14055476D01*
X11624048Y-14055476D02*
X11662143Y-14055476D01*
X11662143Y-14055476D02*
X11681191Y-14045952D01*
X11681191Y-14045952D02*
X11690714Y-14026905D01*
X11690714Y-14026905D02*
X11690714Y-14017381D01*
X11690714Y-14017381D02*
X11681191Y-13998333D01*
X11681191Y-13998333D02*
X11662143Y-13988809D01*
X11662143Y-13988809D02*
X11633572Y-13988809D01*
X11633572Y-13988809D02*
X11614524Y-13979286D01*
X11614524Y-13979286D02*
X11605000Y-13960238D01*
X11605000Y-13960238D02*
X11605000Y-13950714D01*
X11605000Y-13950714D02*
X11614524Y-13931667D01*
X11614524Y-13931667D02*
X11633572Y-13922143D01*
X11633572Y-13922143D02*
X11662143Y-13922143D01*
X11662143Y-13922143D02*
X11681191Y-13931667D01*
X11757381Y-14131667D02*
X11766905Y-14122143D01*
X11766905Y-14122143D02*
X11785953Y-14093571D01*
X11785953Y-14093571D02*
X11795476Y-14074524D01*
X11795476Y-14074524D02*
X11805000Y-14045952D01*
X11805000Y-14045952D02*
X11814524Y-13998333D01*
X11814524Y-13998333D02*
X11814524Y-13960238D01*
X11814524Y-13960238D02*
X11805000Y-13912619D01*
X11805000Y-13912619D02*
X11795476Y-13884048D01*
X11795476Y-13884048D02*
X11785953Y-13865000D01*
X11785953Y-13865000D02*
X11766905Y-13836428D01*
X11766905Y-13836428D02*
X11757381Y-13826905D01*
M02*
